{"glyphs":{"0":{"ha":814,"x_min":83,"x_max":729,"o":"m 210 -17 l 210 108 l 83 108 l 83 750 l 210 750 l 210 876 l 601 876 l 601 750 l 729 750 l 729 108 l 601 108 l 601 -17 l 210 -17 m 224 122 l 588 122 l 588 736 l 224 736 l 224 122 z "},"1":{"ha":561,"x_min":83,"x_max":476,"o":"m 335 -17 l 335 736 l 224 736 l 224 611 l 83 611 l 83 750 l 210 750 l 210 876 l 349 876 l 349 750 l 476 750 l 476 -17 l 335 -17 z "},"2":{"ha":814,"x_min":83,"x_max":729,"o":"m 210 -17 l 210 108 l 83 108 l 83 375 l 210 375 l 210 499 l 588 499 l 588 736 l 224 736 l 224 611 l 83 611 l 83 750 l 210 750 l 210 876 l 601 876 l 601 750 l 729 750 l 729 486 l 601 486 l 601 361 l 224 361 l 224 122 l 588 122 l 588 249 l 729 249 l 729 108 l 601 108 l 601 -17 l 210 -17 z "},"3":{"ha":814,"x_min":83,"x_max":729,"o":"m 210 -17 l 210 108 l 83 108 l 83 249 l 224 249 l 224 122 l 588 122 l 588 361 l 210 361 l 210 499 l 588 499 l 588 736 l 224 736 l 224 611 l 83 611 l 83 750 l 210 750 l 210 876 l 601 876 l 601 750 l 729 750 l 729 486 l 601 486 l 601 375 l 729 375 l 729 108 l 601 108 l 601 -17 l 210 -17 z "},"4":{"ha":814,"x_min":83,"x_max":729,"o":"m 588 -17 l 588 235 l 83 235 l 83 499 l 210 499 l 210 625 l 335 625 l 335 750 l 463 750 l 463 876 l 729 876 l 729 -17 l 588 -17 m 224 375 l 588 375 l 588 736 l 476 736 l 476 611 l 349 611 l 349 486 l 224 486 l 224 375 z "},"5":{"ha":814,"x_min":83,"x_max":729,"o":"m 210 -17 l 210 108 l 83 108 l 83 249 l 224 249 l 224 122 l 588 122 l 588 235 l 335 235 l 335 361 l 210 361 l 210 486 l 83 486 l 83 750 l 210 750 l 210 876 l 601 876 l 601 750 l 729 750 l 729 486 l 588 486 l 588 736 l 224 736 l 224 499 l 349 499 l 349 375 l 601 375 l 601 249 l 729 249 l 729 108 l 601 108 l 601 -17 l 210 -17 z "},"6":{"ha":814,"x_min":83,"x_max":729,"o":"m 210 -17 l 210 108 l 83 108 l 83 750 l 210 750 l 210 876 l 601 876 l 601 750 l 729 750 l 729 611 l 588 611 l 588 736 l 224 736 l 224 499 l 601 499 l 601 375 l 729 375 l 729 108 l 601 108 l 601 -17 l 210 -17 m 224 122 l 588 122 l 588 361 l 224 361 l 224 122 z "},"7":{"ha":814,"x_min":83,"x_max":729,"o":"m 588 -17 l 588 736 l 224 736 l 224 611 l 83 611 l 83 750 l 210 750 l 210 876 l 601 876 l 601 750 l 729 750 l 729 -17 l 588 -17 z "},"8":{"ha":814,"x_min":83,"x_max":729,"o":"m 210 -17 l 210 108 l 83 108 l 83 375 l 210 375 l 210 486 l 83 486 l 83 750 l 210 750 l 210 876 l 601 876 l 601 750 l 729 750 l 729 486 l 601 486 l 601 375 l 729 375 l 729 108 l 601 108 l 601 -17 l 210 -17 m 224 122 l 588 122 l 588 361 l 224 361 l 224 122 m 224 499 l 588 499 l 588 736 l 224 736 l 224 499 z "},"9":{"ha":814,"x_min":83,"x_max":729,"o":"m 210 -17 l 210 108 l 83 108 l 83 249 l 224 249 l 224 122 l 588 122 l 588 361 l 210 361 l 210 486 l 83 486 l 83 750 l 210 750 l 210 876 l 601 876 l 601 750 l 729 750 l 729 108 l 601 108 l 601 -17 l 210 -17 m 224 499 l 588 499 l 588 736 l 224 736 l 224 499 z "},"A":{"ha":814,"x_min":83,"x_max":729,"o":"m 83 -17 l 83 625 l 210 625 l 210 750 l 335 750 l 335 876 l 476 876 l 476 750 l 601 750 l 601 625 l 729 625 l 729 -17 l 588 -17 l 588 235 l 224 235 l 224 -17 l 83 -17 m 224 375 l 588 375 l 588 611 l 463 611 l 463 736 l 349 736 l 349 611 l 224 611 l 224 375 z "},"Á":{"ha":814,"x_min":83,"x_max":729,"o":"m 83 -17 l 83 625 l 210 625 l 210 750 l 335 750 l 335 876 l 476 876 l 476 750 l 601 750 l 601 625 l 729 625 l 729 -17 l 588 -17 l 588 235 l 224 235 l 224 -17 l 83 -17 m 224 375 l 588 375 l 588 611 l 463 611 l 463 736 l 349 736 l 349 611 l 224 611 l 224 375 m 285 978 l 285 1053 l 347 1053 l 347 1115 l 411 1115 l 411 1179 l 488 1179 l 488 1103 l 425 1103 l 425 1039 l 361 1039 l 361 978 l 285 978 z "},"Ă":{"ha":814,"x_min":83,"x_max":729,"o":"m 83 -17 l 83 625 l 210 625 l 210 750 l 335 750 l 335 876 l 476 876 l 476 750 l 601 750 l 601 625 l 729 625 l 729 -17 l 588 -17 l 588 235 l 224 235 l 224 -17 l 83 -17 m 224 375 l 588 375 l 588 611 l 463 611 l 463 736 l 349 736 l 349 611 l 224 611 l 224 375 m 235 978 l 235 1118 l 311 1118 l 311 1054 l 497 1054 l 497 1118 l 572 1118 l 572 978 l 235 978 z "},"Â":{"ha":814,"x_min":83,"x_max":729,"o":"m 83 -17 l 83 625 l 210 625 l 210 750 l 335 750 l 335 876 l 476 876 l 476 750 l 601 750 l 601 625 l 729 625 l 729 -17 l 588 -17 l 588 235 l 224 235 l 224 -17 l 83 -17 m 224 375 l 588 375 l 588 611 l 463 611 l 463 736 l 349 736 l 349 611 l 224 611 l 224 375 m 306 978 l 306 1054 l 368 1054 l 368 1118 l 446 1118 l 446 1054 l 508 1054 l 508 978 l 432 978 l 432 1042 l 382 1042 l 382 978 l 306 978 z "},"Ä":{"ha":814,"x_min":83,"x_max":729,"o":"m 83 -17 l 83 625 l 210 625 l 210 750 l 335 750 l 335 876 l 476 876 l 476 750 l 601 750 l 601 625 l 729 625 l 729 -17 l 588 -17 l 588 235 l 224 235 l 224 -17 l 83 -17 m 224 375 l 588 375 l 588 611 l 463 611 l 463 736 l 349 736 l 349 611 l 224 611 l 224 375 m 194 978 l 194 1118 l 336 1118 l 336 978 l 194 978 m 490 978 l 490 1118 l 631 1118 l 631 978 l 490 978 z "},"À":{"ha":814,"x_min":83,"x_max":729,"o":"m 83 -17 l 83 625 l 210 625 l 210 750 l 335 750 l 335 876 l 476 876 l 476 750 l 601 750 l 601 625 l 729 625 l 729 -17 l 588 -17 l 588 235 l 224 235 l 224 -17 l 83 -17 m 224 375 l 588 375 l 588 611 l 463 611 l 463 736 l 349 736 l 349 611 l 224 611 l 224 375 m 369 978 l 369 1039 l 306 1039 l 306 1103 l 243 1103 l 243 1179 l 319 1179 l 319 1115 l 383 1115 l 383 1053 l 446 1053 l 446 978 l 369 978 z "},"Ā":{"ha":814,"x_min":83,"x_max":729,"o":"m 83 -17 l 83 625 l 210 625 l 210 750 l 335 750 l 335 876 l 476 876 l 476 750 l 601 750 l 601 625 l 729 625 l 729 -17 l 588 -17 l 588 235 l 224 235 l 224 -17 l 83 -17 m 224 375 l 588 375 l 588 611 l 463 611 l 463 736 l 349 736 l 349 611 l 224 611 l 224 375 m 215 978 l 215 1089 l 607 1089 l 607 978 l 215 978 z "},"Ą":{"ha":814,"x_min":83,"x_max":826,"o":"m 83 -17 l 83 625 l 210 625 l 210 750 l 335 750 l 335 876 l 476 876 l 476 750 l 601 750 l 601 625 l 729 625 l 729 -17 l 588 -17 l 588 235 l 224 235 l 224 -17 l 83 -17 m 224 375 l 588 375 l 588 611 l 463 611 l 463 736 l 349 736 l 349 611 l 224 611 l 224 375 m 561 -294 l 561 -232 l 497 -232 l 497 -156 l 561 -156 l 561 -93 l 624 -93 l 624 36 l 700 36 l 700 -107 l 638 -107 l 638 -169 l 575 -169 l 575 -218 l 750 -218 l 750 -156 l 826 -156 l 826 -232 l 764 -232 l 764 -294 l 561 -294 z "},"Å":{"ha":814,"x_min":83,"x_max":729,"o":"m 83 -17 l 83 625 l 210 625 l 210 750 l 335 750 l 335 876 l 476 876 l 476 750 l 601 750 l 601 625 l 729 625 l 729 -17 l 588 -17 l 588 235 l 224 235 l 224 -17 l 83 -17 m 224 375 l 588 375 l 588 611 l 463 611 l 463 736 l 349 736 l 349 611 l 224 611 l 224 375 m 335 978 l 335 1118 l 475 1118 l 475 978 l 335 978 m 381 1024 l 429 1024 l 429 1072 l 381 1072 l 381 1024 z "},"Ã":{"ha":814,"x_min":83,"x_max":729,"o":"m 83 -17 l 83 625 l 210 625 l 210 750 l 335 750 l 335 876 l 476 876 l 476 750 l 601 750 l 601 625 l 729 625 l 729 -17 l 588 -17 l 588 235 l 224 235 l 224 -17 l 83 -17 m 224 375 l 588 375 l 588 611 l 463 611 l 463 736 l 349 736 l 349 611 l 224 611 l 224 375 m 225 978 l 225 1121 l 436 1121 l 436 1057 l 488 1057 l 488 1121 l 568 1121 l 568 978 l 356 978 l 356 1043 l 304 1043 l 304 978 l 225 978 z "},"Æ":{"ha":1318,"x_min":83,"x_max":1233,"o":"m 83 -17 l 83 625 l 210 625 l 210 750 l 335 750 l 335 876 l 476 876 l 476 750 l 715 750 l 715 876 l 1107 876 l 1107 750 l 1233 750 l 1233 611 l 1093 611 l 1093 736 l 729 736 l 729 499 l 981 499 l 981 361 l 729 361 l 729 122 l 1093 122 l 1093 249 l 1233 249 l 1233 108 l 1107 108 l 1107 -17 l 588 -17 l 588 235 l 224 235 l 224 -17 l 83 -17 m 224 375 l 588 375 l 588 611 l 463 611 l 463 736 l 349 736 l 349 611 l 224 611 l 224 375 z "},"Ǽ":{"ha":1318,"x_min":83,"x_max":1233,"o":"m 83 -17 l 83 625 l 210 625 l 210 750 l 335 750 l 335 876 l 476 876 l 476 750 l 715 750 l 715 876 l 1107 876 l 1107 750 l 1233 750 l 1233 611 l 1093 611 l 1093 736 l 729 736 l 729 499 l 981 499 l 981 361 l 729 361 l 729 122 l 1093 122 l 1093 249 l 1233 249 l 1233 108 l 1107 108 l 1107 -17 l 588 -17 l 588 235 l 224 235 l 224 -17 l 83 -17 m 224 375 l 588 375 l 588 611 l 463 611 l 463 736 l 349 736 l 349 611 l 224 611 l 224 375 m 572 961 l 572 1036 l 635 1036 l 635 1099 l 699 1099 l 699 1163 l 775 1163 l 775 1086 l 713 1086 l 713 1022 l 649 1022 l 649 961 l 572 961 z "},"B":{"ha":814,"x_min":83,"x_max":729,"o":"m 210 -17 l 210 108 l 83 108 l 83 750 l 210 750 l 210 876 l 601 876 l 601 750 l 729 750 l 729 486 l 601 486 l 601 375 l 729 375 l 729 108 l 601 108 l 601 -17 l 210 -17 m 224 122 l 588 122 l 588 361 l 335 361 l 335 499 l 588 499 l 588 736 l 224 736 l 224 122 z "},"C":{"ha":814,"x_min":83,"x_max":729,"o":"m 210 -17 l 210 108 l 83 108 l 83 750 l 210 750 l 210 876 l 601 876 l 601 750 l 729 750 l 729 486 l 588 486 l 588 736 l 224 736 l 224 122 l 588 122 l 588 375 l 729 375 l 729 108 l 601 108 l 601 -17 l 210 -17 z "},"Ć":{"ha":814,"x_min":83,"x_max":729,"o":"m 210 -17 l 210 108 l 83 108 l 83 750 l 210 750 l 210 876 l 601 876 l 601 750 l 729 750 l 729 486 l 588 486 l 588 736 l 224 736 l 224 122 l 588 122 l 588 375 l 729 375 l 729 108 l 601 108 l 601 -17 l 210 -17 m 285 979 l 285 1054 l 347 1054 l 347 1117 l 411 1117 l 411 1181 l 488 1181 l 488 1104 l 425 1104 l 425 1040 l 361 1040 l 361 979 l 285 979 z "},"Č":{"ha":814,"x_min":83,"x_max":729,"o":"m 210 -17 l 210 108 l 83 108 l 83 750 l 210 750 l 210 876 l 601 876 l 601 750 l 729 750 l 729 486 l 588 486 l 588 736 l 224 736 l 224 122 l 588 122 l 588 375 l 729 375 l 729 108 l 601 108 l 601 -17 l 210 -17 m 368 979 l 368 1043 l 306 1043 l 306 1119 l 382 1119 l 382 1056 l 432 1056 l 432 1119 l 508 1119 l 508 1043 l 446 1043 l 446 979 l 368 979 z "},"Ç":{"ha":814,"x_min":83,"x_max":729,"o":"m 210 -17 l 210 108 l 83 108 l 83 750 l 210 750 l 210 876 l 601 876 l 601 750 l 729 750 l 729 486 l 588 486 l 588 736 l 224 736 l 224 122 l 588 122 l 588 375 l 729 375 l 729 108 l 601 108 l 601 -17 l 210 -17 m 307 -278 l 307 -215 l 243 -215 l 243 -139 l 321 -139 l 321 -201 l 496 -201 l 496 -153 l 432 -153 l 432 -90 l 369 -90 l 369 51 l 446 51 l 446 -76 l 510 -76 l 510 -139 l 572 -139 l 572 -215 l 510 -215 l 510 -278 l 307 -278 z "},"Ĉ":{"ha":814,"x_min":83,"x_max":729,"o":"m 210 -17 l 210 108 l 83 108 l 83 750 l 210 750 l 210 876 l 601 876 l 601 750 l 729 750 l 729 486 l 588 486 l 588 736 l 224 736 l 224 122 l 588 122 l 588 375 l 729 375 l 729 108 l 601 108 l 601 -17 l 210 -17 m 306 979 l 306 1056 l 368 1056 l 368 1119 l 446 1119 l 446 1056 l 508 1056 l 508 979 l 432 979 l 432 1043 l 382 1043 l 382 979 l 306 979 z "},"Ċ":{"ha":814,"x_min":83,"x_max":729,"o":"m 210 -17 l 210 108 l 83 108 l 83 750 l 210 750 l 210 876 l 601 876 l 601 750 l 729 750 l 729 486 l 588 486 l 588 736 l 224 736 l 224 122 l 588 122 l 588 375 l 729 375 l 729 108 l 601 108 l 601 -17 l 210 -17 m 336 979 l 336 1119 l 478 1119 l 478 979 l 336 979 z "},"D":{"ha":814,"x_min":83,"x_max":729,"o":"m 83 -17 l 83 876 l 476 876 l 476 750 l 601 750 l 601 625 l 729 625 l 729 235 l 601 235 l 601 108 l 476 108 l 476 -17 l 83 -17 m 224 122 l 463 122 l 463 249 l 588 249 l 588 611 l 463 611 l 463 736 l 224 736 l 224 122 z "},"Ď":{"ha":814,"x_min":83,"x_max":729,"o":"m 83 -17 l 83 876 l 476 876 l 476 750 l 601 750 l 601 625 l 729 625 l 729 235 l 601 235 l 601 108 l 476 108 l 476 -17 l 83 -17 m 224 122 l 463 122 l 463 249 l 588 249 l 588 611 l 463 611 l 463 736 l 224 736 l 224 122 m 308 979 l 308 1043 l 246 1043 l 246 1119 l 322 1119 l 322 1056 l 372 1056 l 372 1119 l 449 1119 l 449 1043 l 386 1043 l 386 979 l 308 979 z "},"Đ":{"ha":814,"x_min":31,"x_max":729,"o":"m 83 -17 l 83 335 l 31 335 l 31 475 l 83 475 l 83 876 l 476 876 l 476 750 l 601 750 l 601 625 l 729 625 l 729 235 l 601 235 l 601 108 l 476 108 l 476 -17 l 83 -17 m 224 122 l 463 122 l 463 249 l 588 249 l 588 611 l 463 611 l 463 736 l 224 736 l 224 475 l 353 475 l 353 335 l 224 335 l 224 122 z "},"Ð":{"ha":814,"x_min":31,"x_max":729,"o":"m 83 -17 l 83 335 l 31 335 l 31 475 l 83 475 l 83 876 l 476 876 l 476 750 l 601 750 l 601 625 l 729 625 l 729 235 l 601 235 l 601 108 l 476 108 l 476 -17 l 83 -17 m 224 122 l 463 122 l 463 249 l 588 249 l 588 611 l 463 611 l 463 736 l 224 736 l 224 475 l 353 475 l 353 335 l 224 335 l 224 122 z "},"E":{"ha":814,"x_min":83,"x_max":729,"o":"m 210 -17 l 210 108 l 83 108 l 83 750 l 210 750 l 210 876 l 601 876 l 601 750 l 729 750 l 729 611 l 588 611 l 588 736 l 224 736 l 224 499 l 476 499 l 476 361 l 224 361 l 224 122 l 588 122 l 588 249 l 729 249 l 729 108 l 601 108 l 601 -17 l 210 -17 z "},"É":{"ha":814,"x_min":83,"x_max":729,"o":"m 210 -17 l 210 108 l 83 108 l 83 750 l 210 750 l 210 876 l 601 876 l 601 750 l 729 750 l 729 611 l 588 611 l 588 736 l 224 736 l 224 499 l 476 499 l 476 361 l 224 361 l 224 122 l 588 122 l 588 249 l 729 249 l 729 108 l 601 108 l 601 -17 l 210 -17 m 285 979 l 285 1054 l 347 1054 l 347 1117 l 411 1117 l 411 1181 l 488 1181 l 488 1104 l 425 1104 l 425 1040 l 361 1040 l 361 979 l 285 979 z "},"Ĕ":{"ha":814,"x_min":83,"x_max":729,"o":"m 210 -17 l 210 108 l 83 108 l 83 750 l 210 750 l 210 876 l 601 876 l 601 750 l 729 750 l 729 611 l 588 611 l 588 736 l 224 736 l 224 499 l 476 499 l 476 361 l 224 361 l 224 122 l 588 122 l 588 249 l 729 249 l 729 108 l 601 108 l 601 -17 l 210 -17 m 235 979 l 235 1119 l 311 1119 l 311 1056 l 497 1056 l 497 1119 l 572 1119 l 572 979 l 235 979 z "},"Ě":{"ha":814,"x_min":83,"x_max":729,"o":"m 210 -17 l 210 108 l 83 108 l 83 750 l 210 750 l 210 876 l 601 876 l 601 750 l 729 750 l 729 611 l 588 611 l 588 736 l 224 736 l 224 499 l 476 499 l 476 361 l 224 361 l 224 122 l 588 122 l 588 249 l 729 249 l 729 108 l 601 108 l 601 -17 l 210 -17 m 368 979 l 368 1043 l 306 1043 l 306 1119 l 382 1119 l 382 1056 l 432 1056 l 432 1119 l 508 1119 l 508 1043 l 446 1043 l 446 979 l 368 979 z "},"Ê":{"ha":814,"x_min":83,"x_max":729,"o":"m 210 -17 l 210 108 l 83 108 l 83 750 l 210 750 l 210 876 l 601 876 l 601 750 l 729 750 l 729 611 l 588 611 l 588 736 l 224 736 l 224 499 l 476 499 l 476 361 l 224 361 l 224 122 l 588 122 l 588 249 l 729 249 l 729 108 l 601 108 l 601 -17 l 210 -17 m 306 979 l 306 1056 l 368 1056 l 368 1119 l 446 1119 l 446 1056 l 508 1056 l 508 979 l 432 979 l 432 1043 l 382 1043 l 382 979 l 306 979 z "},"Ë":{"ha":814,"x_min":83,"x_max":729,"o":"m 210 -17 l 210 108 l 83 108 l 83 750 l 210 750 l 210 876 l 601 876 l 601 750 l 729 750 l 729 611 l 588 611 l 588 736 l 224 736 l 224 499 l 476 499 l 476 361 l 224 361 l 224 122 l 588 122 l 588 249 l 729 249 l 729 108 l 601 108 l 601 -17 l 210 -17 m 194 979 l 194 1119 l 336 1119 l 336 979 l 194 979 m 490 979 l 490 1119 l 631 1119 l 631 979 l 490 979 z "},"Ė":{"ha":814,"x_min":83,"x_max":729,"o":"m 210 -17 l 210 108 l 83 108 l 83 750 l 210 750 l 210 876 l 601 876 l 601 750 l 729 750 l 729 611 l 588 611 l 588 736 l 224 736 l 224 499 l 476 499 l 476 361 l 224 361 l 224 122 l 588 122 l 588 249 l 729 249 l 729 108 l 601 108 l 601 -17 l 210 -17 m 336 979 l 336 1119 l 478 1119 l 478 979 l 336 979 z "},"È":{"ha":814,"x_min":83,"x_max":729,"o":"m 210 -17 l 210 108 l 83 108 l 83 750 l 210 750 l 210 876 l 601 876 l 601 750 l 729 750 l 729 611 l 588 611 l 588 736 l 224 736 l 224 499 l 476 499 l 476 361 l 224 361 l 224 122 l 588 122 l 588 249 l 729 249 l 729 108 l 601 108 l 601 -17 l 210 -17 m 369 979 l 369 1040 l 306 1040 l 306 1104 l 243 1104 l 243 1181 l 319 1181 l 319 1117 l 383 1117 l 383 1054 l 446 1054 l 446 979 l 369 979 z "},"Ē":{"ha":814,"x_min":83,"x_max":729,"o":"m 210 -17 l 210 108 l 83 108 l 83 750 l 210 750 l 210 876 l 601 876 l 601 750 l 729 750 l 729 611 l 588 611 l 588 736 l 224 736 l 224 499 l 476 499 l 476 361 l 224 361 l 224 122 l 588 122 l 588 249 l 729 249 l 729 108 l 601 108 l 601 -17 l 210 -17 m 215 979 l 215 1090 l 607 1090 l 607 979 l 215 979 z "},"Ę":{"ha":814,"x_min":83,"x_max":729,"o":"m 210 -17 l 210 108 l 83 108 l 83 750 l 210 750 l 210 876 l 601 876 l 601 750 l 729 750 l 729 611 l 588 611 l 588 736 l 224 736 l 224 499 l 476 499 l 476 361 l 224 361 l 224 122 l 588 122 l 588 249 l 729 249 l 729 108 l 601 108 l 601 -17 l 210 -17 m 307 -294 l 307 -232 l 243 -232 l 243 -156 l 307 -156 l 307 -93 l 369 -93 l 369 36 l 446 36 l 446 -107 l 383 -107 l 383 -169 l 321 -169 l 321 -218 l 496 -218 l 496 -156 l 572 -156 l 572 -232 l 510 -232 l 510 -294 l 307 -294 z "},"F":{"ha":814,"x_min":83,"x_max":729,"o":"m 83 -17 l 83 876 l 601 876 l 601 750 l 729 750 l 729 611 l 588 611 l 588 736 l 224 736 l 224 499 l 476 499 l 476 361 l 224 361 l 224 -17 l 83 -17 z "},"G":{"ha":814,"x_min":83,"x_max":729,"o":"m 210 -17 l 210 108 l 83 108 l 83 750 l 210 750 l 210 876 l 601 876 l 601 750 l 729 750 l 729 486 l 588 486 l 588 736 l 224 736 l 224 122 l 588 122 l 588 235 l 463 235 l 463 361 l 335 361 l 335 499 l 476 499 l 476 375 l 729 375 l 729 108 l 601 108 l 601 -17 l 210 -17 z "},"Ğ":{"ha":814,"x_min":83,"x_max":729,"o":"m 210 -17 l 210 108 l 83 108 l 83 750 l 210 750 l 210 876 l 601 876 l 601 750 l 729 750 l 729 486 l 588 486 l 588 736 l 224 736 l 224 122 l 588 122 l 588 235 l 463 235 l 463 361 l 335 361 l 335 499 l 476 499 l 476 375 l 729 375 l 729 108 l 601 108 l 601 -17 l 210 -17 m 235 979 l 235 1119 l 311 1119 l 311 1056 l 497 1056 l 497 1119 l 572 1119 l 572 979 l 235 979 z "},"Ĝ":{"ha":814,"x_min":83,"x_max":729,"o":"m 210 -17 l 210 108 l 83 108 l 83 750 l 210 750 l 210 876 l 601 876 l 601 750 l 729 750 l 729 486 l 588 486 l 588 736 l 224 736 l 224 122 l 588 122 l 588 235 l 463 235 l 463 361 l 335 361 l 335 499 l 476 499 l 476 375 l 729 375 l 729 108 l 601 108 l 601 -17 l 210 -17 m 306 979 l 306 1056 l 368 1056 l 368 1119 l 446 1119 l 446 1056 l 508 1056 l 508 979 l 432 979 l 432 1043 l 382 1043 l 382 979 l 306 979 z "},"Ģ":{"ha":814,"x_min":83,"x_max":729,"o":"m 210 -17 l 210 108 l 83 108 l 83 750 l 210 750 l 210 876 l 601 876 l 601 750 l 729 750 l 729 486 l 588 486 l 588 736 l 224 736 l 224 122 l 588 122 l 588 235 l 463 235 l 463 361 l 335 361 l 335 499 l 476 499 l 476 375 l 729 375 l 729 108 l 601 108 l 601 -17 l 210 -17 m 389 -339 l 389 -261 l 453 -261 l 453 -214 l 326 -214 l 326 -74 l 467 -74 l 467 -200 l 529 -200 l 529 -275 l 467 -275 l 467 -339 l 389 -339 z "},"Ġ":{"ha":814,"x_min":83,"x_max":729,"o":"m 210 -17 l 210 108 l 83 108 l 83 750 l 210 750 l 210 876 l 601 876 l 601 750 l 729 750 l 729 486 l 588 486 l 588 736 l 224 736 l 224 122 l 588 122 l 588 235 l 463 235 l 463 361 l 335 361 l 335 499 l 476 499 l 476 375 l 729 375 l 729 108 l 601 108 l 601 -17 l 210 -17 m 336 979 l 336 1119 l 478 1119 l 478 979 l 336 979 z "},"H":{"ha":814,"x_min":83,"x_max":729,"o":"m 83 -17 l 83 876 l 224 876 l 224 499 l 335 499 l 335 625 l 476 625 l 476 499 l 588 499 l 588 876 l 729 876 l 729 -17 l 588 -17 l 588 361 l 224 361 l 224 -17 l 83 -17 z "},"Ħ":{"ha":814,"x_min":83,"x_max":729,"o":"m 83 -17 l 83 876 l 224 876 l 224 825 l 588 825 l 588 876 l 729 876 l 729 -17 l 588 -17 l 588 361 l 224 361 l 224 -17 l 83 -17 m 224 499 l 335 499 l 335 625 l 476 625 l 476 499 l 588 499 l 588 686 l 224 686 l 224 499 z "},"Ĥ":{"ha":814,"x_min":83,"x_max":729,"o":"m 83 -17 l 83 876 l 224 876 l 224 499 l 335 499 l 335 625 l 476 625 l 476 499 l 588 499 l 588 876 l 729 876 l 729 -17 l 588 -17 l 588 361 l 224 361 l 224 -17 l 83 -17 m 306 979 l 306 1056 l 368 1056 l 368 1119 l 446 1119 l 446 1056 l 508 1056 l 508 979 l 432 979 l 432 1043 l 382 1043 l 382 979 l 306 979 z "},"I":{"ha":561,"x_min":83,"x_max":476,"o":"m 83 -17 l 83 122 l 210 122 l 210 736 l 83 736 l 83 876 l 476 876 l 476 736 l 349 736 l 349 122 l 476 122 l 476 -17 l 83 -17 z "},"Ĳ":{"ha":1375,"x_min":83,"x_max":1290,"o":"m 83 -17 l 83 122 l 210 122 l 210 736 l 83 736 l 83 876 l 476 876 l 476 736 l 349 736 l 349 122 l 476 122 l 476 -17 l 83 -17 m 771 -17 l 771 108 l 644 108 l 644 375 l 785 375 l 785 122 l 1149 122 l 1149 736 l 771 736 l 771 876 l 1163 876 l 1163 750 l 1290 750 l 1290 108 l 1163 108 l 1163 -17 l 771 -17 z "},"Í":{"ha":561,"x_min":83,"x_max":476,"o":"m 83 -17 l 83 122 l 210 122 l 210 736 l 83 736 l 83 876 l 476 876 l 476 736 l 349 736 l 349 122 l 476 122 l 476 -17 l 83 -17 m 158 979 l 158 1054 l 221 1054 l 221 1117 l 285 1117 l 285 1181 l 361 1181 l 361 1104 l 299 1104 l 299 1040 l 235 1040 l 235 979 l 158 979 z "},"Ĭ":{"ha":561,"x_min":83,"x_max":476,"o":"m 83 -17 l 83 122 l 210 122 l 210 736 l 83 736 l 83 876 l 476 876 l 476 736 l 349 736 l 349 122 l 476 122 l 476 -17 l 83 -17 m 108 979 l 108 1119 l 185 1119 l 185 1056 l 371 1056 l 371 1119 l 446 1119 l 446 979 l 108 979 z "},"Î":{"ha":561,"x_min":83,"x_max":476,"o":"m 83 -17 l 83 122 l 210 122 l 210 736 l 83 736 l 83 876 l 476 876 l 476 736 l 349 736 l 349 122 l 476 122 l 476 -17 l 83 -17 m 179 979 l 179 1056 l 242 1056 l 242 1119 l 319 1119 l 319 1056 l 382 1056 l 382 979 l 306 979 l 306 1043 l 256 1043 l 256 979 l 179 979 z "},"Ï":{"ha":561,"x_min":68,"x_max":504,"o":"m 83 -17 l 83 122 l 210 122 l 210 736 l 83 736 l 83 876 l 476 876 l 476 736 l 349 736 l 349 122 l 476 122 l 476 -17 l 83 -17 m 68 979 l 68 1119 l 210 1119 l 210 979 l 68 979 m 364 979 l 364 1119 l 504 1119 l 504 979 l 364 979 z "},"İ":{"ha":561,"x_min":83,"x_max":476,"o":"m 83 -17 l 83 122 l 210 122 l 210 736 l 83 736 l 83 876 l 476 876 l 476 736 l 349 736 l 349 122 l 476 122 l 476 -17 l 83 -17 m 210 979 l 210 1119 l 351 1119 l 351 979 l 210 979 z "},"Ì":{"ha":561,"x_min":83,"x_max":476,"o":"m 83 -17 l 83 122 l 210 122 l 210 736 l 83 736 l 83 876 l 476 876 l 476 736 l 349 736 l 349 122 l 476 122 l 476 -17 l 83 -17 m 243 979 l 243 1040 l 179 1040 l 179 1104 l 117 1104 l 117 1181 l 193 1181 l 193 1117 l 257 1117 l 257 1054 l 319 1054 l 319 979 l 243 979 z "},"Ī":{"ha":561,"x_min":83,"x_max":481,"o":"m 83 -17 l 83 122 l 210 122 l 210 736 l 83 736 l 83 876 l 476 876 l 476 736 l 349 736 l 349 122 l 476 122 l 476 -17 l 83 -17 m 89 979 l 89 1090 l 481 1090 l 481 979 l 89 979 z "},"Į":{"ha":561,"x_min":83,"x_max":476,"o":"m 83 -17 l 83 122 l 210 122 l 210 736 l 83 736 l 83 876 l 476 876 l 476 736 l 349 736 l 349 122 l 476 122 l 476 -17 l 83 -17 m 175 -294 l 175 -232 l 111 -232 l 111 -156 l 175 -156 l 175 -93 l 238 -93 l 238 36 l 314 36 l 314 -107 l 251 -107 l 251 -169 l 189 -169 l 189 -218 l 364 -218 l 364 -156 l 440 -156 l 440 -232 l 378 -232 l 378 -294 l 175 -294 z "},"Ĩ":{"ha":561,"x_min":83,"x_max":476,"o":"m 83 -17 l 83 122 l 210 122 l 210 736 l 83 736 l 83 876 l 476 876 l 476 736 l 349 736 l 349 122 l 476 122 l 476 -17 l 83 -17 m 99 979 l 99 1122 l 310 1122 l 310 1058 l 361 1058 l 361 1122 l 442 1122 l 442 979 l 229 979 l 229 1044 l 178 1044 l 178 979 l 99 979 z "},"J":{"ha":814,"x_min":83,"x_max":729,"o":"m 210 -17 l 210 108 l 83 108 l 83 375 l 224 375 l 224 122 l 588 122 l 588 736 l 210 736 l 210 876 l 601 876 l 601 750 l 729 750 l 729 108 l 601 108 l 601 -17 l 210 -17 z "},"Ĵ":{"ha":814,"x_min":83,"x_max":729,"o":"m 210 -17 l 210 108 l 83 108 l 83 375 l 224 375 l 224 122 l 588 122 l 588 736 l 210 736 l 210 876 l 601 876 l 601 750 l 729 750 l 729 108 l 601 108 l 601 -17 l 210 -17 m 306 979 l 306 1056 l 368 1056 l 368 1119 l 446 1119 l 446 1056 l 508 1056 l 508 979 l 432 979 l 432 1043 l 382 1043 l 382 979 l 306 979 z "},"K":{"ha":814,"x_min":83,"x_max":729,"o":"m 83 -17 l 83 750 l 210 750 l 210 876 l 349 876 l 349 736 l 224 736 l 224 499 l 335 499 l 335 625 l 463 625 l 463 750 l 588 750 l 588 876 l 729 876 l 729 736 l 601 736 l 601 611 l 476 611 l 476 486 l 349 486 l 349 375 l 476 375 l 476 249 l 601 249 l 601 122 l 729 122 l 729 -17 l 588 -17 l 588 108 l 463 108 l 463 235 l 335 235 l 335 361 l 224 361 l 224 -17 l 83 -17 z "},"Ķ":{"ha":814,"x_min":83,"x_max":729,"o":"m 83 -17 l 83 750 l 210 750 l 210 876 l 349 876 l 349 736 l 224 736 l 224 499 l 335 499 l 335 625 l 463 625 l 463 750 l 588 750 l 588 876 l 729 876 l 729 736 l 601 736 l 601 611 l 476 611 l 476 486 l 349 486 l 349 375 l 476 375 l 476 249 l 601 249 l 601 122 l 729 122 l 729 -17 l 588 -17 l 588 108 l 463 108 l 463 235 l 335 235 l 335 361 l 224 361 l 224 -17 l 83 -17 m 389 -339 l 389 -261 l 453 -261 l 453 -214 l 326 -214 l 326 -74 l 467 -74 l 467 -200 l 529 -200 l 529 -275 l 467 -275 l 467 -339 l 389 -339 z "},"L":{"ha":814,"x_min":83,"x_max":729,"o":"m 210 -17 l 210 108 l 83 108 l 83 876 l 224 876 l 224 122 l 588 122 l 588 249 l 729 249 l 729 108 l 601 108 l 601 -17 l 210 -17 z "},"Ĺ":{"ha":814,"x_min":83,"x_max":729,"o":"m 210 -17 l 210 108 l 83 108 l 83 876 l 224 876 l 224 122 l 588 122 l 588 249 l 729 249 l 729 108 l 601 108 l 601 -17 l 210 -17 m 285 979 l 285 1054 l 347 1054 l 347 1117 l 411 1117 l 411 1181 l 488 1181 l 488 1104 l 425 1104 l 425 1040 l 361 1040 l 361 979 l 285 979 z "},"Ľ":{"ha":814,"x_min":83,"x_max":729,"o":"m 210 -17 l 210 108 l 83 108 l 83 876 l 224 876 l 224 122 l 588 122 l 588 249 l 729 249 l 729 108 l 601 108 l 601 -17 l 210 -17 m 519 611 l 519 689 l 583 689 l 583 736 l 457 736 l 457 876 l 597 876 l 597 750 l 660 750 l 660 675 l 597 675 l 597 611 l 519 611 z "},"Ļ":{"ha":814,"x_min":83,"x_max":729,"o":"m 210 -17 l 210 108 l 83 108 l 83 876 l 224 876 l 224 122 l 588 122 l 588 249 l 729 249 l 729 108 l 601 108 l 601 -17 l 210 -17 m 389 -339 l 389 -261 l 453 -261 l 453 -214 l 326 -214 l 326 -74 l 467 -74 l 467 -200 l 529 -200 l 529 -275 l 467 -275 l 467 -339 l 389 -339 z "},"Ŀ":{"ha":814,"x_min":83,"x_max":729,"o":"m 210 -17 l 210 108 l 83 108 l 83 876 l 224 876 l 224 122 l 588 122 l 588 249 l 729 249 l 729 108 l 601 108 l 601 -17 l 210 -17 m 338 578 l 338 718 l 478 718 l 478 578 l 338 578 z "},"Ł":{"ha":815,"x_min":-33,"x_max":732,"o":"m 213 -17 l 213 108 l 86 108 l 86 269 l 43 211 l -33 269 l 86 426 l 86 876 l 226 876 l 226 614 l 314 729 l 389 674 l 226 457 l 226 122 l 590 122 l 590 249 l 732 249 l 732 108 l 604 108 l 604 -17 l 213 -17 z "},"M":{"ha":1065,"x_min":83,"x_max":981,"o":"m 83 -17 l 83 750 l 210 750 l 210 876 l 349 876 l 349 750 l 476 750 l 476 499 l 588 499 l 588 750 l 715 750 l 715 876 l 856 876 l 856 750 l 981 750 l 981 -17 l 842 -17 l 842 736 l 729 736 l 729 486 l 601 486 l 601 108 l 463 108 l 463 486 l 335 486 l 335 736 l 224 736 l 224 -17 l 83 -17 z "},"N":{"ha":814,"x_min":83,"x_max":729,"o":"m 83 -17 l 83 876 l 224 876 l 224 750 l 349 750 l 349 625 l 476 625 l 476 249 l 588 249 l 588 876 l 729 876 l 729 -17 l 588 -17 l 588 108 l 463 108 l 463 235 l 335 235 l 335 611 l 224 611 l 224 -17 l 83 -17 z "},"Ń":{"ha":814,"x_min":83,"x_max":729,"o":"m 83 -17 l 83 876 l 224 876 l 224 750 l 349 750 l 349 625 l 476 625 l 476 249 l 588 249 l 588 876 l 729 876 l 729 -17 l 588 -17 l 588 108 l 463 108 l 463 235 l 335 235 l 335 611 l 224 611 l 224 -17 l 83 -17 m 285 979 l 285 1054 l 347 1054 l 347 1117 l 411 1117 l 411 1181 l 488 1181 l 488 1104 l 425 1104 l 425 1040 l 361 1040 l 361 979 l 285 979 z "},"Ň":{"ha":814,"x_min":83,"x_max":729,"o":"m 83 -17 l 83 876 l 224 876 l 224 750 l 349 750 l 349 625 l 476 625 l 476 249 l 588 249 l 588 876 l 729 876 l 729 -17 l 588 -17 l 588 108 l 463 108 l 463 235 l 335 235 l 335 611 l 224 611 l 224 -17 l 83 -17 m 368 979 l 368 1043 l 306 1043 l 306 1119 l 382 1119 l 382 1056 l 432 1056 l 432 1119 l 508 1119 l 508 1043 l 446 1043 l 446 979 l 368 979 z "},"Ņ":{"ha":814,"x_min":83,"x_max":729,"o":"m 83 -17 l 83 876 l 224 876 l 224 750 l 349 750 l 349 625 l 476 625 l 476 249 l 588 249 l 588 876 l 729 876 l 729 -17 l 588 -17 l 588 108 l 463 108 l 463 235 l 335 235 l 335 611 l 224 611 l 224 -17 l 83 -17 m 389 -339 l 389 -261 l 453 -261 l 453 -214 l 326 -214 l 326 -74 l 467 -74 l 467 -200 l 529 -200 l 529 -275 l 467 -275 l 467 -339 l 389 -339 z "},"Ñ":{"ha":814,"x_min":83,"x_max":729,"o":"m 83 -17 l 83 876 l 224 876 l 224 750 l 349 750 l 349 625 l 476 625 l 476 249 l 588 249 l 588 876 l 729 876 l 729 -17 l 588 -17 l 588 108 l 463 108 l 463 235 l 335 235 l 335 611 l 224 611 l 224 -17 l 83 -17 m 225 979 l 225 1122 l 436 1122 l 436 1058 l 488 1058 l 488 1122 l 568 1122 l 568 979 l 356 979 l 356 1044 l 304 1044 l 304 979 l 225 979 z "},"Ŋ":{"ha":814,"x_min":83,"x_max":729,"o":"m 335 -344 l 335 -218 l 208 -218 l 208 -78 l 349 -78 l 349 -204 l 588 -204 l 588 108 l 463 108 l 463 235 l 335 235 l 335 611 l 224 611 l 224 -17 l 83 -17 l 83 876 l 224 876 l 224 750 l 349 750 l 349 625 l 476 625 l 476 249 l 588 249 l 588 876 l 729 876 l 729 -218 l 601 -218 l 601 -344 l 335 -344 z "},"O":{"ha":814,"x_min":83,"x_max":729,"o":"m 210 -17 l 210 108 l 83 108 l 83 750 l 210 750 l 210 876 l 601 876 l 601 750 l 729 750 l 729 108 l 601 108 l 601 -17 l 210 -17 m 224 122 l 588 122 l 588 736 l 224 736 l 224 122 z "},"Ó":{"ha":814,"x_min":83,"x_max":729,"o":"m 210 -17 l 210 108 l 83 108 l 83 750 l 210 750 l 210 876 l 601 876 l 601 750 l 729 750 l 729 108 l 601 108 l 601 -17 l 210 -17 m 224 122 l 588 122 l 588 736 l 224 736 l 224 122 m 285 979 l 285 1054 l 347 1054 l 347 1117 l 411 1117 l 411 1181 l 488 1181 l 488 1104 l 425 1104 l 425 1040 l 361 1040 l 361 979 l 285 979 z "},"Ŏ":{"ha":814,"x_min":83,"x_max":729,"o":"m 210 -17 l 210 108 l 83 108 l 83 750 l 210 750 l 210 876 l 601 876 l 601 750 l 729 750 l 729 108 l 601 108 l 601 -17 l 210 -17 m 224 122 l 588 122 l 588 736 l 224 736 l 224 122 m 235 979 l 235 1119 l 311 1119 l 311 1056 l 497 1056 l 497 1119 l 572 1119 l 572 979 l 235 979 z "},"Ô":{"ha":814,"x_min":83,"x_max":729,"o":"m 210 -17 l 210 108 l 83 108 l 83 750 l 210 750 l 210 876 l 601 876 l 601 750 l 729 750 l 729 108 l 601 108 l 601 -17 l 210 -17 m 224 122 l 588 122 l 588 736 l 224 736 l 224 122 m 306 979 l 306 1056 l 368 1056 l 368 1119 l 446 1119 l 446 1056 l 508 1056 l 508 979 l 432 979 l 432 1043 l 382 1043 l 382 979 l 306 979 z "},"Ö":{"ha":814,"x_min":83,"x_max":729,"o":"m 210 -17 l 210 108 l 83 108 l 83 750 l 210 750 l 210 876 l 601 876 l 601 750 l 729 750 l 729 108 l 601 108 l 601 -17 l 210 -17 m 224 122 l 588 122 l 588 736 l 224 736 l 224 122 m 194 979 l 194 1119 l 336 1119 l 336 979 l 194 979 m 490 979 l 490 1119 l 631 1119 l 631 979 l 490 979 z "},"Ò":{"ha":814,"x_min":83,"x_max":729,"o":"m 210 -17 l 210 108 l 83 108 l 83 750 l 210 750 l 210 876 l 601 876 l 601 750 l 729 750 l 729 108 l 601 108 l 601 -17 l 210 -17 m 224 122 l 588 122 l 588 736 l 224 736 l 224 122 m 369 979 l 369 1040 l 306 1040 l 306 1104 l 243 1104 l 243 1181 l 319 1181 l 319 1117 l 383 1117 l 383 1054 l 446 1054 l 446 979 l 369 979 z "},"Ő":{"ha":814,"x_min":83,"x_max":729,"o":"m 210 -17 l 210 108 l 83 108 l 83 750 l 210 750 l 210 876 l 601 876 l 601 750 l 729 750 l 729 108 l 601 108 l 601 -17 l 210 -17 m 224 122 l 588 122 l 588 736 l 224 736 l 224 122 m 510 979 l 510 1040 l 446 1040 l 446 1104 l 383 1104 l 383 1181 l 460 1181 l 460 1117 l 524 1117 l 524 1054 l 586 1054 l 586 979 l 510 979 m 344 979 l 344 1040 l 281 1040 l 281 1104 l 218 1104 l 218 1181 l 294 1181 l 294 1117 l 358 1117 l 358 1054 l 421 1054 l 421 979 l 344 979 z "},"Ō":{"ha":814,"x_min":83,"x_max":729,"o":"m 210 -17 l 210 108 l 83 108 l 83 750 l 210 750 l 210 876 l 601 876 l 601 750 l 729 750 l 729 108 l 601 108 l 601 -17 l 210 -17 m 224 122 l 588 122 l 588 736 l 224 736 l 224 122 m 215 979 l 215 1090 l 607 1090 l 607 979 l 215 979 z "},"Ø":{"ha":865,"x_min":83,"x_max":781,"o":"m 83 -72 l 639 931 l 781 931 l 225 -72 l 83 -72 m 233 -17 l 233 108 l 107 108 l 107 750 l 233 750 l 233 876 l 625 876 l 625 750 l 753 750 l 753 108 l 625 108 l 625 -17 l 233 -17 m 247 122 l 611 122 l 611 736 l 247 736 l 247 122 z "},"Ǿ":{"ha":865,"x_min":83,"x_max":781,"o":"m 83 -72 l 639 931 l 781 931 l 225 -72 l 83 -72 m 233 -17 l 233 108 l 107 108 l 107 750 l 233 750 l 233 876 l 625 876 l 625 750 l 753 750 l 753 108 l 625 108 l 625 -17 l 233 -17 m 247 122 l 611 122 l 611 736 l 247 736 l 247 122 m 311 1075 l 311 1150 l 374 1150 l 374 1213 l 438 1213 l 438 1276 l 514 1276 l 514 1200 l 451 1200 l 451 1136 l 388 1136 l 388 1075 l 311 1075 z "},"Õ":{"ha":814,"x_min":83,"x_max":729,"o":"m 210 -17 l 210 108 l 83 108 l 83 750 l 210 750 l 210 876 l 601 876 l 601 750 l 729 750 l 729 108 l 601 108 l 601 -17 l 210 -17 m 224 122 l 588 122 l 588 736 l 224 736 l 224 122 m 225 979 l 225 1122 l 436 1122 l 436 1058 l 488 1058 l 488 1122 l 568 1122 l 568 979 l 356 979 l 356 1044 l 304 1044 l 304 979 l 225 979 z "},"Œ":{"ha":1318,"x_min":83,"x_max":1233,"o":"m 210 -17 l 210 108 l 83 108 l 83 750 l 210 750 l 210 876 l 601 876 l 601 750 l 715 750 l 715 876 l 1107 876 l 1107 750 l 1233 750 l 1233 611 l 1093 611 l 1093 736 l 729 736 l 729 499 l 981 499 l 981 361 l 729 361 l 729 122 l 1093 122 l 1093 249 l 1233 249 l 1233 108 l 1107 108 l 1107 -17 l 715 -17 l 715 108 l 601 108 l 601 -17 l 210 -17 m 224 122 l 588 122 l 588 736 l 224 736 l 224 122 z "},"P":{"ha":814,"x_min":83,"x_max":729,"o":"m 83 -17 l 83 750 l 210 750 l 210 876 l 601 876 l 601 750 l 729 750 l 729 361 l 601 361 l 601 235 l 224 235 l 224 -17 l 83 -17 m 224 375 l 588 375 l 588 736 l 224 736 l 224 375 z "},"Þ":{"ha":814,"x_min":83,"x_max":729,"o":"m 83 -17 l 83 876 l 224 876 l 224 735 l 601 735 l 601 608 l 729 608 l 729 218 l 601 218 l 601 93 l 224 93 l 224 -17 l 83 -17 m 224 232 l 588 232 l 588 596 l 224 596 l 224 232 z "},"Q":{"ha":814,"x_min":83,"x_max":729,"o":"m 463 -267 l 463 -143 l 335 -143 l 335 -17 l 210 -17 l 210 108 l 83 108 l 83 750 l 210 750 l 210 876 l 601 876 l 601 750 l 729 750 l 729 108 l 601 108 l 601 -17 l 476 -17 l 476 -129 l 601 -129 l 601 -267 l 463 -267 m 224 122 l 588 122 l 588 736 l 224 736 l 224 122 z "},"R":{"ha":814,"x_min":83,"x_max":729,"o":"m 83 -17 l 83 750 l 210 750 l 210 876 l 601 876 l 601 750 l 729 750 l 729 361 l 601 361 l 601 235 l 540 235 l 540 122 l 665 122 l 665 -17 l 526 -17 l 526 108 l 399 108 l 399 235 l 224 235 l 224 -17 l 83 -17 m 224 375 l 588 375 l 588 736 l 224 736 l 224 375 z "},"Ŕ":{"ha":814,"x_min":83,"x_max":729,"o":"m 83 -17 l 83 750 l 210 750 l 210 876 l 601 876 l 601 750 l 729 750 l 729 361 l 601 361 l 601 235 l 540 235 l 540 122 l 665 122 l 665 -17 l 526 -17 l 526 108 l 399 108 l 399 235 l 224 235 l 224 -17 l 83 -17 m 224 375 l 588 375 l 588 736 l 224 736 l 224 375 m 285 979 l 285 1054 l 347 1054 l 347 1117 l 411 1117 l 411 1181 l 488 1181 l 488 1104 l 425 1104 l 425 1040 l 361 1040 l 361 979 l 285 979 z "},"Ř":{"ha":814,"x_min":83,"x_max":729,"o":"m 83 -17 l 83 750 l 210 750 l 210 876 l 601 876 l 601 750 l 729 750 l 729 361 l 601 361 l 601 235 l 540 235 l 540 122 l 665 122 l 665 -17 l 526 -17 l 526 108 l 399 108 l 399 235 l 224 235 l 224 -17 l 83 -17 m 224 375 l 588 375 l 588 736 l 224 736 l 224 375 m 368 979 l 368 1043 l 306 1043 l 306 1119 l 382 1119 l 382 1056 l 432 1056 l 432 1119 l 508 1119 l 508 1043 l 446 1043 l 446 979 l 368 979 z "},"Ŗ":{"ha":814,"x_min":83,"x_max":729,"o":"m 83 -17 l 83 750 l 210 750 l 210 876 l 601 876 l 601 750 l 729 750 l 729 361 l 601 361 l 601 235 l 540 235 l 540 122 l 665 122 l 665 -17 l 526 -17 l 526 108 l 399 108 l 399 235 l 224 235 l 224 -17 l 83 -17 m 224 375 l 588 375 l 588 736 l 224 736 l 224 375 m 389 -339 l 389 -261 l 453 -261 l 453 -214 l 326 -214 l 326 -74 l 467 -74 l 467 -200 l 529 -200 l 529 -275 l 467 -275 l 467 -339 l 389 -339 z "},"S":{"ha":814,"x_min":83,"x_max":729,"o":"m 210 -17 l 210 108 l 83 108 l 83 249 l 224 249 l 224 122 l 588 122 l 588 361 l 210 361 l 210 486 l 83 486 l 83 750 l 210 750 l 210 876 l 601 876 l 601 750 l 729 750 l 729 611 l 588 611 l 588 736 l 224 736 l 224 499 l 601 499 l 601 375 l 729 375 l 729 108 l 601 108 l 601 -17 l 210 -17 z "},"Ś":{"ha":814,"x_min":83,"x_max":729,"o":"m 210 -17 l 210 108 l 83 108 l 83 249 l 224 249 l 224 122 l 588 122 l 588 361 l 210 361 l 210 486 l 83 486 l 83 750 l 210 750 l 210 876 l 601 876 l 601 750 l 729 750 l 729 611 l 588 611 l 588 736 l 224 736 l 224 499 l 601 499 l 601 375 l 729 375 l 729 108 l 601 108 l 601 -17 l 210 -17 m 285 979 l 285 1054 l 347 1054 l 347 1117 l 411 1117 l 411 1181 l 488 1181 l 488 1104 l 425 1104 l 425 1040 l 361 1040 l 361 979 l 285 979 z "},"Š":{"ha":814,"x_min":83,"x_max":729,"o":"m 210 -17 l 210 108 l 83 108 l 83 249 l 224 249 l 224 122 l 588 122 l 588 361 l 210 361 l 210 486 l 83 486 l 83 750 l 210 750 l 210 876 l 601 876 l 601 750 l 729 750 l 729 611 l 588 611 l 588 736 l 224 736 l 224 499 l 601 499 l 601 375 l 729 375 l 729 108 l 601 108 l 601 -17 l 210 -17 m 368 979 l 368 1043 l 306 1043 l 306 1119 l 382 1119 l 382 1056 l 432 1056 l 432 1119 l 508 1119 l 508 1043 l 446 1043 l 446 979 l 368 979 z "},"Ş":{"ha":814,"x_min":83,"x_max":729,"o":"m 210 -17 l 210 108 l 83 108 l 83 249 l 224 249 l 224 122 l 588 122 l 588 361 l 210 361 l 210 486 l 83 486 l 83 750 l 210 750 l 210 876 l 601 876 l 601 750 l 729 750 l 729 611 l 588 611 l 588 736 l 224 736 l 224 499 l 601 499 l 601 375 l 729 375 l 729 108 l 601 108 l 601 -17 l 210 -17 m 307 -278 l 307 -215 l 243 -215 l 243 -139 l 321 -139 l 321 -201 l 496 -201 l 496 -153 l 432 -153 l 432 -90 l 369 -90 l 369 51 l 446 51 l 446 -76 l 510 -76 l 510 -139 l 572 -139 l 572 -215 l 510 -215 l 510 -278 l 307 -278 z "},"Ŝ":{"ha":814,"x_min":83,"x_max":729,"o":"m 210 -17 l 210 108 l 83 108 l 83 249 l 224 249 l 224 122 l 588 122 l 588 361 l 210 361 l 210 486 l 83 486 l 83 750 l 210 750 l 210 876 l 601 876 l 601 750 l 729 750 l 729 611 l 588 611 l 588 736 l 224 736 l 224 499 l 601 499 l 601 375 l 729 375 l 729 108 l 601 108 l 601 -17 l 210 -17 m 306 979 l 306 1056 l 368 1056 l 368 1119 l 446 1119 l 446 1056 l 508 1056 l 508 979 l 432 979 l 432 1043 l 382 1043 l 382 979 l 306 979 z "},"Ș":{"ha":814,"x_min":83,"x_max":729,"o":"m 210 -17 l 210 108 l 83 108 l 83 249 l 224 249 l 224 122 l 588 122 l 588 361 l 210 361 l 210 486 l 83 486 l 83 750 l 210 750 l 210 876 l 601 876 l 601 750 l 729 750 l 729 611 l 588 611 l 588 736 l 224 736 l 224 499 l 601 499 l 601 375 l 729 375 l 729 108 l 601 108 l 601 -17 l 210 -17 m 389 -339 l 389 -261 l 453 -261 l 453 -214 l 326 -214 l 326 -74 l 467 -74 l 467 -200 l 529 -200 l 529 -275 l 467 -275 l 467 -339 l 389 -339 z "},"ẞ":{"ha":910,"x_min":83,"x_max":826,"o":"m 307 -17 l 307 122 l 685 122 l 685 361 l 446 361 l 446 499 l 685 499 l 685 736 l 168 736 l 168 876 l 699 876 l 699 750 l 826 750 l 826 486 l 699 486 l 699 375 l 826 375 l 826 108 l 699 108 l 699 -17 l 307 -17 m 83 -17 l 83 876 l 224 876 l 224 -17 l 83 -17 z "},"T":{"ha":814,"x_min":83,"x_max":729,"o":"m 335 -17 l 335 736 l 224 736 l 224 611 l 83 611 l 83 750 l 210 750 l 210 876 l 601 876 l 601 750 l 729 750 l 729 611 l 588 611 l 588 736 l 476 736 l 476 -17 l 335 -17 z "},"Ŧ":{"ha":814,"x_min":83,"x_max":729,"o":"m 335 -17 l 335 411 l 210 411 l 210 551 l 335 551 l 335 736 l 224 736 l 224 611 l 83 611 l 83 750 l 210 750 l 210 876 l 601 876 l 601 750 l 729 750 l 729 611 l 588 611 l 588 736 l 476 736 l 476 551 l 601 551 l 601 411 l 476 411 l 476 -17 l 335 -17 z "},"Ť":{"ha":814,"x_min":83,"x_max":729,"o":"m 335 -17 l 335 736 l 224 736 l 224 611 l 83 611 l 83 750 l 210 750 l 210 876 l 601 876 l 601 750 l 729 750 l 729 611 l 588 611 l 588 736 l 476 736 l 476 -17 l 335 -17 m 368 979 l 368 1043 l 306 1043 l 306 1119 l 382 1119 l 382 1056 l 432 1056 l 432 1119 l 508 1119 l 508 1043 l 446 1043 l 446 979 l 368 979 z "},"Ţ":{"ha":814,"x_min":83,"x_max":729,"o":"m 335 -17 l 335 736 l 224 736 l 224 611 l 83 611 l 83 750 l 210 750 l 210 876 l 601 876 l 601 750 l 729 750 l 729 611 l 588 611 l 588 736 l 476 736 l 476 -17 l 335 -17 m 307 -278 l 307 -215 l 243 -215 l 243 -139 l 321 -139 l 321 -201 l 496 -201 l 496 -153 l 432 -153 l 432 -90 l 369 -90 l 369 51 l 446 51 l 446 -76 l 510 -76 l 510 -139 l 572 -139 l 572 -215 l 510 -215 l 510 -278 l 307 -278 z "},"Ț":{"ha":814,"x_min":83,"x_max":729,"o":"m 335 -17 l 335 736 l 224 736 l 224 611 l 83 611 l 83 750 l 210 750 l 210 876 l 601 876 l 601 750 l 729 750 l 729 611 l 588 611 l 588 736 l 476 736 l 476 -17 l 335 -17 m 389 -339 l 389 -261 l 453 -261 l 453 -214 l 326 -214 l 326 -74 l 467 -74 l 467 -200 l 529 -200 l 529 -275 l 467 -275 l 467 -339 l 389 -339 z "},"U":{"ha":814,"x_min":83,"x_max":729,"o":"m 210 -17 l 210 108 l 83 108 l 83 876 l 224 876 l 224 122 l 588 122 l 588 876 l 729 876 l 729 108 l 601 108 l 601 -17 l 210 -17 z "},"Ú":{"ha":814,"x_min":83,"x_max":729,"o":"m 210 -17 l 210 108 l 83 108 l 83 876 l 224 876 l 224 122 l 588 122 l 588 876 l 729 876 l 729 108 l 601 108 l 601 -17 l 210 -17 m 285 979 l 285 1054 l 347 1054 l 347 1117 l 411 1117 l 411 1181 l 488 1181 l 488 1104 l 425 1104 l 425 1040 l 361 1040 l 361 979 l 285 979 z "},"Ŭ":{"ha":814,"x_min":83,"x_max":729,"o":"m 210 -17 l 210 108 l 83 108 l 83 876 l 224 876 l 224 122 l 588 122 l 588 876 l 729 876 l 729 108 l 601 108 l 601 -17 l 210 -17 m 235 979 l 235 1119 l 311 1119 l 311 1056 l 497 1056 l 497 1119 l 572 1119 l 572 979 l 235 979 z "},"Û":{"ha":814,"x_min":83,"x_max":729,"o":"m 210 -17 l 210 108 l 83 108 l 83 876 l 224 876 l 224 122 l 588 122 l 588 876 l 729 876 l 729 108 l 601 108 l 601 -17 l 210 -17 m 306 979 l 306 1056 l 368 1056 l 368 1119 l 446 1119 l 446 1056 l 508 1056 l 508 979 l 432 979 l 432 1043 l 382 1043 l 382 979 l 306 979 z "},"Ü":{"ha":814,"x_min":83,"x_max":729,"o":"m 210 -17 l 210 108 l 83 108 l 83 876 l 224 876 l 224 122 l 588 122 l 588 876 l 729 876 l 729 108 l 601 108 l 601 -17 l 210 -17 m 194 979 l 194 1119 l 336 1119 l 336 979 l 194 979 m 490 979 l 490 1119 l 631 1119 l 631 979 l 490 979 z "},"Ù":{"ha":814,"x_min":83,"x_max":729,"o":"m 210 -17 l 210 108 l 83 108 l 83 876 l 224 876 l 224 122 l 588 122 l 588 876 l 729 876 l 729 108 l 601 108 l 601 -17 l 210 -17 m 369 979 l 369 1040 l 306 1040 l 306 1104 l 243 1104 l 243 1181 l 319 1181 l 319 1117 l 383 1117 l 383 1054 l 446 1054 l 446 979 l 369 979 z "},"Ű":{"ha":814,"x_min":83,"x_max":729,"o":"m 210 -17 l 210 108 l 83 108 l 83 876 l 224 876 l 224 122 l 588 122 l 588 876 l 729 876 l 729 108 l 601 108 l 601 -17 l 210 -17 m 510 979 l 510 1040 l 446 1040 l 446 1104 l 383 1104 l 383 1181 l 460 1181 l 460 1117 l 524 1117 l 524 1054 l 586 1054 l 586 979 l 510 979 m 344 979 l 344 1040 l 281 1040 l 281 1104 l 218 1104 l 218 1181 l 294 1181 l 294 1117 l 358 1117 l 358 1054 l 421 1054 l 421 979 l 344 979 z "},"Ū":{"ha":814,"x_min":83,"x_max":729,"o":"m 210 -17 l 210 108 l 83 108 l 83 876 l 224 876 l 224 122 l 588 122 l 588 876 l 729 876 l 729 108 l 601 108 l 601 -17 l 210 -17 m 215 979 l 215 1090 l 607 1090 l 607 979 l 215 979 z "},"Ų":{"ha":814,"x_min":83,"x_max":729,"o":"m 210 -17 l 210 108 l 83 108 l 83 876 l 224 876 l 224 122 l 588 122 l 588 876 l 729 876 l 729 108 l 601 108 l 601 -17 l 210 -17 m 304 -294 l 304 -232 l 240 -232 l 240 -156 l 304 -156 l 304 -93 l 367 -93 l 367 36 l 443 36 l 443 -107 l 381 -107 l 381 -169 l 318 -169 l 318 -218 l 493 -218 l 493 -156 l 569 -156 l 569 -232 l 507 -232 l 507 -294 l 304 -294 z "},"Ů":{"ha":814,"x_min":83,"x_max":729,"o":"m 210 -17 l 210 108 l 83 108 l 83 876 l 224 876 l 224 122 l 588 122 l 588 876 l 729 876 l 729 108 l 601 108 l 601 -17 l 210 -17 m 335 979 l 335 1119 l 475 1119 l 475 979 l 335 979 m 381 1025 l 429 1025 l 429 1074 l 381 1074 l 381 1025 z "},"Ũ":{"ha":814,"x_min":83,"x_max":729,"o":"m 210 -17 l 210 108 l 83 108 l 83 876 l 224 876 l 224 122 l 588 122 l 588 876 l 729 876 l 729 108 l 601 108 l 601 -17 l 210 -17 m 225 979 l 225 1122 l 436 1122 l 436 1058 l 488 1058 l 488 1122 l 568 1122 l 568 979 l 356 979 l 356 1044 l 304 1044 l 304 979 l 225 979 z "},"V":{"ha":814,"x_min":83,"x_max":729,"o":"m 335 -17 l 335 108 l 210 108 l 210 361 l 83 361 l 83 876 l 224 876 l 224 375 l 349 375 l 349 122 l 463 122 l 463 375 l 588 375 l 588 876 l 729 876 l 729 361 l 601 361 l 601 108 l 476 108 l 476 -17 l 335 -17 z "},"W":{"ha":1065,"x_min":83,"x_max":981,"o":"m 210 -17 l 210 108 l 83 108 l 83 876 l 224 876 l 224 122 l 335 122 l 335 375 l 463 375 l 463 750 l 601 750 l 601 375 l 729 375 l 729 122 l 842 122 l 842 876 l 981 876 l 981 108 l 856 108 l 856 -17 l 715 -17 l 715 108 l 588 108 l 588 361 l 476 361 l 476 108 l 349 108 l 349 -17 l 210 -17 z "},"Ẃ":{"ha":1065,"x_min":83,"x_max":981,"o":"m 210 -17 l 210 108 l 83 108 l 83 876 l 224 876 l 224 122 l 335 122 l 335 375 l 463 375 l 463 750 l 601 750 l 601 375 l 729 375 l 729 122 l 842 122 l 842 876 l 981 876 l 981 108 l 856 108 l 856 -17 l 715 -17 l 715 108 l 588 108 l 588 361 l 476 361 l 476 108 l 349 108 l 349 -17 l 210 -17 m 411 979 l 411 1054 l 474 1054 l 474 1117 l 538 1117 l 538 1181 l 614 1181 l 614 1104 l 551 1104 l 551 1040 l 488 1040 l 488 979 l 411 979 z "},"Ŵ":{"ha":1065,"x_min":83,"x_max":981,"o":"m 210 -17 l 210 108 l 83 108 l 83 876 l 224 876 l 224 122 l 335 122 l 335 375 l 463 375 l 463 750 l 601 750 l 601 375 l 729 375 l 729 122 l 842 122 l 842 876 l 981 876 l 981 108 l 856 108 l 856 -17 l 715 -17 l 715 108 l 588 108 l 588 361 l 476 361 l 476 108 l 349 108 l 349 -17 l 210 -17 m 432 979 l 432 1056 l 494 1056 l 494 1119 l 572 1119 l 572 1056 l 635 1056 l 635 979 l 558 979 l 558 1043 l 508 1043 l 508 979 l 432 979 z "},"Ẅ":{"ha":1065,"x_min":83,"x_max":981,"o":"m 210 -17 l 210 108 l 83 108 l 83 876 l 224 876 l 224 122 l 335 122 l 335 375 l 463 375 l 463 750 l 601 750 l 601 375 l 729 375 l 729 122 l 842 122 l 842 876 l 981 876 l 981 108 l 856 108 l 856 -17 l 715 -17 l 715 108 l 588 108 l 588 361 l 476 361 l 476 108 l 349 108 l 349 -17 l 210 -17 m 321 979 l 321 1119 l 463 1119 l 463 979 l 321 979 m 617 979 l 617 1119 l 757 1119 l 757 979 l 617 979 z "},"Ẁ":{"ha":1065,"x_min":83,"x_max":981,"o":"m 210 -17 l 210 108 l 83 108 l 83 876 l 224 876 l 224 122 l 335 122 l 335 375 l 463 375 l 463 750 l 601 750 l 601 375 l 729 375 l 729 122 l 842 122 l 842 876 l 981 876 l 981 108 l 856 108 l 856 -17 l 715 -17 l 715 108 l 588 108 l 588 361 l 476 361 l 476 108 l 349 108 l 349 -17 l 210 -17 m 496 979 l 496 1040 l 432 1040 l 432 1104 l 369 1104 l 369 1181 l 446 1181 l 446 1117 l 510 1117 l 510 1054 l 572 1054 l 572 979 l 496 979 z "},"X":{"ha":814,"x_min":83,"x_max":729,"o":"m 83 -17 l 83 122 l 210 122 l 210 375 l 335 375 l 335 486 l 210 486 l 210 736 l 83 736 l 83 876 l 224 876 l 224 750 l 349 750 l 349 499 l 463 499 l 463 750 l 588 750 l 588 876 l 729 876 l 729 736 l 601 736 l 601 486 l 476 486 l 476 375 l 601 375 l 601 122 l 729 122 l 729 -17 l 588 -17 l 588 108 l 463 108 l 463 361 l 349 361 l 349 108 l 224 108 l 224 -17 l 83 -17 z "},"Y":{"ha":814,"x_min":83,"x_max":729,"o":"m 335 -17 l 335 486 l 210 486 l 210 611 l 83 611 l 83 876 l 224 876 l 224 625 l 349 625 l 349 499 l 463 499 l 463 625 l 588 625 l 588 876 l 729 876 l 729 611 l 601 611 l 601 486 l 476 486 l 476 -17 l 335 -17 z "},"Ý":{"ha":814,"x_min":83,"x_max":729,"o":"m 335 -17 l 335 486 l 210 486 l 210 611 l 83 611 l 83 876 l 224 876 l 224 625 l 349 625 l 349 499 l 463 499 l 463 625 l 588 625 l 588 876 l 729 876 l 729 611 l 601 611 l 601 486 l 476 486 l 476 -17 l 335 -17 m 285 979 l 285 1054 l 347 1054 l 347 1117 l 411 1117 l 411 1181 l 488 1181 l 488 1104 l 425 1104 l 425 1040 l 361 1040 l 361 979 l 285 979 z "},"Ŷ":{"ha":814,"x_min":83,"x_max":729,"o":"m 335 -17 l 335 486 l 210 486 l 210 611 l 83 611 l 83 876 l 224 876 l 224 625 l 349 625 l 349 499 l 463 499 l 463 625 l 588 625 l 588 876 l 729 876 l 729 611 l 601 611 l 601 486 l 476 486 l 476 -17 l 335 -17 m 306 979 l 306 1056 l 368 1056 l 368 1119 l 446 1119 l 446 1056 l 508 1056 l 508 979 l 432 979 l 432 1043 l 382 1043 l 382 979 l 306 979 z "},"Ÿ":{"ha":814,"x_min":83,"x_max":729,"o":"m 335 -17 l 335 486 l 210 486 l 210 611 l 83 611 l 83 876 l 224 876 l 224 625 l 349 625 l 349 499 l 463 499 l 463 625 l 588 625 l 588 876 l 729 876 l 729 611 l 601 611 l 601 486 l 476 486 l 476 -17 l 335 -17 m 194 979 l 194 1119 l 336 1119 l 336 979 l 194 979 m 490 979 l 490 1119 l 631 1119 l 631 979 l 490 979 z "},"Ỳ":{"ha":814,"x_min":83,"x_max":729,"o":"m 335 -17 l 335 486 l 210 486 l 210 611 l 83 611 l 83 876 l 224 876 l 224 625 l 349 625 l 349 499 l 463 499 l 463 625 l 588 625 l 588 876 l 729 876 l 729 611 l 601 611 l 601 486 l 476 486 l 476 -17 l 335 -17 m 369 979 l 369 1040 l 306 1040 l 306 1104 l 243 1104 l 243 1181 l 319 1181 l 319 1117 l 383 1117 l 383 1054 l 446 1054 l 446 979 l 369 979 z "},"Z":{"ha":814,"x_min":83,"x_max":729,"o":"m 210 -17 l 210 108 l 83 108 l 83 375 l 210 375 l 210 499 l 588 499 l 588 736 l 224 736 l 224 611 l 83 611 l 83 876 l 601 876 l 601 750 l 729 750 l 729 486 l 601 486 l 601 361 l 224 361 l 224 122 l 588 122 l 588 249 l 729 249 l 729 -17 l 210 -17 z "},"Ź":{"ha":814,"x_min":83,"x_max":729,"o":"m 210 -17 l 210 108 l 83 108 l 83 375 l 210 375 l 210 499 l 588 499 l 588 736 l 224 736 l 224 611 l 83 611 l 83 876 l 601 876 l 601 750 l 729 750 l 729 486 l 601 486 l 601 361 l 224 361 l 224 122 l 588 122 l 588 249 l 729 249 l 729 -17 l 210 -17 m 285 979 l 285 1054 l 347 1054 l 347 1117 l 411 1117 l 411 1181 l 488 1181 l 488 1104 l 425 1104 l 425 1040 l 361 1040 l 361 979 l 285 979 z "},"Ž":{"ha":814,"x_min":83,"x_max":729,"o":"m 210 -17 l 210 108 l 83 108 l 83 375 l 210 375 l 210 499 l 588 499 l 588 736 l 224 736 l 224 611 l 83 611 l 83 876 l 601 876 l 601 750 l 729 750 l 729 486 l 601 486 l 601 361 l 224 361 l 224 122 l 588 122 l 588 249 l 729 249 l 729 -17 l 210 -17 m 368 979 l 368 1043 l 306 1043 l 306 1119 l 382 1119 l 382 1056 l 432 1056 l 432 1119 l 508 1119 l 508 1043 l 446 1043 l 446 979 l 368 979 z "},"Ż":{"ha":814,"x_min":83,"x_max":729,"o":"m 210 -17 l 210 108 l 83 108 l 83 375 l 210 375 l 210 499 l 588 499 l 588 736 l 224 736 l 224 611 l 83 611 l 83 876 l 601 876 l 601 750 l 729 750 l 729 486 l 601 486 l 601 361 l 224 361 l 224 122 l 588 122 l 588 249 l 729 249 l 729 -17 l 210 -17 m 336 979 l 336 1119 l 478 1119 l 478 979 l 336 979 z "},"a":{"ha":940,"x_min":83,"x_max":856,"o":"m 210 -17 l 210 108 l 83 108 l 83 499 l 210 499 l 210 625 l 601 625 l 601 499 l 729 499 l 729 122 l 856 122 l 856 -17 l 715 -17 l 715 108 l 601 108 l 601 -17 l 210 -17 m 224 122 l 588 122 l 588 486 l 224 486 l 224 122 z "},"á":{"ha":940,"x_min":83,"x_max":856,"o":"m 210 -17 l 210 108 l 83 108 l 83 499 l 210 499 l 210 625 l 601 625 l 601 499 l 729 499 l 729 122 l 856 122 l 856 -17 l 715 -17 l 715 108 l 601 108 l 601 -17 l 210 -17 m 224 122 l 588 122 l 588 486 l 224 486 l 224 122 m 297 728 l 297 803 l 360 803 l 360 865 l 424 865 l 424 929 l 500 929 l 500 853 l 438 853 l 438 789 l 374 789 l 374 728 l 297 728 z "},"ă":{"ha":940,"x_min":83,"x_max":856,"o":"m 210 -17 l 210 108 l 83 108 l 83 499 l 210 499 l 210 625 l 601 625 l 601 499 l 729 499 l 729 122 l 856 122 l 856 -17 l 715 -17 l 715 108 l 601 108 l 601 -17 l 210 -17 m 224 122 l 588 122 l 588 486 l 224 486 l 224 122 m 247 728 l 247 868 l 324 868 l 324 804 l 510 804 l 510 868 l 585 868 l 585 728 l 247 728 z "},"â":{"ha":940,"x_min":83,"x_max":856,"o":"m 210 -17 l 210 108 l 83 108 l 83 499 l 210 499 l 210 625 l 601 625 l 601 499 l 729 499 l 729 122 l 856 122 l 856 -17 l 715 -17 l 715 108 l 601 108 l 601 -17 l 210 -17 m 224 122 l 588 122 l 588 486 l 224 486 l 224 122 m 318 728 l 318 804 l 381 804 l 381 868 l 458 868 l 458 804 l 521 804 l 521 728 l 444 728 l 444 792 l 394 792 l 394 728 l 318 728 z "},"ä":{"ha":940,"x_min":83,"x_max":856,"o":"m 210 -17 l 210 108 l 83 108 l 83 499 l 210 499 l 210 625 l 601 625 l 601 499 l 729 499 l 729 122 l 856 122 l 856 -17 l 715 -17 l 715 108 l 601 108 l 601 -17 l 210 -17 m 224 122 l 588 122 l 588 486 l 224 486 l 224 122 m 207 728 l 207 868 l 349 868 l 349 728 l 207 728 m 503 728 l 503 868 l 643 868 l 643 728 l 503 728 z "},"à":{"ha":940,"x_min":83,"x_max":856,"o":"m 210 -17 l 210 108 l 83 108 l 83 499 l 210 499 l 210 625 l 601 625 l 601 499 l 729 499 l 729 122 l 856 122 l 856 -17 l 715 -17 l 715 108 l 601 108 l 601 -17 l 210 -17 m 224 122 l 588 122 l 588 486 l 224 486 l 224 122 m 382 728 l 382 789 l 318 789 l 318 853 l 256 853 l 256 929 l 332 929 l 332 865 l 396 865 l 396 803 l 458 803 l 458 728 l 382 728 z "},"ā":{"ha":940,"x_min":83,"x_max":856,"o":"m 210 -17 l 210 108 l 83 108 l 83 499 l 210 499 l 210 625 l 601 625 l 601 499 l 729 499 l 729 122 l 856 122 l 856 -17 l 715 -17 l 715 108 l 601 108 l 601 -17 l 210 -17 m 224 122 l 588 122 l 588 486 l 224 486 l 224 122 m 228 728 l 228 839 l 619 839 l 619 728 l 228 728 z "},"ą":{"ha":940,"x_min":83,"x_max":951,"o":"m 210 -17 l 210 108 l 83 108 l 83 499 l 210 499 l 210 625 l 601 625 l 601 499 l 729 499 l 729 122 l 856 122 l 856 -17 l 715 -17 l 715 108 l 601 108 l 601 -17 l 210 -17 m 224 122 l 588 122 l 588 486 l 224 486 l 224 122 m 686 -278 l 686 -215 l 622 -215 l 622 -139 l 686 -139 l 686 -76 l 749 -76 l 749 53 l 825 53 l 825 -90 l 763 -90 l 763 -153 l 700 -153 l 700 -201 l 875 -201 l 875 -139 l 951 -139 l 951 -215 l 889 -215 l 889 -278 l 686 -278 z "},"å":{"ha":940,"x_min":83,"x_max":856,"o":"m 210 -17 l 210 108 l 83 108 l 83 499 l 210 499 l 210 625 l 601 625 l 601 499 l 729 499 l 729 122 l 856 122 l 856 -17 l 715 -17 l 715 108 l 601 108 l 601 -17 l 210 -17 m 224 122 l 588 122 l 588 486 l 224 486 l 224 122 m 347 728 l 347 868 l 488 868 l 488 728 l 347 728 m 393 774 l 442 774 l 442 822 l 393 822 l 393 774 z "},"ã":{"ha":940,"x_min":83,"x_max":856,"o":"m 210 -17 l 210 108 l 83 108 l 83 499 l 210 499 l 210 625 l 601 625 l 601 499 l 729 499 l 729 122 l 856 122 l 856 -17 l 715 -17 l 715 108 l 601 108 l 601 -17 l 210 -17 m 224 122 l 588 122 l 588 486 l 224 486 l 224 122 m 238 728 l 238 871 l 449 871 l 449 807 l 500 807 l 500 871 l 581 871 l 581 728 l 368 728 l 368 793 l 317 793 l 317 728 l 238 728 z "},"æ":{"ha":1572,"x_min":83,"x_max":1488,"o":"m 210 -17 l 210 108 l 83 108 l 83 499 l 210 499 l 210 625 l 601 625 l 601 499 l 729 499 l 729 122 l 842 122 l 842 499 l 969 499 l 969 625 l 1361 625 l 1361 499 l 1488 499 l 1488 361 l 1347 361 l 1347 486 l 982 486 l 982 375 l 1235 375 l 1235 235 l 982 235 l 982 122 l 1347 122 l 1347 250 l 1488 250 l 1488 110 l 1361 110 l 1361 -17 l 969 -17 l 969 108 l 856 108 l 856 -17 l 715 -17 l 715 108 l 601 108 l 601 -17 l 210 -17 m 224 122 l 588 122 l 588 486 l 224 486 l 224 122 z "},"ǽ":{"ha":1572,"x_min":83,"x_max":1488,"o":"m 210 -17 l 210 108 l 83 108 l 83 499 l 210 499 l 210 625 l 601 625 l 601 499 l 729 499 l 729 122 l 842 122 l 842 499 l 969 499 l 969 625 l 1361 625 l 1361 499 l 1488 499 l 1488 361 l 1347 361 l 1347 486 l 982 486 l 982 375 l 1235 375 l 1235 235 l 982 235 l 982 122 l 1347 122 l 1347 250 l 1488 250 l 1488 110 l 1361 110 l 1361 -17 l 969 -17 l 969 108 l 856 108 l 856 -17 l 715 -17 l 715 108 l 601 108 l 601 -17 l 210 -17 m 224 122 l 588 122 l 588 486 l 224 486 l 224 122 m 746 728 l 746 803 l 808 803 l 808 865 l 872 865 l 872 929 l 949 929 l 949 853 l 886 853 l 886 789 l 822 789 l 822 728 l 746 728 z "},"b":{"ha":814,"x_min":83,"x_max":729,"o":"m 210 -17 l 210 108 l 83 108 l 83 876 l 224 876 l 224 625 l 601 625 l 601 499 l 729 499 l 729 108 l 601 108 l 601 -17 l 210 -17 m 224 122 l 588 122 l 588 486 l 224 486 l 224 122 z "},"c":{"ha":814,"x_min":83,"x_max":729,"o":"m 210 -17 l 210 108 l 83 108 l 83 499 l 210 499 l 210 625 l 601 625 l 601 499 l 729 499 l 729 361 l 588 361 l 588 486 l 224 486 l 224 122 l 588 122 l 588 249 l 729 249 l 729 108 l 601 108 l 601 -17 l 210 -17 z "},"ć":{"ha":814,"x_min":83,"x_max":729,"o":"m 210 -17 l 210 108 l 83 108 l 83 499 l 210 499 l 210 625 l 601 625 l 601 499 l 729 499 l 729 361 l 588 361 l 588 486 l 224 486 l 224 122 l 588 122 l 588 249 l 729 249 l 729 108 l 601 108 l 601 -17 l 210 -17 m 285 728 l 285 803 l 347 803 l 347 865 l 411 865 l 411 929 l 488 929 l 488 853 l 425 853 l 425 789 l 361 789 l 361 728 l 285 728 z "},"č":{"ha":814,"x_min":83,"x_max":729,"o":"m 210 -17 l 210 108 l 83 108 l 83 499 l 210 499 l 210 625 l 601 625 l 601 499 l 729 499 l 729 361 l 588 361 l 588 486 l 224 486 l 224 122 l 588 122 l 588 249 l 729 249 l 729 108 l 601 108 l 601 -17 l 210 -17 m 368 728 l 368 792 l 306 792 l 306 868 l 382 868 l 382 804 l 432 804 l 432 868 l 508 868 l 508 792 l 446 792 l 446 728 l 368 728 z "},"ç":{"ha":814,"x_min":83,"x_max":729,"o":"m 210 -17 l 210 108 l 83 108 l 83 499 l 210 499 l 210 625 l 601 625 l 601 499 l 729 499 l 729 361 l 588 361 l 588 486 l 224 486 l 224 122 l 588 122 l 588 249 l 729 249 l 729 108 l 601 108 l 601 -17 l 210 -17 m 307 -278 l 307 -215 l 243 -215 l 243 -139 l 321 -139 l 321 -201 l 496 -201 l 496 -153 l 432 -153 l 432 -90 l 369 -90 l 369 51 l 446 51 l 446 -76 l 510 -76 l 510 -139 l 572 -139 l 572 -215 l 510 -215 l 510 -278 l 307 -278 z "},"ĉ":{"ha":814,"x_min":83,"x_max":729,"o":"m 210 -17 l 210 108 l 83 108 l 83 499 l 210 499 l 210 625 l 601 625 l 601 499 l 729 499 l 729 361 l 588 361 l 588 486 l 224 486 l 224 122 l 588 122 l 588 249 l 729 249 l 729 108 l 601 108 l 601 -17 l 210 -17 m 306 728 l 306 804 l 368 804 l 368 868 l 446 868 l 446 804 l 508 804 l 508 728 l 432 728 l 432 792 l 382 792 l 382 728 l 306 728 z "},"ċ":{"ha":814,"x_min":83,"x_max":729,"o":"m 210 -17 l 210 108 l 83 108 l 83 499 l 210 499 l 210 625 l 601 625 l 601 499 l 729 499 l 729 361 l 588 361 l 588 486 l 224 486 l 224 122 l 588 122 l 588 249 l 729 249 l 729 108 l 601 108 l 601 -17 l 210 -17 m 336 728 l 336 868 l 478 868 l 478 728 l 336 728 z "},"d":{"ha":814,"x_min":83,"x_max":729,"o":"m 210 -17 l 210 108 l 83 108 l 83 499 l 210 499 l 210 625 l 589 625 l 589 876 l 729 876 l 729 108 l 601 108 l 601 -17 l 210 -17 m 224 122 l 588 122 l 588 486 l 224 486 l 224 122 z "},"ď":{"ha":814,"x_min":83,"x_max":961,"o":"m 210 -17 l 210 108 l 83 108 l 83 499 l 210 499 l 210 625 l 589 625 l 589 876 l 729 876 l 729 108 l 601 108 l 601 -17 l 210 -17 m 224 122 l 588 122 l 588 486 l 224 486 l 224 122 m 821 613 l 821 690 l 885 690 l 885 738 l 758 738 l 758 878 l 899 878 l 899 751 l 961 751 l 961 676 l 899 676 l 899 613 l 821 613 z "},"đ":{"ha":813,"x_min":83,"x_max":767,"o":"m 210 -17 l 210 108 l 83 108 l 83 499 l 210 499 l 210 625 l 589 625 l 589 688 l 307 688 l 307 826 l 589 826 l 589 876 l 731 876 l 731 826 l 767 826 l 767 688 l 731 688 l 731 108 l 601 108 l 601 -17 l 210 -17 m 224 122 l 588 122 l 588 486 l 224 486 l 224 122 z "},"ð":{"ha":840,"x_min":83,"x_max":778,"o":"m 211 -17 l 211 108 l 83 108 l 83 375 l 211 375 l 211 499 l 589 499 l 589 736 l 225 736 l 225 611 l 83 611 l 83 750 l 211 750 l 211 876 l 603 876 l 603 750 l 729 750 l 729 108 l 603 108 l 603 -17 l 211 -17 m 225 122 l 589 122 l 589 361 l 225 361 l 225 122 m 360 583 l 638 972 l 778 972 l 500 583 l 360 583 z "},"e":{"ha":814,"x_min":83,"x_max":729,"o":"m 210 -17 l 210 108 l 83 108 l 83 499 l 210 499 l 210 625 l 601 625 l 601 499 l 729 499 l 729 361 l 588 361 l 588 486 l 224 486 l 224 375 l 476 375 l 476 235 l 224 235 l 224 122 l 588 122 l 588 250 l 729 250 l 729 110 l 601 110 l 601 -17 l 210 -17 z "},"é":{"ha":814,"x_min":83,"x_max":729,"o":"m 210 -17 l 210 108 l 83 108 l 83 499 l 210 499 l 210 625 l 601 625 l 601 499 l 729 499 l 729 361 l 588 361 l 588 486 l 224 486 l 224 375 l 476 375 l 476 235 l 224 235 l 224 122 l 588 122 l 588 250 l 729 250 l 729 110 l 601 110 l 601 -17 l 210 -17 m 285 728 l 285 803 l 347 803 l 347 865 l 411 865 l 411 929 l 488 929 l 488 853 l 425 853 l 425 789 l 361 789 l 361 728 l 285 728 z "},"ĕ":{"ha":814,"x_min":83,"x_max":729,"o":"m 210 -17 l 210 108 l 83 108 l 83 499 l 210 499 l 210 625 l 601 625 l 601 499 l 729 499 l 729 361 l 588 361 l 588 486 l 224 486 l 224 375 l 476 375 l 476 235 l 224 235 l 224 122 l 588 122 l 588 250 l 729 250 l 729 110 l 601 110 l 601 -17 l 210 -17 m 235 728 l 235 868 l 311 868 l 311 804 l 497 804 l 497 868 l 572 868 l 572 728 l 235 728 z "},"ě":{"ha":814,"x_min":83,"x_max":729,"o":"m 210 -17 l 210 108 l 83 108 l 83 499 l 210 499 l 210 625 l 601 625 l 601 499 l 729 499 l 729 361 l 588 361 l 588 486 l 224 486 l 224 375 l 476 375 l 476 235 l 224 235 l 224 122 l 588 122 l 588 250 l 729 250 l 729 110 l 601 110 l 601 -17 l 210 -17 m 368 728 l 368 792 l 306 792 l 306 868 l 382 868 l 382 804 l 432 804 l 432 868 l 508 868 l 508 792 l 446 792 l 446 728 l 368 728 z "},"ê":{"ha":814,"x_min":83,"x_max":729,"o":"m 210 -17 l 210 108 l 83 108 l 83 499 l 210 499 l 210 625 l 601 625 l 601 499 l 729 499 l 729 361 l 588 361 l 588 486 l 224 486 l 224 375 l 476 375 l 476 235 l 224 235 l 224 122 l 588 122 l 588 250 l 729 250 l 729 110 l 601 110 l 601 -17 l 210 -17 m 306 728 l 306 804 l 368 804 l 368 868 l 446 868 l 446 804 l 508 804 l 508 728 l 432 728 l 432 792 l 382 792 l 382 728 l 306 728 z "},"ë":{"ha":814,"x_min":83,"x_max":729,"o":"m 210 -17 l 210 108 l 83 108 l 83 499 l 210 499 l 210 625 l 601 625 l 601 499 l 729 499 l 729 361 l 588 361 l 588 486 l 224 486 l 224 375 l 476 375 l 476 235 l 224 235 l 224 122 l 588 122 l 588 250 l 729 250 l 729 110 l 601 110 l 601 -17 l 210 -17 m 194 728 l 194 868 l 336 868 l 336 728 l 194 728 m 490 728 l 490 868 l 631 868 l 631 728 l 490 728 z "},"ė":{"ha":814,"x_min":83,"x_max":729,"o":"m 210 -17 l 210 108 l 83 108 l 83 499 l 210 499 l 210 625 l 601 625 l 601 499 l 729 499 l 729 361 l 588 361 l 588 486 l 224 486 l 224 375 l 476 375 l 476 235 l 224 235 l 224 122 l 588 122 l 588 250 l 729 250 l 729 110 l 601 110 l 601 -17 l 210 -17 m 336 728 l 336 868 l 478 868 l 478 728 l 336 728 z "},"è":{"ha":814,"x_min":83,"x_max":729,"o":"m 210 -17 l 210 108 l 83 108 l 83 499 l 210 499 l 210 625 l 601 625 l 601 499 l 729 499 l 729 361 l 588 361 l 588 486 l 224 486 l 224 375 l 476 375 l 476 235 l 224 235 l 224 122 l 588 122 l 588 250 l 729 250 l 729 110 l 601 110 l 601 -17 l 210 -17 m 369 728 l 369 789 l 306 789 l 306 853 l 243 853 l 243 929 l 319 929 l 319 865 l 383 865 l 383 803 l 446 803 l 446 728 l 369 728 z "},"ē":{"ha":814,"x_min":83,"x_max":729,"o":"m 210 -17 l 210 108 l 83 108 l 83 499 l 210 499 l 210 625 l 601 625 l 601 499 l 729 499 l 729 361 l 588 361 l 588 486 l 224 486 l 224 375 l 476 375 l 476 235 l 224 235 l 224 122 l 588 122 l 588 250 l 729 250 l 729 110 l 601 110 l 601 -17 l 210 -17 m 215 728 l 215 839 l 607 839 l 607 728 l 215 728 z "},"ę":{"ha":814,"x_min":83,"x_max":729,"o":"m 210 -17 l 210 108 l 83 108 l 83 499 l 210 499 l 210 625 l 601 625 l 601 499 l 729 499 l 729 361 l 588 361 l 588 486 l 224 486 l 224 375 l 476 375 l 476 235 l 224 235 l 224 122 l 588 122 l 588 250 l 729 250 l 729 110 l 601 110 l 601 -17 l 210 -17 m 308 -278 l 308 -215 l 244 -215 l 244 -139 l 308 -139 l 308 -76 l 371 -76 l 371 53 l 447 53 l 447 -90 l 385 -90 l 385 -153 l 322 -153 l 322 -201 l 497 -201 l 497 -139 l 574 -139 l 574 -215 l 511 -215 l 511 -278 l 308 -278 z "},"f":{"ha":814,"x_min":83,"x_max":729,"o":"m 83 -17 l 83 750 l 210 750 l 210 876 l 601 876 l 601 750 l 729 750 l 729 611 l 588 611 l 588 736 l 224 736 l 224 499 l 476 499 l 476 361 l 224 361 l 224 -17 l 83 -17 z "},"g":{"ha":814,"x_min":83,"x_max":729,"o":"m 210 -268 l 210 -143 l 83 -143 l 83 -4 l 224 -4 l 224 -129 l 589 -129 l 589 108 l 210 108 l 210 235 l 83 235 l 83 499 l 210 499 l 210 625 l 603 625 l 603 499 l 729 499 l 729 -143 l 603 -143 l 603 -268 l 210 -268 m 224 249 l 589 249 l 589 486 l 224 486 l 224 249 z "},"ğ":{"ha":814,"x_min":83,"x_max":729,"o":"m 210 -268 l 210 -143 l 83 -143 l 83 -4 l 224 -4 l 224 -129 l 589 -129 l 589 108 l 210 108 l 210 235 l 83 235 l 83 499 l 210 499 l 210 625 l 603 625 l 603 499 l 729 499 l 729 -143 l 603 -143 l 603 -268 l 210 -268 m 224 249 l 589 249 l 589 486 l 224 486 l 224 249 m 235 728 l 235 868 l 311 868 l 311 804 l 497 804 l 497 868 l 572 868 l 572 728 l 235 728 z "},"ĝ":{"ha":814,"x_min":83,"x_max":729,"o":"m 210 -268 l 210 -143 l 83 -143 l 83 -4 l 224 -4 l 224 -129 l 589 -129 l 589 108 l 210 108 l 210 235 l 83 235 l 83 499 l 210 499 l 210 625 l 603 625 l 603 499 l 729 499 l 729 -143 l 603 -143 l 603 -268 l 210 -268 m 224 249 l 589 249 l 589 486 l 224 486 l 224 249 m 306 728 l 306 804 l 368 804 l 368 868 l 446 868 l 446 804 l 508 804 l 508 728 l 432 728 l 432 792 l 382 792 l 382 728 l 306 728 z "},"ģ":{"ha":814,"x_min":83,"x_max":729,"o":"m 210 -268 l 210 -143 l 83 -143 l 83 -4 l 224 -4 l 224 -129 l 589 -129 l 589 108 l 210 108 l 210 235 l 83 235 l 83 499 l 210 499 l 210 625 l 603 625 l 603 499 l 729 499 l 729 -143 l 603 -143 l 603 -268 l 210 -268 m 224 249 l 589 249 l 589 486 l 224 486 l 224 249 m 368 728 l 368 854 l 306 854 l 306 929 l 368 929 l 368 993 l 446 993 l 446 915 l 382 915 l 382 868 l 508 868 l 508 728 l 368 728 z "},"ġ":{"ha":814,"x_min":83,"x_max":729,"o":"m 210 -268 l 210 -143 l 83 -143 l 83 -4 l 224 -4 l 224 -129 l 589 -129 l 589 108 l 210 108 l 210 235 l 83 235 l 83 499 l 210 499 l 210 625 l 603 625 l 603 499 l 729 499 l 729 -143 l 603 -143 l 603 -268 l 210 -268 m 224 249 l 589 249 l 589 486 l 224 486 l 224 249 m 336 728 l 336 868 l 478 868 l 478 728 l 336 728 z "},"h":{"ha":814,"x_min":83,"x_max":729,"o":"m 83 -17 l 83 876 l 224 876 l 224 499 l 335 499 l 335 625 l 601 625 l 601 499 l 729 499 l 729 -17 l 588 -17 l 588 486 l 349 486 l 349 361 l 224 361 l 224 -17 l 83 -17 z "},"ħ":{"ha":814,"x_min":42,"x_max":729,"o":"m 83 -17 l 83 692 l 42 692 l 42 831 l 83 831 l 83 876 l 224 876 l 224 831 l 364 831 l 364 692 l 224 692 l 224 499 l 335 499 l 335 625 l 601 625 l 601 499 l 729 499 l 729 -17 l 588 -17 l 588 486 l 349 486 l 349 361 l 224 361 l 224 -17 l 83 -17 z "},"ĥ":{"ha":814,"x_min":83,"x_max":729,"o":"m 83 -17 l 83 876 l 224 876 l 224 499 l 335 499 l 335 625 l 601 625 l 601 499 l 729 499 l 729 -17 l 588 -17 l 588 486 l 349 486 l 349 361 l 224 361 l 224 -17 l 83 -17 m 306 979 l 306 1056 l 368 1056 l 368 1119 l 446 1119 l 446 1056 l 508 1056 l 508 979 l 432 979 l 432 1043 l 382 1043 l 382 979 l 306 979 z "},"i":{"ha":308,"x_min":83,"x_max":224,"o":"m 83 -17 l 83 625 l 224 625 l 224 -17 l 83 -17 m 83 736 l 83 876 l 224 876 l 224 736 l 83 736 z "},"ı":{"ha":308,"x_min":83,"x_max":224,"o":"m 83 -17 l 83 625 l 224 625 l 224 -17 l 83 -17 z "},"í":{"ha":308,"x_min":32,"x_max":235,"o":"m 83 -17 l 83 625 l 224 625 l 224 -17 l 83 -17 m 32 728 l 32 803 l 94 803 l 94 865 l 158 865 l 158 929 l 235 929 l 235 853 l 172 853 l 172 789 l 108 789 l 108 728 l 32 728 z "},"ĭ":{"ha":308,"x_min":-18,"x_max":321,"o":"m 83 -17 l 83 625 l 224 625 l 224 -17 l 83 -17 m -18 750 l -18 890 l 58 890 l 58 826 l 244 826 l 244 890 l 321 890 l 321 750 l -18 750 z "},"î":{"ha":308,"x_min":53,"x_max":256,"o":"m 83 -17 l 83 625 l 224 625 l 224 -17 l 83 -17 m 53 728 l 53 804 l 115 804 l 115 868 l 193 868 l 193 804 l 256 804 l 256 728 l 179 728 l 179 792 l 129 792 l 129 728 l 53 728 z "},"ï":{"ha":308,"x_min":-22,"x_max":331,"o":"m 83 -17 l 83 625 l 224 625 l 224 -17 l 83 -17 m -22 728 l -22 868 l 119 868 l 119 728 l -22 728 m 190 728 l 190 868 l 331 868 l 331 728 l 190 728 z "},"ì":{"ha":308,"x_min":-10,"x_max":224,"o":"m 83 -17 l 83 625 l 224 625 l 224 -17 l 83 -17 m 117 728 l 117 789 l 53 789 l 53 853 l -10 853 l -10 929 l 67 929 l 67 865 l 131 865 l 131 803 l 193 803 l 193 728 l 117 728 z "},"ī":{"ha":308,"x_min":-37,"x_max":354,"o":"m 83 -17 l 83 625 l 224 625 l 224 -17 l 83 -17 m -37 728 l -37 839 l 354 839 l 354 728 l -37 728 z "},"į":{"ha":308,"x_min":-11,"x_max":318,"o":"m 83 -17 l 83 625 l 224 625 l 224 -17 l 83 -17 m 83 728 l 83 868 l 225 868 l 225 728 l 83 728 m 53 -294 l 53 -232 l -11 -232 l -11 -156 l 53 -156 l 53 -93 l 115 -93 l 115 36 l 192 36 l 192 -107 l 129 -107 l 129 -169 l 67 -169 l 67 -218 l 242 -218 l 242 -156 l 318 -156 l 318 -232 l 256 -232 l 256 -294 l 53 -294 z "},"ĩ":{"ha":308,"x_min":-28,"x_max":315,"o":"m 83 -17 l 83 625 l 224 625 l 224 -17 l 83 -17 m -28 728 l -28 871 l 183 871 l 183 807 l 235 807 l 235 871 l 315 871 l 315 728 l 103 728 l 103 793 l 51 793 l 51 728 l -28 728 z "},"ĳ":{"ha":968,"x_min":83,"x_max":883,"o":"m 490 -18 l 490 108 l 364 108 l 364 249 l 504 249 l 504 122 l 743 122 l 743 625 l 883 625 l 883 108 l 757 108 l 757 -18 l 490 -18 m 83 -17 l 83 625 l 224 625 l 224 -17 l 83 -17 z "},"j":{"ha":688,"x_min":83,"x_max":603,"o":"m 210 -18 l 210 108 l 83 108 l 83 249 l 224 249 l 224 122 l 463 122 l 463 625 l 603 625 l 603 108 l 476 108 l 476 -18 l 210 -18 z "},"ȷ":{"ha":688,"x_min":83,"x_max":603,"o":"m 210 -18 l 210 108 l 83 108 l 83 249 l 224 249 l 224 122 l 463 122 l 463 625 l 603 625 l 603 108 l 476 108 l 476 -18 l 210 -18 z "},"ĵ":{"ha":688,"x_min":83,"x_max":631,"o":"m 210 -18 l 210 108 l 83 108 l 83 249 l 224 249 l 224 122 l 463 122 l 463 625 l 603 625 l 603 108 l 476 108 l 476 -18 l 210 -18 m 428 728 l 428 804 l 490 804 l 490 868 l 568 868 l 568 804 l 631 804 l 631 728 l 554 728 l 554 792 l 504 792 l 504 728 l 428 728 z "},"k":{"ha":814,"x_min":83,"x_max":729,"o":"m 83 -17 l 83 876 l 224 876 l 224 375 l 335 375 l 335 499 l 588 499 l 588 625 l 729 625 l 729 486 l 601 486 l 601 361 l 349 361 l 349 249 l 601 249 l 601 122 l 729 122 l 729 -17 l 588 -17 l 588 108 l 335 108 l 335 235 l 224 235 l 224 -17 l 83 -17 z "},"ķ":{"ha":814,"x_min":83,"x_max":729,"o":"m 83 -17 l 83 876 l 224 876 l 224 375 l 335 375 l 335 499 l 588 499 l 588 625 l 729 625 l 729 486 l 601 486 l 601 361 l 349 361 l 349 249 l 601 249 l 601 122 l 729 122 l 729 -17 l 588 -17 l 588 108 l 335 108 l 335 235 l 224 235 l 224 -17 l 83 -17 m 389 -339 l 389 -261 l 453 -261 l 453 -214 l 326 -214 l 326 -74 l 467 -74 l 467 -200 l 529 -200 l 529 -275 l 467 -275 l 467 -339 l 389 -339 z "},"l":{"ha":308,"x_min":83,"x_max":224,"o":"m 83 -17 l 83 876 l 224 876 l 224 -17 l 83 -17 z "},"ĺ":{"ha":308,"x_min":32,"x_max":235,"o":"m 83 -17 l 83 876 l 224 876 l 224 -17 l 83 -17 m 32 979 l 32 1054 l 94 1054 l 94 1117 l 158 1117 l 158 1181 l 235 1181 l 235 1104 l 172 1104 l 172 1040 l 108 1040 l 108 979 l 32 979 z "},"ľ":{"ha":308,"x_min":83,"x_max":456,"o":"m 83 -17 l 83 876 l 224 876 l 224 -17 l 83 -17 m 315 611 l 315 689 l 379 689 l 379 736 l 253 736 l 253 876 l 393 876 l 393 750 l 456 750 l 456 675 l 393 675 l 393 611 l 315 611 z "},"ļ":{"ha":308,"x_min":74,"x_max":276,"o":"m 83 -17 l 83 876 l 224 876 l 224 -17 l 83 -17 m 136 -339 l 136 -261 l 200 -261 l 200 -214 l 74 -214 l 74 -74 l 214 -74 l 214 -200 l 276 -200 l 276 -275 l 214 -275 l 214 -339 l 136 -339 z "},"ŀ":{"ha":308,"x_min":83,"x_max":224,"o":"m 83 -17 l 83 876 l 224 876 l 224 -17 l 83 -17 m 83 0 l 83 140 l 224 140 l 224 0 l 83 0 z "},"ł":{"ha":313,"x_min":-29,"x_max":342,"o":"m 86 -17 l 86 222 l 53 167 l -29 214 l 86 404 l 86 876 l 226 876 l 226 640 l 261 700 l 342 651 l 226 458 l 226 -17 l 86 -17 z "},"m":{"ha":1065,"x_min":83,"x_max":981,"o":"m 83 -17 l 83 625 l 476 625 l 476 499 l 588 499 l 588 625 l 856 625 l 856 499 l 981 499 l 981 -17 l 842 -17 l 842 486 l 601 486 l 601 -17 l 463 -17 l 463 486 l 224 486 l 224 -17 l 83 -17 z "},"n":{"ha":814,"x_min":83,"x_max":729,"o":"m 83 -17 l 83 625 l 601 625 l 601 499 l 729 499 l 729 -17 l 588 -17 l 588 486 l 224 486 l 224 -17 l 83 -17 z "},"ń":{"ha":814,"x_min":83,"x_max":729,"o":"m 83 -17 l 83 625 l 601 625 l 601 499 l 729 499 l 729 -17 l 588 -17 l 588 486 l 224 486 l 224 -17 l 83 -17 m 285 728 l 285 803 l 347 803 l 347 865 l 411 865 l 411 929 l 488 929 l 488 853 l 425 853 l 425 789 l 361 789 l 361 728 l 285 728 z "},"ŉ":{"ha":935,"x_min":14,"x_max":850,"o":"m 204 -17 l 204 625 l 722 625 l 722 499 l 850 499 l 850 -17 l 708 -17 l 708 486 l 344 486 l 344 -17 l 204 -17 m 76 611 l 76 689 l 140 689 l 140 736 l 14 736 l 14 876 l 154 876 l 154 750 l 217 750 l 217 675 l 154 675 l 154 611 l 76 611 z "},"ň":{"ha":814,"x_min":83,"x_max":729,"o":"m 83 -17 l 83 625 l 601 625 l 601 499 l 729 499 l 729 -17 l 588 -17 l 588 486 l 224 486 l 224 -17 l 83 -17 m 368 728 l 368 792 l 306 792 l 306 868 l 382 868 l 382 804 l 432 804 l 432 868 l 508 868 l 508 792 l 446 792 l 446 728 l 368 728 z "},"ņ":{"ha":814,"x_min":83,"x_max":729,"o":"m 83 -17 l 83 625 l 601 625 l 601 499 l 729 499 l 729 -17 l 588 -17 l 588 486 l 224 486 l 224 -17 l 83 -17 m 389 -339 l 389 -261 l 453 -261 l 453 -214 l 326 -214 l 326 -74 l 467 -74 l 467 -200 l 529 -200 l 529 -275 l 467 -275 l 467 -339 l 389 -339 z "},"ñ":{"ha":814,"x_min":83,"x_max":729,"o":"m 83 -17 l 83 625 l 601 625 l 601 499 l 729 499 l 729 -17 l 588 -17 l 588 486 l 224 486 l 224 -17 l 83 -17 m 225 728 l 225 871 l 436 871 l 436 807 l 488 807 l 488 871 l 568 871 l 568 728 l 356 728 l 356 793 l 304 793 l 304 728 l 225 728 z "},"ŋ":{"ha":814,"x_min":83,"x_max":729,"o":"m 335 -343 l 335 -217 l 208 -217 l 208 -76 l 349 -76 l 349 -203 l 588 -203 l 588 486 l 224 486 l 224 -17 l 83 -17 l 83 625 l 601 625 l 601 499 l 729 499 l 729 -217 l 601 -217 l 601 -343 l 335 -343 z "},"o":{"ha":814,"x_min":83,"x_max":729,"o":"m 210 -17 l 210 108 l 83 108 l 83 499 l 210 499 l 210 625 l 601 625 l 601 499 l 729 499 l 729 108 l 601 108 l 601 -17 l 210 -17 m 224 122 l 588 122 l 588 486 l 224 486 l 224 122 z "},"ó":{"ha":814,"x_min":83,"x_max":729,"o":"m 210 -17 l 210 108 l 83 108 l 83 499 l 210 499 l 210 625 l 601 625 l 601 499 l 729 499 l 729 108 l 601 108 l 601 -17 l 210 -17 m 224 122 l 588 122 l 588 486 l 224 486 l 224 122 m 285 728 l 285 803 l 347 803 l 347 865 l 411 865 l 411 929 l 488 929 l 488 853 l 425 853 l 425 789 l 361 789 l 361 728 l 285 728 z "},"ŏ":{"ha":814,"x_min":83,"x_max":729,"o":"m 210 -17 l 210 108 l 83 108 l 83 499 l 210 499 l 210 625 l 601 625 l 601 499 l 729 499 l 729 108 l 601 108 l 601 -17 l 210 -17 m 224 122 l 588 122 l 588 486 l 224 486 l 224 122 m 235 728 l 235 868 l 311 868 l 311 804 l 497 804 l 497 868 l 572 868 l 572 728 l 235 728 z "},"ô":{"ha":814,"x_min":83,"x_max":729,"o":"m 210 -17 l 210 108 l 83 108 l 83 499 l 210 499 l 210 625 l 601 625 l 601 499 l 729 499 l 729 108 l 601 108 l 601 -17 l 210 -17 m 224 122 l 588 122 l 588 486 l 224 486 l 224 122 m 306 728 l 306 804 l 368 804 l 368 868 l 446 868 l 446 804 l 508 804 l 508 728 l 432 728 l 432 792 l 382 792 l 382 728 l 306 728 z "},"ö":{"ha":814,"x_min":83,"x_max":729,"o":"m 210 -17 l 210 108 l 83 108 l 83 499 l 210 499 l 210 625 l 601 625 l 601 499 l 729 499 l 729 108 l 601 108 l 601 -17 l 210 -17 m 224 122 l 588 122 l 588 486 l 224 486 l 224 122 m 194 728 l 194 868 l 336 868 l 336 728 l 194 728 m 490 728 l 490 868 l 631 868 l 631 728 l 490 728 z "},"ò":{"ha":814,"x_min":83,"x_max":729,"o":"m 210 -17 l 210 108 l 83 108 l 83 499 l 210 499 l 210 625 l 601 625 l 601 499 l 729 499 l 729 108 l 601 108 l 601 -17 l 210 -17 m 224 122 l 588 122 l 588 486 l 224 486 l 224 122 m 369 728 l 369 789 l 306 789 l 306 853 l 243 853 l 243 929 l 319 929 l 319 865 l 383 865 l 383 803 l 446 803 l 446 728 l 369 728 z "},"ő":{"ha":814,"x_min":83,"x_max":729,"o":"m 210 -17 l 210 108 l 83 108 l 83 499 l 210 499 l 210 625 l 601 625 l 601 499 l 729 499 l 729 108 l 601 108 l 601 -17 l 210 -17 m 224 122 l 588 122 l 588 486 l 224 486 l 224 122 m 510 728 l 510 789 l 446 789 l 446 853 l 383 853 l 383 929 l 460 929 l 460 865 l 524 865 l 524 803 l 586 803 l 586 728 l 510 728 m 344 728 l 344 789 l 281 789 l 281 853 l 218 853 l 218 929 l 294 929 l 294 865 l 358 865 l 358 803 l 421 803 l 421 728 l 344 728 z "},"ō":{"ha":814,"x_min":83,"x_max":729,"o":"m 210 -17 l 210 108 l 83 108 l 83 499 l 210 499 l 210 625 l 601 625 l 601 499 l 729 499 l 729 108 l 601 108 l 601 -17 l 210 -17 m 224 122 l 588 122 l 588 486 l 224 486 l 224 122 m 215 728 l 215 839 l 607 839 l 607 728 l 215 728 z "},"ø":{"ha":814,"x_min":29,"x_max":768,"o":"m 29 -124 l 626 710 l 768 710 l 171 -124 l 29 -124 m 210 -17 l 210 108 l 83 108 l 83 499 l 210 499 l 210 625 l 601 625 l 601 499 l 729 499 l 729 108 l 601 108 l 601 -17 l 210 -17 m 224 122 l 588 122 l 588 486 l 224 486 l 224 122 z "},"ǿ":{"ha":814,"x_min":29,"x_max":768,"o":"m 29 -124 l 626 710 l 768 710 l 171 -124 l 29 -124 m 210 -17 l 210 108 l 83 108 l 83 499 l 210 499 l 210 625 l 601 625 l 601 499 l 729 499 l 729 108 l 601 108 l 601 -17 l 210 -17 m 224 122 l 588 122 l 588 486 l 224 486 l 224 122 m 285 728 l 285 803 l 347 803 l 347 865 l 411 865 l 411 929 l 488 929 l 488 853 l 425 853 l 425 789 l 361 789 l 361 728 l 285 728 z "},"õ":{"ha":814,"x_min":83,"x_max":729,"o":"m 210 -17 l 210 108 l 83 108 l 83 499 l 210 499 l 210 625 l 601 625 l 601 499 l 729 499 l 729 108 l 601 108 l 601 -17 l 210 -17 m 224 122 l 588 122 l 588 486 l 224 486 l 224 122 m 225 728 l 225 871 l 436 871 l 436 807 l 488 807 l 488 871 l 568 871 l 568 728 l 356 728 l 356 793 l 304 793 l 304 728 l 225 728 z "},"œ":{"ha":1318,"x_min":83,"x_max":1233,"o":"m 210 -17 l 210 108 l 83 108 l 83 499 l 210 499 l 210 625 l 601 625 l 601 499 l 715 499 l 715 625 l 1107 625 l 1107 499 l 1233 499 l 1233 361 l 1093 361 l 1093 486 l 729 486 l 729 375 l 981 375 l 981 235 l 729 235 l 729 122 l 1093 122 l 1093 250 l 1233 250 l 1233 110 l 1107 110 l 1107 -17 l 715 -17 l 715 108 l 601 108 l 601 -17 l 210 -17 m 224 122 l 588 122 l 588 486 l 224 486 l 224 122 z "},"p":{"ha":814,"x_min":83,"x_max":729,"o":"m 83 -261 l 83 499 l 210 499 l 210 625 l 601 625 l 601 499 l 729 499 l 729 108 l 601 108 l 601 -17 l 224 -17 l 224 -261 l 83 -261 m 224 122 l 588 122 l 588 486 l 224 486 l 224 122 z "},"þ":{"ha":814,"x_min":83,"x_max":729,"o":"m 83 -17 l 83 876 l 224 876 l 224 700 l 601 700 l 601 574 l 729 574 l 729 182 l 601 182 l 601 58 l 224 58 l 224 -17 l 83 -17 m 224 196 l 588 196 l 588 560 l 224 560 l 224 196 z "},"q":{"ha":814,"x_min":83,"x_max":729,"o":"m 588 -261 l 588 -17 l 210 -17 l 210 108 l 83 108 l 83 499 l 210 499 l 210 625 l 601 625 l 601 499 l 729 499 l 729 -261 l 588 -261 m 224 122 l 588 122 l 588 486 l 224 486 l 224 122 z "},"r":{"ha":814,"x_min":83,"x_max":729,"o":"m 83 -17 l 83 499 l 210 499 l 210 625 l 601 625 l 601 499 l 729 499 l 729 361 l 588 361 l 588 486 l 224 486 l 224 -17 l 83 -17 z "},"ŕ":{"ha":814,"x_min":83,"x_max":729,"o":"m 83 -17 l 83 499 l 210 499 l 210 625 l 601 625 l 601 499 l 729 499 l 729 361 l 588 361 l 588 486 l 224 486 l 224 -17 l 83 -17 m 285 728 l 285 803 l 347 803 l 347 865 l 411 865 l 411 929 l 488 929 l 488 853 l 425 853 l 425 789 l 361 789 l 361 728 l 285 728 z "},"ř":{"ha":814,"x_min":83,"x_max":729,"o":"m 83 -17 l 83 499 l 210 499 l 210 625 l 601 625 l 601 499 l 729 499 l 729 361 l 588 361 l 588 486 l 224 486 l 224 -17 l 83 -17 m 368 728 l 368 792 l 306 792 l 306 868 l 382 868 l 382 804 l 432 804 l 432 868 l 508 868 l 508 792 l 446 792 l 446 728 l 368 728 z "},"ŗ":{"ha":814,"x_min":83,"x_max":729,"o":"m 83 -17 l 83 499 l 210 499 l 210 625 l 601 625 l 601 499 l 729 499 l 729 361 l 588 361 l 588 486 l 224 486 l 224 -17 l 83 -17 m 389 -339 l 389 -261 l 453 -261 l 453 -214 l 326 -214 l 326 -74 l 467 -74 l 467 -200 l 529 -200 l 529 -275 l 467 -275 l 467 -339 l 389 -339 z "},"s":{"ha":814,"x_min":83,"x_max":729,"o":"m 83 -17 l 83 122 l 588 122 l 588 235 l 210 235 l 210 361 l 83 361 l 83 499 l 210 499 l 210 625 l 729 625 l 729 486 l 224 486 l 224 375 l 601 375 l 601 249 l 729 249 l 729 108 l 601 108 l 601 -17 l 83 -17 z "},"ś":{"ha":814,"x_min":83,"x_max":729,"o":"m 83 -17 l 83 122 l 588 122 l 588 235 l 210 235 l 210 361 l 83 361 l 83 499 l 210 499 l 210 625 l 729 625 l 729 486 l 224 486 l 224 375 l 601 375 l 601 249 l 729 249 l 729 108 l 601 108 l 601 -17 l 83 -17 m 340 728 l 340 803 l 403 803 l 403 865 l 467 865 l 467 929 l 543 929 l 543 853 l 481 853 l 481 789 l 417 789 l 417 728 l 340 728 z "},"š":{"ha":814,"x_min":83,"x_max":729,"o":"m 83 -17 l 83 122 l 588 122 l 588 235 l 210 235 l 210 361 l 83 361 l 83 499 l 210 499 l 210 625 l 729 625 l 729 486 l 224 486 l 224 375 l 601 375 l 601 249 l 729 249 l 729 108 l 601 108 l 601 -17 l 83 -17 m 424 728 l 424 792 l 361 792 l 361 868 l 438 868 l 438 804 l 488 804 l 488 868 l 564 868 l 564 792 l 501 792 l 501 728 l 424 728 z "},"ş":{"ha":814,"x_min":83,"x_max":729,"o":"m 83 -17 l 83 122 l 588 122 l 588 235 l 210 235 l 210 361 l 83 361 l 83 499 l 210 499 l 210 625 l 729 625 l 729 486 l 224 486 l 224 375 l 601 375 l 601 249 l 729 249 l 729 108 l 601 108 l 601 -17 l 83 -17 m 307 -278 l 307 -215 l 243 -215 l 243 -139 l 321 -139 l 321 -201 l 496 -201 l 496 -153 l 432 -153 l 432 -90 l 369 -90 l 369 51 l 446 51 l 446 -76 l 510 -76 l 510 -139 l 572 -139 l 572 -215 l 510 -215 l 510 -278 l 307 -278 z "},"ŝ":{"ha":814,"x_min":83,"x_max":729,"o":"m 83 -17 l 83 122 l 588 122 l 588 235 l 210 235 l 210 361 l 83 361 l 83 499 l 210 499 l 210 625 l 729 625 l 729 486 l 224 486 l 224 375 l 601 375 l 601 249 l 729 249 l 729 108 l 601 108 l 601 -17 l 83 -17 m 361 728 l 361 804 l 424 804 l 424 868 l 501 868 l 501 804 l 564 804 l 564 728 l 488 728 l 488 792 l 438 792 l 438 728 l 361 728 z "},"ș":{"ha":814,"x_min":83,"x_max":729,"o":"m 83 -17 l 83 122 l 588 122 l 588 235 l 210 235 l 210 361 l 83 361 l 83 499 l 210 499 l 210 625 l 729 625 l 729 486 l 224 486 l 224 375 l 601 375 l 601 249 l 729 249 l 729 108 l 601 108 l 601 -17 l 83 -17 m 389 -339 l 389 -261 l 453 -261 l 453 -214 l 326 -214 l 326 -74 l 467 -74 l 467 -200 l 529 -200 l 529 -275 l 467 -275 l 467 -339 l 389 -339 z "},"ß":{"ha":814,"x_min":83,"x_max":729,"o":"m 83 -17 l 83 876 l 601 876 l 601 750 l 729 750 l 729 486 l 601 486 l 601 375 l 729 375 l 729 108 l 601 108 l 601 -17 l 335 -17 l 335 122 l 588 122 l 588 361 l 335 361 l 335 499 l 588 499 l 588 736 l 224 736 l 224 -17 l 83 -17 z "},"t":{"ha":940,"x_min":83,"x_max":856,"o":"m 335 -17 l 335 108 l 210 108 l 210 486 l 83 486 l 83 625 l 210 625 l 210 876 l 349 876 l 349 625 l 729 625 l 729 486 l 349 486 l 349 122 l 715 122 l 715 249 l 856 249 l 856 108 l 729 108 l 729 -17 l 335 -17 z "},"ŧ":{"ha":940,"x_min":83,"x_max":856,"o":"m 335 -17 l 335 108 l 210 108 l 210 215 l 83 215 l 83 356 l 210 356 l 210 486 l 83 486 l 83 625 l 210 625 l 210 876 l 349 876 l 349 625 l 729 625 l 729 486 l 349 486 l 349 356 l 475 356 l 475 215 l 349 215 l 349 122 l 715 122 l 715 249 l 856 249 l 856 108 l 729 108 l 729 -17 l 335 -17 z "},"ť":{"ha":940,"x_min":83,"x_max":949,"o":"m 335 -17 l 335 108 l 210 108 l 210 486 l 83 486 l 83 625 l 210 625 l 210 876 l 349 876 l 349 625 l 729 625 l 729 486 l 349 486 l 349 122 l 715 122 l 715 249 l 856 249 l 856 108 l 729 108 l 729 -17 l 335 -17 m 808 611 l 808 689 l 872 689 l 872 736 l 746 736 l 746 876 l 886 876 l 886 750 l 949 750 l 949 675 l 886 675 l 886 611 l 808 611 z "},"ţ":{"ha":940,"x_min":83,"x_max":856,"o":"m 335 -17 l 335 108 l 210 108 l 210 486 l 83 486 l 83 625 l 210 625 l 210 876 l 349 876 l 349 625 l 729 625 l 729 486 l 349 486 l 349 122 l 715 122 l 715 249 l 856 249 l 856 108 l 729 108 l 729 -17 l 335 -17 m 414 -278 l 414 -215 l 350 -215 l 350 -139 l 428 -139 l 428 -201 l 603 -201 l 603 -153 l 539 -153 l 539 -90 l 476 -90 l 476 51 l 553 51 l 553 -76 l 617 -76 l 617 -139 l 679 -139 l 679 -215 l 617 -215 l 617 -278 l 414 -278 z "},"ț":{"ha":940,"x_min":83,"x_max":856,"o":"m 335 -17 l 335 108 l 210 108 l 210 486 l 83 486 l 83 625 l 210 625 l 210 876 l 349 876 l 349 625 l 729 625 l 729 486 l 349 486 l 349 122 l 715 122 l 715 249 l 856 249 l 856 108 l 729 108 l 729 -17 l 335 -17 m 496 -339 l 496 -261 l 560 -261 l 560 -214 l 433 -214 l 433 -74 l 574 -74 l 574 -200 l 636 -200 l 636 -275 l 574 -275 l 574 -339 l 496 -339 z "},"u":{"ha":814,"x_min":83,"x_max":729,"o":"m 210 -17 l 210 108 l 83 108 l 83 625 l 224 625 l 224 122 l 588 122 l 588 625 l 729 625 l 729 108 l 601 108 l 601 -17 l 210 -17 z "},"ú":{"ha":814,"x_min":83,"x_max":729,"o":"m 210 -17 l 210 108 l 83 108 l 83 625 l 224 625 l 224 122 l 588 122 l 588 625 l 729 625 l 729 108 l 601 108 l 601 -17 l 210 -17 m 285 728 l 285 803 l 347 803 l 347 865 l 411 865 l 411 929 l 488 929 l 488 853 l 425 853 l 425 789 l 361 789 l 361 728 l 285 728 z "},"ŭ":{"ha":814,"x_min":83,"x_max":729,"o":"m 210 -17 l 210 108 l 83 108 l 83 625 l 224 625 l 224 122 l 588 122 l 588 625 l 729 625 l 729 108 l 601 108 l 601 -17 l 210 -17 m 235 728 l 235 868 l 311 868 l 311 804 l 497 804 l 497 868 l 572 868 l 572 728 l 235 728 z "},"û":{"ha":814,"x_min":83,"x_max":729,"o":"m 210 -17 l 210 108 l 83 108 l 83 625 l 224 625 l 224 122 l 588 122 l 588 625 l 729 625 l 729 108 l 601 108 l 601 -17 l 210 -17 m 306 728 l 306 804 l 368 804 l 368 868 l 446 868 l 446 804 l 508 804 l 508 728 l 432 728 l 432 792 l 382 792 l 382 728 l 306 728 z "},"ü":{"ha":814,"x_min":83,"x_max":729,"o":"m 210 -17 l 210 108 l 83 108 l 83 625 l 224 625 l 224 122 l 588 122 l 588 625 l 729 625 l 729 108 l 601 108 l 601 -17 l 210 -17 m 194 728 l 194 868 l 336 868 l 336 728 l 194 728 m 490 728 l 490 868 l 631 868 l 631 728 l 490 728 z "},"ù":{"ha":814,"x_min":83,"x_max":729,"o":"m 210 -17 l 210 108 l 83 108 l 83 625 l 224 625 l 224 122 l 588 122 l 588 625 l 729 625 l 729 108 l 601 108 l 601 -17 l 210 -17 m 369 728 l 369 789 l 306 789 l 306 853 l 243 853 l 243 929 l 319 929 l 319 865 l 383 865 l 383 803 l 446 803 l 446 728 l 369 728 z "},"ű":{"ha":814,"x_min":83,"x_max":729,"o":"m 210 -17 l 210 108 l 83 108 l 83 625 l 224 625 l 224 122 l 588 122 l 588 625 l 729 625 l 729 108 l 601 108 l 601 -17 l 210 -17 m 510 728 l 510 789 l 446 789 l 446 853 l 383 853 l 383 929 l 460 929 l 460 865 l 524 865 l 524 803 l 586 803 l 586 728 l 510 728 m 344 728 l 344 789 l 281 789 l 281 853 l 218 853 l 218 929 l 294 929 l 294 865 l 358 865 l 358 803 l 421 803 l 421 728 l 344 728 z "},"ū":{"ha":814,"x_min":83,"x_max":729,"o":"m 210 -17 l 210 108 l 83 108 l 83 625 l 224 625 l 224 122 l 588 122 l 588 625 l 729 625 l 729 108 l 601 108 l 601 -17 l 210 -17 m 215 728 l 215 839 l 607 839 l 607 728 l 215 728 z "},"ų":{"ha":814,"x_min":83,"x_max":729,"o":"m 210 -17 l 210 108 l 83 108 l 83 625 l 224 625 l 224 122 l 588 122 l 588 625 l 729 625 l 729 108 l 601 108 l 601 -17 l 210 -17 m 313 -294 l 313 -232 l 249 -232 l 249 -156 l 313 -156 l 313 -93 l 375 -93 l 375 36 l 451 36 l 451 -107 l 389 -107 l 389 -169 l 326 -169 l 326 -218 l 501 -218 l 501 -156 l 578 -156 l 578 -232 l 515 -232 l 515 -294 l 313 -294 z "},"ů":{"ha":814,"x_min":83,"x_max":729,"o":"m 210 -17 l 210 108 l 83 108 l 83 625 l 224 625 l 224 122 l 588 122 l 588 625 l 729 625 l 729 108 l 601 108 l 601 -17 l 210 -17 m 335 728 l 335 868 l 475 868 l 475 728 l 335 728 m 381 774 l 429 774 l 429 822 l 381 822 l 381 774 z "},"ũ":{"ha":814,"x_min":83,"x_max":729,"o":"m 210 -17 l 210 108 l 83 108 l 83 625 l 224 625 l 224 122 l 588 122 l 588 625 l 729 625 l 729 108 l 601 108 l 601 -17 l 210 -17 m 225 728 l 225 871 l 436 871 l 436 807 l 488 807 l 488 871 l 568 871 l 568 728 l 356 728 l 356 793 l 304 793 l 304 728 l 225 728 z "},"v":{"ha":800,"x_min":69,"x_max":715,"o":"m 322 -17 l 322 108 l 196 108 l 196 361 l 69 361 l 69 625 l 210 625 l 210 375 l 335 375 l 335 122 l 449 122 l 449 375 l 574 375 l 574 625 l 715 625 l 715 361 l 588 361 l 588 108 l 463 108 l 463 -17 l 322 -17 z "},"w":{"ha":1065,"x_min":83,"x_max":981,"o":"m 83 -17 l 83 625 l 224 625 l 224 122 l 463 122 l 463 625 l 601 625 l 601 122 l 842 122 l 842 625 l 981 625 l 981 108 l 856 108 l 856 -17 l 588 -17 l 588 108 l 476 108 l 476 -17 l 83 -17 z "},"ẃ":{"ha":1065,"x_min":83,"x_max":981,"o":"m 83 -17 l 83 625 l 224 625 l 224 122 l 463 122 l 463 625 l 601 625 l 601 122 l 842 122 l 842 625 l 981 625 l 981 108 l 856 108 l 856 -17 l 588 -17 l 588 108 l 476 108 l 476 -17 l 83 -17 m 411 728 l 411 803 l 474 803 l 474 865 l 538 865 l 538 929 l 614 929 l 614 853 l 551 853 l 551 789 l 488 789 l 488 728 l 411 728 z "},"ŵ":{"ha":1065,"x_min":83,"x_max":981,"o":"m 83 -17 l 83 625 l 224 625 l 224 122 l 463 122 l 463 625 l 601 625 l 601 122 l 842 122 l 842 625 l 981 625 l 981 108 l 856 108 l 856 -17 l 588 -17 l 588 108 l 476 108 l 476 -17 l 83 -17 m 432 728 l 432 804 l 494 804 l 494 868 l 572 868 l 572 804 l 635 804 l 635 728 l 558 728 l 558 792 l 508 792 l 508 728 l 432 728 z "},"ẅ":{"ha":1065,"x_min":83,"x_max":981,"o":"m 83 -17 l 83 625 l 224 625 l 224 122 l 463 122 l 463 625 l 601 625 l 601 122 l 842 122 l 842 625 l 981 625 l 981 108 l 856 108 l 856 -17 l 588 -17 l 588 108 l 476 108 l 476 -17 l 83 -17 m 321 728 l 321 868 l 463 868 l 463 728 l 321 728 m 617 728 l 617 868 l 757 868 l 757 728 l 617 728 z "},"ẁ":{"ha":1065,"x_min":83,"x_max":981,"o":"m 83 -17 l 83 625 l 224 625 l 224 122 l 463 122 l 463 625 l 601 625 l 601 122 l 842 122 l 842 625 l 981 625 l 981 108 l 856 108 l 856 -17 l 588 -17 l 588 108 l 476 108 l 476 -17 l 83 -17 m 496 728 l 496 789 l 432 789 l 432 853 l 369 853 l 369 929 l 446 929 l 446 865 l 510 865 l 510 803 l 572 803 l 572 728 l 496 728 z "},"x":{"ha":814,"x_min":83,"x_max":729,"o":"m 83 -17 l 83 122 l 210 122 l 210 249 l 335 249 l 335 361 l 210 361 l 210 486 l 83 486 l 83 625 l 224 625 l 224 499 l 349 499 l 349 375 l 463 375 l 463 499 l 588 499 l 588 625 l 729 625 l 729 486 l 601 486 l 601 361 l 476 361 l 476 249 l 601 249 l 601 122 l 729 122 l 729 -17 l 588 -17 l 588 108 l 463 108 l 463 235 l 349 235 l 349 108 l 224 108 l 224 -17 l 83 -17 z "},"y":{"ha":814,"x_min":83,"x_max":729,"o":"m 210 -268 l 210 -143 l 83 -143 l 83 -4 l 224 -4 l 224 -129 l 589 -129 l 589 108 l 210 108 l 210 235 l 83 235 l 83 625 l 224 625 l 224 249 l 589 249 l 589 625 l 729 625 l 729 -143 l 603 -143 l 603 -268 l 210 -268 z "},"ý":{"ha":814,"x_min":83,"x_max":729,"o":"m 210 -268 l 210 -143 l 83 -143 l 83 -4 l 224 -4 l 224 -129 l 589 -129 l 589 108 l 210 108 l 210 235 l 83 235 l 83 625 l 224 625 l 224 249 l 589 249 l 589 625 l 729 625 l 729 -143 l 603 -143 l 603 -268 l 210 -268 m 285 728 l 285 803 l 347 803 l 347 865 l 411 865 l 411 929 l 488 929 l 488 853 l 425 853 l 425 789 l 361 789 l 361 728 l 285 728 z "},"ŷ":{"ha":814,"x_min":83,"x_max":729,"o":"m 210 -268 l 210 -143 l 83 -143 l 83 -4 l 224 -4 l 224 -129 l 589 -129 l 589 108 l 210 108 l 210 235 l 83 235 l 83 625 l 224 625 l 224 249 l 589 249 l 589 625 l 729 625 l 729 -143 l 603 -143 l 603 -268 l 210 -268 m 306 728 l 306 804 l 368 804 l 368 868 l 446 868 l 446 804 l 508 804 l 508 728 l 432 728 l 432 792 l 382 792 l 382 728 l 306 728 z "},"ÿ":{"ha":814,"x_min":83,"x_max":729,"o":"m 210 -268 l 210 -143 l 83 -143 l 83 -4 l 224 -4 l 224 -129 l 589 -129 l 589 108 l 210 108 l 210 235 l 83 235 l 83 625 l 224 625 l 224 249 l 589 249 l 589 625 l 729 625 l 729 -143 l 603 -143 l 603 -268 l 210 -268 m 194 728 l 194 868 l 336 868 l 336 728 l 194 728 m 490 728 l 490 868 l 631 868 l 631 728 l 490 728 z "},"ỳ":{"ha":814,"x_min":83,"x_max":729,"o":"m 210 -268 l 210 -143 l 83 -143 l 83 -4 l 224 -4 l 224 -129 l 589 -129 l 589 108 l 210 108 l 210 235 l 83 235 l 83 625 l 224 625 l 224 249 l 589 249 l 589 625 l 729 625 l 729 -143 l 603 -143 l 603 -268 l 210 -268 m 369 728 l 369 789 l 306 789 l 306 853 l 243 853 l 243 929 l 319 929 l 319 865 l 383 865 l 383 803 l 446 803 l 446 728 l 369 728 z "},"z":{"ha":814,"x_min":83,"x_max":729,"o":"m 83 -17 l 83 122 l 210 122 l 210 249 l 335 249 l 335 375 l 463 375 l 463 486 l 83 486 l 83 625 l 729 625 l 729 486 l 601 486 l 601 361 l 476 361 l 476 235 l 349 235 l 349 122 l 729 122 l 729 -17 l 83 -17 z "},"ź":{"ha":814,"x_min":83,"x_max":729,"o":"m 83 -17 l 83 122 l 210 122 l 210 249 l 335 249 l 335 375 l 463 375 l 463 486 l 83 486 l 83 625 l 729 625 l 729 486 l 601 486 l 601 361 l 476 361 l 476 235 l 349 235 l 349 122 l 729 122 l 729 -17 l 83 -17 m 285 728 l 285 803 l 347 803 l 347 865 l 411 865 l 411 929 l 488 929 l 488 853 l 425 853 l 425 789 l 361 789 l 361 728 l 285 728 z "},"ž":{"ha":814,"x_min":83,"x_max":729,"o":"m 83 -17 l 83 122 l 210 122 l 210 249 l 335 249 l 335 375 l 463 375 l 463 486 l 83 486 l 83 625 l 729 625 l 729 486 l 601 486 l 601 361 l 476 361 l 476 235 l 349 235 l 349 122 l 729 122 l 729 -17 l 83 -17 m 368 728 l 368 792 l 306 792 l 306 868 l 382 868 l 382 804 l 432 804 l 432 868 l 508 868 l 508 792 l 446 792 l 446 728 l 368 728 z "},"ż":{"ha":814,"x_min":83,"x_max":729,"o":"m 83 -17 l 83 122 l 210 122 l 210 249 l 335 249 l 335 375 l 463 375 l 463 486 l 83 486 l 83 625 l 729 625 l 729 486 l 601 486 l 601 361 l 476 361 l 476 235 l 349 235 l 349 122 l 729 122 l 729 -17 l 83 -17 m 336 728 l 336 868 l 478 868 l 478 728 l 336 728 z "},"ﬀ":{"ha":1318,"x_min":83,"x_max":1233,"o":"m 83 -17 l 83 750 l 210 750 l 210 876 l 601 876 l 601 750 l 715 750 l 715 876 l 1107 876 l 1107 750 l 1233 750 l 1233 611 l 1093 611 l 1093 736 l 729 736 l 729 499 l 981 499 l 981 361 l 729 361 l 729 -17 l 588 -17 l 588 736 l 224 736 l 224 499 l 476 499 l 476 361 l 224 361 l 224 -17 l 83 -17 z "},"ﬃ":{"ha":1318,"x_min":83,"x_max":1233,"o":"m 83 -17 l 83 750 l 210 750 l 210 876 l 601 876 l 601 750 l 715 750 l 715 876 l 1107 876 l 1107 750 l 1233 750 l 1233 611 l 1093 611 l 1093 736 l 729 736 l 729 499 l 1233 499 l 1233 -17 l 1092 -17 l 1092 361 l 729 361 l 729 -17 l 588 -17 l 588 736 l 224 736 l 224 499 l 476 499 l 476 361 l 224 361 l 224 -17 l 83 -17 z "},"ﬄ":{"ha":1318,"x_min":83,"x_max":1233,"o":"m 83 -17 l 83 750 l 210 750 l 210 876 l 601 876 l 601 750 l 715 750 l 715 876 l 1107 876 l 1107 750 l 1233 750 l 1233 -17 l 1093 -17 l 1093 736 l 729 736 l 729 499 l 981 499 l 981 361 l 729 361 l 729 -17 l 588 -17 l 588 736 l 224 736 l 224 499 l 476 499 l 476 361 l 224 361 l 224 -17 l 83 -17 z "},"ﬁ":{"ha":814,"x_min":83,"x_max":729,"o":"m 83 -17 l 83 750 l 210 750 l 210 876 l 601 876 l 601 750 l 729 750 l 729 611 l 588 611 l 588 736 l 224 736 l 224 499 l 729 499 l 729 -17 l 588 -17 l 588 361 l 224 361 l 224 -17 l 83 -17 z "},"ﬂ":{"ha":814,"x_min":83,"x_max":729,"o":"m 83 -17 l 83 750 l 210 750 l 210 876 l 601 876 l 601 750 l 729 750 l 729 -17 l 588 -17 l 588 736 l 224 736 l 224 499 l 476 499 l 476 361 l 224 361 l 224 -17 l 83 -17 z "},"ﬆ":{"ha":1561,"x_min":83,"x_max":1476,"o":"m 83 -17 l 83 122 l 588 122 l 588 235 l 210 235 l 210 361 l 83 361 l 83 499 l 210 499 l 210 625 l 831 625 l 831 876 l 971 876 l 971 625 l 1350 625 l 1350 486 l 971 486 l 971 122 l 1336 122 l 1336 249 l 1476 249 l 1476 108 l 1350 108 l 1350 -17 l 957 -17 l 957 108 l 831 108 l 831 486 l 224 486 l 224 375 l 601 375 l 601 249 l 729 249 l 729 108 l 601 108 l 601 -17 l 83 -17 z "},"ª":{"ha":553,"x_min":83,"x_max":469,"o":"m 147 550 l 147 613 l 83 613 l 83 808 l 147 808 l 147 871 l 343 871 l 343 808 l 407 808 l 407 619 l 469 619 l 469 550 l 400 550 l 400 613 l 343 613 l 343 550 l 147 550 m 154 619 l 336 619 l 336 801 l 154 801 l 154 619 m 343 443 l 343 514 l 147 514 l 147 443 l 343 443 z "},"º":{"ha":490,"x_min":83,"x_max":407,"o":"m 147 618 l 147 556 l 343 556 l 343 618 l 407 618 l 407 814 l 343 814 l 343 876 l 147 876 l 147 814 l 83 814 l 83 618 l 147 618 m 154 807 l 336 807 l 336 625 l 154 625 l 154 807 m 343 443 l 343 514 l 147 514 l 147 443 l 343 443 z "},"А":{"ha":814,"x_min":83,"x_max":729,"o":"m 83 -17 l 83 625 l 210 625 l 210 750 l 335 750 l 335 876 l 476 876 l 476 750 l 601 750 l 601 625 l 729 625 l 729 -17 l 588 -17 l 588 235 l 224 235 l 224 -17 l 83 -17 m 224 375 l 588 375 l 588 611 l 463 611 l 463 736 l 349 736 l 349 611 l 224 611 l 224 375 z "},"Б":{"ha":814,"x_min":83,"x_max":729,"o":"m 210 -17 l 210 108 l 83 108 l 83 876 l 601 876 l 601 750 l 729 750 l 729 611 l 588 611 l 588 736 l 224 736 l 224 499 l 601 499 l 601 375 l 729 375 l 729 108 l 601 108 l 601 -17 l 210 -17 m 224 122 l 588 122 l 588 361 l 224 361 l 224 122 z "},"В":{"ha":814,"x_min":83,"x_max":729,"o":"m 210 -17 l 210 108 l 83 108 l 83 750 l 210 750 l 210 876 l 601 876 l 601 750 l 729 750 l 729 486 l 601 486 l 601 375 l 729 375 l 729 108 l 601 108 l 601 -17 l 210 -17 m 224 122 l 588 122 l 588 361 l 335 361 l 335 499 l 588 499 l 588 736 l 224 736 l 224 122 z "},"Г":{"ha":686,"x_min":83,"x_max":601,"o":"m 83 -17 l 83 874 l 601 874 l 601 733 l 224 733 l 224 -17 l 83 -17 z "},"Ѓ":{"ha":686,"x_min":83,"x_max":601,"o":"m 83 -17 l 83 874 l 601 874 l 601 733 l 224 733 l 224 -17 l 83 -17 z "},"Ґ":{"ha":686,"x_min":83,"x_max":601,"o":"m 83 -17 l 83 874 l 463 874 l 463 974 l 601 974 l 601 733 l 224 733 l 224 -17 l 83 -17 z "},"Д":{"ha":939,"x_min":83,"x_max":854,"o":"m 83 -17 l 83 376 l 208 376 l 208 874 l 854 874 l 854 -17 l 714 -17 l 714 110 l 224 110 l 224 -17 l 83 -17 m 349 250 l 714 250 l 714 733 l 349 733 l 349 250 z "},"Е":{"ha":814,"x_min":83,"x_max":729,"o":"m 210 -17 l 210 108 l 83 108 l 83 750 l 210 750 l 210 876 l 601 876 l 601 750 l 729 750 l 729 611 l 588 611 l 588 736 l 224 736 l 224 499 l 476 499 l 476 361 l 224 361 l 224 122 l 588 122 l 588 249 l 729 249 l 729 108 l 601 108 l 601 -17 l 210 -17 z "},"Ё":{"ha":814,"x_min":83,"x_max":729,"o":"m 210 -17 l 210 108 l 83 108 l 83 750 l 210 750 l 210 876 l 601 876 l 601 750 l 729 750 l 729 611 l 588 611 l 588 736 l 224 736 l 224 499 l 476 499 l 476 361 l 224 361 l 224 122 l 588 122 l 588 249 l 729 249 l 729 108 l 601 108 l 601 -17 l 210 -17 m 231 939 l 231 1079 l 307 1079 l 307 939 l 231 939 m 507 939 l 507 1079 l 582 1079 l 582 939 l 507 939 z "},"Ж":{"ha":1318,"x_min":83,"x_max":1233,"o":"m 83 -17 l 83 124 l 210 124 l 210 249 l 335 249 l 335 375 l 463 375 l 463 486 l 335 486 l 335 611 l 210 611 l 210 736 l 83 736 l 83 876 l 224 876 l 224 750 l 349 750 l 349 625 l 476 625 l 476 499 l 588 499 l 588 876 l 729 876 l 729 499 l 840 499 l 840 625 l 968 625 l 968 750 l 1093 750 l 1093 876 l 1233 876 l 1233 736 l 1107 736 l 1107 611 l 981 611 l 981 486 l 854 486 l 854 375 l 981 375 l 981 249 l 1107 249 l 1107 124 l 1233 124 l 1233 -17 l 1093 -17 l 1093 110 l 968 110 l 968 235 l 840 235 l 840 361 l 729 361 l 729 -17 l 588 -17 l 588 361 l 476 361 l 476 235 l 349 235 l 349 110 l 224 110 l 224 -17 l 83 -17 z "},"З":{"ha":814,"x_min":83,"x_max":729,"o":"m 210 -17 l 210 108 l 83 108 l 83 249 l 224 249 l 224 122 l 588 122 l 588 361 l 210 361 l 210 499 l 588 499 l 588 736 l 224 736 l 224 611 l 83 611 l 83 750 l 210 750 l 210 876 l 601 876 l 601 750 l 729 750 l 729 486 l 601 486 l 601 375 l 729 375 l 729 108 l 601 108 l 601 -17 l 210 -17 z "},"И":{"ha":814,"x_min":83,"x_max":729,"o":"m 83 -17 l 83 876 l 224 876 l 224 249 l 335 249 l 335 625 l 463 625 l 463 750 l 588 750 l 588 876 l 729 876 l 729 -17 l 588 -17 l 588 611 l 476 611 l 476 235 l 349 235 l 349 108 l 224 108 l 224 -17 l 83 -17 z "},"Й":{"ha":814,"x_min":83,"x_max":729,"o":"m 83 -17 l 83 876 l 224 876 l 224 249 l 335 249 l 335 625 l 463 625 l 463 750 l 588 750 l 588 876 l 729 876 l 729 -17 l 588 -17 l 588 611 l 476 611 l 476 235 l 349 235 l 349 108 l 224 108 l 224 -17 l 83 -17 m 235 960 l 235 1100 l 311 1100 l 311 1036 l 497 1036 l 497 1100 l 572 1100 l 572 960 l 235 960 z "},"К":{"ha":814,"x_min":83,"x_max":729,"o":"m 83 -17 l 83 750 l 210 750 l 210 876 l 349 876 l 349 736 l 224 736 l 224 499 l 335 499 l 335 625 l 463 625 l 463 750 l 588 750 l 588 876 l 729 876 l 729 736 l 601 736 l 601 611 l 476 611 l 476 486 l 349 486 l 349 375 l 476 375 l 476 249 l 601 249 l 601 122 l 729 122 l 729 -17 l 588 -17 l 588 108 l 463 108 l 463 235 l 335 235 l 335 361 l 224 361 l 224 -17 l 83 -17 m 365 960 l 365 1036 l 428 1036 l 428 1100 l 490 1100 l 490 1163 l 565 1163 l 565 1086 l 504 1086 l 504 1024 l 442 1024 l 442 960 l 365 960 z "},"Ќ":{"ha":814,"x_min":83,"x_max":729,"o":"m 83 -17 l 83 750 l 210 750 l 210 876 l 349 876 l 349 736 l 224 736 l 224 499 l 335 499 l 335 625 l 463 625 l 463 750 l 588 750 l 588 876 l 729 876 l 729 736 l 601 736 l 601 611 l 476 611 l 476 486 l 349 486 l 349 375 l 476 375 l 476 249 l 601 249 l 601 122 l 729 122 l 729 -17 l 588 -17 l 588 108 l 463 108 l 463 235 l 335 235 l 335 361 l 224 361 l 224 -17 l 83 -17 z "},"Л":{"ha":939,"x_min":83,"x_max":854,"o":"m 83 -17 l 83 124 l 208 124 l 208 874 l 854 874 l 854 -17 l 714 -17 l 714 733 l 349 733 l 349 -17 l 83 -17 z "},"М":{"ha":1065,"x_min":83,"x_max":981,"o":"m 83 -17 l 83 750 l 210 750 l 210 876 l 349 876 l 349 750 l 476 750 l 476 499 l 588 499 l 588 750 l 715 750 l 715 876 l 856 876 l 856 750 l 981 750 l 981 -17 l 842 -17 l 842 736 l 729 736 l 729 486 l 601 486 l 601 108 l 463 108 l 463 486 l 335 486 l 335 736 l 224 736 l 224 -17 l 83 -17 z "},"Н":{"ha":814,"x_min":83,"x_max":729,"o":"m 83 -17 l 83 876 l 224 876 l 224 499 l 588 499 l 588 876 l 729 876 l 729 -17 l 588 -17 l 588 361 l 224 361 l 224 -17 l 83 -17 z "},"Р":{"ha":814,"x_min":83,"x_max":729,"o":"m 83 -17 l 83 750 l 210 750 l 210 876 l 601 876 l 601 750 l 729 750 l 729 361 l 601 361 l 601 235 l 224 235 l 224 -17 l 83 -17 m 224 375 l 588 375 l 588 736 l 224 736 l 224 375 z "},"С":{"ha":814,"x_min":83,"x_max":729,"o":"m 210 -17 l 210 108 l 83 108 l 83 750 l 210 750 l 210 876 l 601 876 l 601 750 l 729 750 l 729 486 l 588 486 l 588 736 l 224 736 l 224 122 l 588 122 l 588 375 l 729 375 l 729 108 l 601 108 l 601 -17 l 210 -17 z "},"Т":{"ha":814,"x_min":83,"x_max":729,"o":"m 335 -17 l 335 736 l 224 736 l 224 611 l 83 611 l 83 750 l 210 750 l 210 876 l 601 876 l 601 750 l 729 750 l 729 611 l 588 611 l 588 736 l 476 736 l 476 -17 l 335 -17 z "},"У":{"ha":814,"x_min":83,"x_max":729,"o":"m 335 -17 l 335 486 l 210 486 l 210 611 l 83 611 l 83 876 l 224 876 l 224 625 l 349 625 l 349 499 l 463 499 l 463 625 l 588 625 l 588 876 l 729 876 l 729 611 l 601 611 l 601 486 l 476 486 l 476 -17 l 335 -17 z "},"Ў":{"ha":814,"x_min":83,"x_max":729,"o":"m 335 -17 l 335 486 l 210 486 l 210 611 l 83 611 l 83 876 l 224 876 l 224 625 l 349 625 l 349 499 l 463 499 l 463 625 l 588 625 l 588 876 l 729 876 l 729 611 l 601 611 l 601 486 l 476 486 l 476 -17 l 335 -17 m 235 960 l 235 1100 l 311 1100 l 311 1036 l 511 1036 l 511 1100 l 586 1100 l 586 960 l 235 960 z "},"Ф":{"ha":814,"x_min":83,"x_max":729,"o":"m 331 -17 l 331 107 l 210 107 l 210 232 l 83 232 l 83 622 l 210 622 l 210 749 l 331 749 l 331 876 l 472 876 l 472 749 l 601 749 l 601 622 l 729 622 l 729 232 l 601 232 l 601 107 l 472 107 l 472 -17 l 331 -17 m 224 246 l 331 246 l 331 608 l 224 608 l 224 246 m 472 246 l 588 246 l 588 608 l 472 608 l 472 246 z "},"Х":{"ha":814,"x_min":83,"x_max":729,"o":"m 83 -17 l 83 122 l 210 122 l 210 375 l 335 375 l 335 486 l 210 486 l 210 736 l 83 736 l 83 876 l 224 876 l 224 750 l 349 750 l 349 499 l 463 499 l 463 750 l 588 750 l 588 876 l 729 876 l 729 736 l 601 736 l 601 486 l 476 486 l 476 375 l 601 375 l 601 122 l 729 122 l 729 -17 l 588 -17 l 588 108 l 463 108 l 463 361 l 349 361 l 349 108 l 224 108 l 224 -17 l 83 -17 z "},"Ч":{"ha":814,"x_min":83,"x_max":729,"o":"m 589 -18 l 589 358 l 210 358 l 210 485 l 83 485 l 83 875 l 224 875 l 224 497 l 589 497 l 589 875 l 729 875 l 729 -18 l 589 -18 z "},"Ц":{"ha":814,"x_min":83,"x_max":790,"o":"m 651 -142 l 651 -64 l 715 -64 l 715 -17 l 83 -17 l 83 874 l 224 874 l 224 124 l 588 124 l 588 874 l 729 874 l 729 -3 l 790 -3 l 790 -78 l 729 -78 l 729 -142 l 651 -142 z "},"Ш":{"ha":1065,"x_min":83,"x_max":981,"o":"m 210 -17 l 210 108 l 83 108 l 83 876 l 224 876 l 224 122 l 335 122 l 335 375 l 463 375 l 463 750 l 601 750 l 601 375 l 729 375 l 729 122 l 842 122 l 842 876 l 981 876 l 981 108 l 856 108 l 856 -17 l 715 -17 l 715 108 l 588 108 l 588 361 l 476 361 l 476 108 l 349 108 l 349 -17 l 210 -17 z "},"Щ":{"ha":1065,"x_min":83,"x_max":1043,"o":"m 904 -142 l 904 -64 l 968 -64 l 968 -17 l 715 -17 l 715 108 l 588 108 l 588 361 l 476 361 l 476 108 l 349 108 l 349 -17 l 210 -17 l 210 108 l 83 108 l 83 876 l 224 876 l 224 122 l 335 122 l 335 375 l 463 375 l 463 750 l 601 750 l 601 375 l 729 375 l 729 122 l 842 122 l 842 876 l 981 876 l 981 -3 l 1043 -3 l 1043 -78 l 981 -78 l 981 -142 l 904 -142 z "},"Џ":{"ha":814,"x_min":83,"x_max":729,"o":"m 333 -143 l 333 -17 l 83 -17 l 83 875 l 224 875 l 224 124 l 588 124 l 588 875 l 729 875 l 729 -17 l 474 -17 l 474 -143 l 333 -143 z "},"Ь":{"ha":814,"x_min":83,"x_max":729,"o":"m 210 -17 l 210 108 l 83 108 l 83 876 l 224 876 l 224 625 l 601 625 l 601 499 l 729 499 l 729 108 l 601 108 l 601 -17 l 210 -17 m 224 122 l 588 122 l 588 486 l 224 486 l 224 122 z "},"Ы":{"ha":1065,"x_min":83,"x_max":981,"o":"m 210 -17 l 210 108 l 83 108 l 83 876 l 224 876 l 224 497 l 601 497 l 601 372 l 729 372 l 729 108 l 601 108 l 601 -17 l 210 -17 m 224 122 l 588 122 l 588 358 l 224 358 l 224 122 m 840 -17 l 840 625 l 981 625 l 981 -17 l 840 -17 z "},"Ъ":{"ha":813,"x_min":-56,"x_max":729,"o":"m 210 -17 l 210 108 l 83 108 l 83 736 l -56 736 l -56 876 l 364 876 l 364 736 l 224 736 l 224 625 l 601 625 l 601 499 l 729 499 l 729 108 l 601 108 l 601 -17 l 210 -17 m 224 122 l 588 122 l 588 486 l 224 486 l 224 122 z "},"Љ":{"ha":939,"x_min":83,"x_max":854,"o":"m 83 -17 l 83 124 l 208 124 l 208 874 l 854 874 l 854 -17 l 714 -17 l 714 733 l 349 733 l 349 -17 l 83 -17 z "},"Њ":{"ha":1318,"x_min":83,"x_max":1233,"o":"m 83 -17 l 83 876 l 224 876 l 224 499 l 588 499 l 588 876 l 729 876 l 729 625 l 1107 625 l 1107 499 l 1233 499 l 1233 108 l 1107 108 l 1107 -17 l 588 -17 l 588 361 l 224 361 l 224 -17 l 83 -17 m 729 122 l 1093 122 l 1093 486 l 729 486 l 729 122 z "},"Ѕ":{"ha":814,"x_min":83,"x_max":729,"o":"m 83 -17 l 83 122 l 588 122 l 588 235 l 210 235 l 210 361 l 83 361 l 83 499 l 210 499 l 210 625 l 729 625 l 729 486 l 224 486 l 224 375 l 601 375 l 601 249 l 729 249 l 729 108 l 601 108 l 601 -17 l 83 -17 z "},"Є":{"ha":814,"x_min":83,"x_max":729,"o":"m 210 -17 l 210 108 l 83 108 l 83 375 l 210 375 l 210 486 l 83 486 l 83 750 l 210 750 l 210 876 l 601 876 l 601 750 l 729 750 l 729 611 l 588 611 l 588 736 l 224 736 l 224 499 l 601 499 l 601 361 l 224 361 l 224 122 l 588 122 l 588 249 l 729 249 l 729 108 l 601 108 l 601 -17 l 210 -17 z "},"Э":{"ha":814,"x_min":83,"x_max":729,"o":"m 210 -17 l 210 108 l 83 108 l 83 249 l 224 249 l 224 122 l 588 122 l 588 361 l 210 361 l 210 499 l 588 499 l 588 736 l 224 736 l 224 611 l 83 611 l 83 750 l 210 750 l 210 876 l 601 876 l 601 750 l 729 750 l 729 486 l 601 486 l 601 375 l 729 375 l 729 108 l 601 108 l 601 -17 l 210 -17 z "},"Ї":{"ha":389,"x_min":-28,"x_max":417,"o":"m 124 -17 l 124 624 l 265 624 l 265 -17 l 124 -17 m -28 735 l -28 875 l 114 875 l 114 735 l -28 735 m 276 735 l 276 875 l 417 875 l 417 735 l 276 735 z "},"Ј":{"ha":814,"x_min":83,"x_max":729,"o":"m 210 -17 l 210 108 l 83 108 l 83 375 l 224 375 l 224 122 l 588 122 l 588 736 l 210 736 l 210 876 l 601 876 l 601 750 l 729 750 l 729 108 l 601 108 l 601 -17 l 210 -17 z "},"Ћ":{"ha":813,"x_min":-56,"x_max":729,"o":"m 83 -17 l 83 733 l -56 733 l -56 874 l 364 874 l 364 733 l 224 733 l 224 499 l 335 499 l 335 625 l 601 625 l 601 499 l 729 499 l 729 -17 l 588 -17 l 588 486 l 349 486 l 349 361 l 224 361 l 224 -17 l 83 -17 z "},"Ю":{"ha":1181,"x_min":83,"x_max":1096,"o":"m 83 -17 l 83 876 l 224 876 l 224 499 l 450 499 l 450 750 l 576 750 l 576 876 l 969 876 l 969 750 l 1096 750 l 1096 108 l 969 108 l 969 -17 l 576 -17 l 576 108 l 450 108 l 450 361 l 224 361 l 224 -17 l 83 -17 m 590 122 l 956 122 l 956 736 l 590 736 l 590 122 z "},"Я":{"ha":814,"x_min":83,"x_max":729,"o":"m 146 -17 l 146 122 l 272 122 l 272 235 l 210 235 l 210 361 l 83 361 l 83 750 l 210 750 l 210 876 l 601 876 l 601 750 l 729 750 l 729 -17 l 588 -17 l 588 235 l 413 235 l 413 108 l 286 108 l 286 -17 l 146 -17 m 224 375 l 588 375 l 588 736 l 224 736 l 224 375 z "},"Ђ":{"ha":813,"x_min":-56,"x_max":729,"o":"m 210 -17 l 210 108 l 83 108 l 83 736 l -56 736 l -56 876 l 364 876 l 364 736 l 224 736 l 224 625 l 601 625 l 601 499 l 729 499 l 729 108 l 601 108 l 601 -17 l 210 -17 m 224 122 l 588 122 l 588 486 l 224 486 l 224 122 z "},"а":{"ha":940,"x_min":83,"x_max":856,"o":"m 210 -17 l 210 108 l 83 108 l 83 425 l 588 425 l 588 486 l 83 486 l 83 625 l 601 625 l 601 499 l 729 499 l 729 122 l 856 122 l 856 -17 l 715 -17 l 715 108 l 601 108 l 601 -17 l 210 -17 m 224 122 l 588 122 l 588 285 l 224 285 l 224 122 z "},"б":{"ha":814,"x_min":83,"x_max":729,"o":"m 210 -17 l 210 108 l 83 108 l 83 750 l 210 750 l 210 876 l 601 876 l 601 750 l 729 750 l 729 611 l 588 611 l 588 736 l 224 736 l 224 499 l 601 499 l 601 375 l 729 375 l 729 108 l 601 108 l 601 -17 l 210 -17 m 224 122 l 588 122 l 588 361 l 224 361 l 224 122 z "},"в":{"ha":814,"x_min":83,"x_max":729,"o":"m 210 -17 l 210 108 l 83 108 l 83 499 l 210 499 l 210 625 l 601 625 l 601 499 l 729 499 l 729 358 l 601 358 l 601 247 l 729 247 l 729 108 l 601 108 l 601 -17 l 210 -17 m 224 122 l 588 122 l 588 233 l 335 233 l 335 372 l 588 372 l 588 486 l 224 486 l 224 122 z "},"г":{"ha":686,"x_min":83,"x_max":601,"o":"m 83 -17 l 83 625 l 601 625 l 601 486 l 224 486 l 224 -17 l 83 -17 z "},"ѓ":{"ha":814,"x_min":83,"x_max":729,"o":"m 83 -17 l 83 499 l 210 499 l 210 625 l 601 625 l 601 499 l 729 499 l 729 361 l 588 361 l 588 486 l 224 486 l 224 -17 l 83 -17 m 307 750 l 307 826 l 368 826 l 368 890 l 431 890 l 431 953 l 507 953 l 507 876 l 444 876 l 444 813 l 382 813 l 382 750 l 307 750 z "},"ґ":{"ha":814,"x_min":83,"x_max":729,"o":"m 335 -17 l 335 486 l 210 486 l 210 611 l 83 611 l 83 876 l 224 876 l 224 625 l 349 625 l 349 499 l 463 499 l 463 625 l 588 625 l 588 876 l 729 876 l 729 611 l 601 611 l 601 486 l 476 486 l 476 -17 l 335 -17 z "},"д":{"ha":939,"x_min":83,"x_max":854,"o":"m 83 -17 l 83 376 l 208 376 l 208 625 l 854 625 l 854 -17 l 714 -17 l 714 110 l 224 110 l 224 -17 l 83 -17 m 349 250 l 714 250 l 714 486 l 349 486 l 349 250 z "},"е":{"ha":814,"x_min":83,"x_max":729,"o":"m 210 -17 l 210 108 l 83 108 l 83 499 l 210 499 l 210 625 l 601 625 l 601 499 l 729 499 l 729 361 l 588 361 l 588 486 l 224 486 l 224 375 l 476 375 l 476 235 l 224 235 l 224 122 l 588 122 l 588 250 l 729 250 l 729 110 l 601 110 l 601 -17 l 210 -17 z "},"ё":{"ha":814,"x_min":83,"x_max":729,"o":"m 210 -17 l 210 108 l 83 108 l 83 499 l 210 499 l 210 625 l 601 625 l 601 499 l 729 499 l 729 361 l 588 361 l 588 486 l 224 486 l 224 375 l 476 375 l 476 235 l 224 235 l 224 122 l 588 122 l 588 250 l 729 250 l 729 110 l 601 110 l 601 -17 l 210 -17 m 186 767 l 186 907 l 328 907 l 328 767 l 186 767 m 482 767 l 482 907 l 622 907 l 622 767 l 482 767 z "},"ж":{"ha":1056,"x_min":83,"x_max":972,"o":"m 83 -17 l 83 79 l 165 79 l 165 163 l 250 163 l 250 236 l 331 236 l 331 374 l 249 374 l 249 456 l 164 456 l 164 538 l 83 538 l 83 625 l 178 625 l 178 551 l 263 551 l 263 469 l 344 469 l 344 386 l 457 386 l 457 625 l 597 625 l 597 386 l 710 386 l 710 469 l 792 469 l 792 551 l 876 551 l 876 625 l 972 625 l 972 538 l 890 538 l 890 456 l 806 456 l 806 374 l 724 374 l 724 236 l 804 236 l 804 163 l 889 163 l 889 79 l 972 79 l 972 -17 l 875 -17 l 875 65 l 790 65 l 790 149 l 710 149 l 710 222 l 597 222 l 597 -17 l 457 -17 l 457 222 l 344 222 l 344 149 l 264 149 l 264 65 l 179 65 l 179 -17 l 83 -17 z "},"з":{"ha":814,"x_min":83,"x_max":729,"o":"m 210 -17 l 210 110 l 83 110 l 83 250 l 224 250 l 224 122 l 588 122 l 588 235 l 335 235 l 335 375 l 588 375 l 588 486 l 224 486 l 224 361 l 83 361 l 83 499 l 210 499 l 210 625 l 601 625 l 601 499 l 729 499 l 729 108 l 601 108 l 601 -17 l 210 -17 z "},"и":{"ha":772,"x_min":83,"x_max":729,"o":"m 83 -17 l 83 625 l 224 625 l 224 249 l 335 249 l 335 375 l 463 375 l 463 499 l 588 499 l 588 625 l 729 625 l 729 -17 l 588 -17 l 588 361 l 476 361 l 476 235 l 349 235 l 349 108 l 224 108 l 224 -17 l 83 -17 z "},"й":{"ha":814,"x_min":83,"x_max":729,"o":"m 83 -17 l 83 626 l 224 626 l 224 249 l 335 249 l 335 376 l 463 376 l 463 500 l 588 500 l 588 626 l 729 626 l 729 -17 l 588 -17 l 588 363 l 476 363 l 476 235 l 349 235 l 349 108 l 224 108 l 224 -17 l 83 -17 m 249 710 l 249 850 l 325 850 l 325 788 l 497 788 l 497 850 l 572 850 l 572 710 l 249 710 z "},"к":{"ha":814,"x_min":83,"x_max":729,"o":"m 83 -17 l 83 625 l 224 625 l 224 375 l 335 375 l 335 499 l 588 499 l 588 625 l 729 625 l 729 486 l 601 486 l 601 361 l 349 361 l 349 249 l 601 249 l 601 122 l 729 122 l 729 -17 l 588 -17 l 588 108 l 335 108 l 335 235 l 224 235 l 224 -17 l 83 -17 z "},"ќ":{"ha":814,"x_min":83,"x_max":729,"o":"m 83 -17 l 83 625 l 224 625 l 224 375 l 335 375 l 335 499 l 588 499 l 588 625 l 729 625 l 729 486 l 601 486 l 601 361 l 349 361 l 349 249 l 601 249 l 601 122 l 729 122 l 729 -17 l 588 -17 l 588 108 l 335 108 l 335 235 l 224 235 l 224 -17 l 83 -17 m 307 750 l 307 826 l 368 826 l 368 890 l 431 890 l 431 953 l 507 953 l 507 876 l 444 876 l 444 813 l 382 813 l 382 750 l 307 750 z "},"л":{"ha":939,"x_min":83,"x_max":854,"o":"m 83 -17 l 83 124 l 208 124 l 208 624 l 854 624 l 854 -17 l 714 -17 l 714 485 l 349 485 l 349 -17 l 83 -17 z "},"м":{"ha":1065,"x_min":83,"x_max":981,"o":"m 83 -17 l 83 499 l 210 499 l 210 625 l 349 625 l 349 499 l 476 499 l 476 249 l 588 249 l 588 499 l 715 499 l 715 625 l 856 625 l 856 499 l 981 499 l 981 -17 l 842 -17 l 842 486 l 729 486 l 729 235 l 601 235 l 601 108 l 463 108 l 463 235 l 335 235 l 335 486 l 224 486 l 224 -17 l 83 -17 z "},"н":{"ha":814,"x_min":83,"x_max":729,"o":"m 83 -17 l 83 626 l 224 626 l 224 360 l 588 360 l 588 626 l 729 626 l 729 -17 l 588 -17 l 588 221 l 224 221 l 224 -17 l 83 -17 z "},"о":{"ha":814,"x_min":83,"x_max":729,"o":"m 210 -17 l 210 108 l 83 108 l 83 499 l 210 499 l 210 625 l 601 625 l 601 499 l 729 499 l 729 108 l 601 108 l 601 -17 l 210 -17 m 224 122 l 588 122 l 588 486 l 224 486 l 224 122 z "},"п":{"ha":814,"x_min":83,"x_max":729,"o":"m 83 -17 l 83 625 l 729 625 l 729 -17 l 588 -17 l 588 486 l 224 486 l 224 -17 l 83 -17 z "},"р":{"ha":814,"x_min":83,"x_max":729,"o":"m 83 -261 l 83 499 l 210 499 l 210 625 l 601 625 l 601 499 l 729 499 l 729 108 l 601 108 l 601 -17 l 224 -17 l 224 -261 l 83 -261 m 224 122 l 588 122 l 588 486 l 224 486 l 224 122 z "},"с":{"ha":814,"x_min":83,"x_max":729,"o":"m 210 -17 l 210 108 l 83 108 l 83 499 l 210 499 l 210 625 l 601 625 l 601 499 l 729 499 l 729 361 l 588 361 l 588 486 l 224 486 l 224 122 l 588 122 l 588 249 l 729 249 l 729 108 l 601 108 l 601 -17 l 210 -17 z "},"т":{"ha":814,"x_min":83,"x_max":729,"o":"m 335 -17 l 335 488 l 224 488 l 224 363 l 83 363 l 83 500 l 210 500 l 210 626 l 601 626 l 601 500 l 729 500 l 729 363 l 588 363 l 588 488 l 476 488 l 476 -17 l 335 -17 z "},"у":{"ha":814,"x_min":83,"x_max":729,"o":"m 210 -268 l 210 -143 l 83 -143 l 83 -4 l 224 -4 l 224 -129 l 589 -129 l 589 108 l 210 108 l 210 235 l 83 235 l 83 625 l 224 625 l 224 249 l 589 249 l 589 625 l 729 625 l 729 -143 l 603 -143 l 603 -268 l 210 -268 z "},"ў":{"ha":814,"x_min":83,"x_max":729,"o":"m 210 -268 l 210 -143 l 83 -143 l 83 -4 l 224 -4 l 224 -129 l 589 -129 l 589 108 l 210 108 l 210 235 l 83 235 l 83 625 l 224 625 l 224 249 l 589 249 l 589 625 l 729 625 l 729 -143 l 603 -143 l 603 -268 l 210 -268 m 235 750 l 235 890 l 311 890 l 311 826 l 511 826 l 511 890 l 586 890 l 586 750 l 235 750 z "},"ф":{"ha":700,"x_min":42,"x_max":615,"o":"m 254 -17 l 254 143 l 154 143 l 154 254 l 42 254 l 42 600 l 154 600 l 154 713 l 254 713 l 254 876 l 394 876 l 394 713 l 503 713 l 503 600 l 615 600 l 615 254 l 503 254 l 503 143 l 394 143 l 394 -17 l 254 -17 m 168 268 l 254 268 l 254 588 l 168 588 l 168 268 m 394 268 l 489 268 l 489 588 l 394 588 l 394 268 z "},"х":{"ha":814,"x_min":83,"x_max":729,"o":"m 83 -17 l 83 122 l 210 122 l 210 249 l 335 249 l 335 361 l 210 361 l 210 486 l 83 486 l 83 625 l 224 625 l 224 499 l 349 499 l 349 375 l 463 375 l 463 499 l 588 499 l 588 625 l 729 625 l 729 486 l 601 486 l 601 361 l 476 361 l 476 249 l 601 249 l 601 122 l 729 122 l 729 -17 l 588 -17 l 588 108 l 463 108 l 463 235 l 349 235 l 349 108 l 224 108 l 224 -17 l 83 -17 z "},"ч":{"ha":814,"x_min":83,"x_max":729,"o":"m 589 -18 l 589 108 l 210 108 l 210 235 l 83 235 l 83 625 l 224 625 l 224 249 l 589 249 l 589 625 l 729 625 l 729 -18 l 589 -18 z "},"ц":{"ha":832,"x_min":83,"x_max":789,"o":"m 650 -142 l 650 -64 l 714 -64 l 714 -17 l 83 -17 l 83 625 l 224 625 l 224 124 l 588 124 l 588 625 l 729 625 l 729 -3 l 789 -3 l 789 -78 l 728 -78 l 728 -142 l 650 -142 z "},"ш":{"ha":1065,"x_min":83,"x_max":981,"o":"m 83 -17 l 83 625 l 224 625 l 224 122 l 463 122 l 463 625 l 601 625 l 601 122 l 842 122 l 842 625 l 981 625 l 981 -17 l 588 -17 l 588 108 l 476 108 l 476 -17 l 83 -17 z "},"щ":{"ha":1065,"x_min":83,"x_max":1043,"o":"m 904 -142 l 904 -64 l 968 -64 l 968 -17 l 588 -17 l 588 108 l 476 108 l 476 -17 l 83 -17 l 83 625 l 224 625 l 224 122 l 463 122 l 463 625 l 601 625 l 601 122 l 842 122 l 842 625 l 981 625 l 981 -3 l 1043 -3 l 1043 -78 l 981 -78 l 981 -142 l 904 -142 z "},"џ":{"ha":814,"x_min":83,"x_max":729,"o":"m 333 -143 l 333 -17 l 83 -17 l 83 624 l 224 624 l 224 124 l 588 124 l 588 624 l 729 624 l 729 -17 l 474 -17 l 474 -143 l 333 -143 z "},"ь":{"ha":813,"x_min":0,"x_max":646,"o":"m 126 -17 l 126 108 l 0 108 l 0 876 l 140 876 l 140 625 l 518 625 l 518 499 l 646 499 l 646 108 l 518 108 l 518 -17 l 126 -17 m 140 122 l 504 122 l 504 486 l 140 486 l 140 122 z "},"ы":{"ha":1065,"x_min":83,"x_max":981,"o":"m 210 -17 l 210 108 l 83 108 l 83 876 l 224 876 l 224 625 l 601 625 l 601 499 l 729 499 l 729 108 l 601 108 l 601 -17 l 210 -17 m 224 122 l 588 122 l 588 486 l 224 486 l 224 122 m 840 -17 l 840 876 l 981 876 l 981 -17 l 840 -17 z "},"ъ":{"ha":813,"x_min":0,"x_max":729,"o":"m 210 -17 l 210 108 l 83 108 l 83 736 l 0 736 l 0 876 l 224 876 l 224 625 l 601 625 l 601 499 l 729 499 l 729 108 l 601 108 l 601 -17 l 210 -17 m 224 122 l 588 122 l 588 486 l 224 486 l 224 122 z "},"љ":{"ha":1304,"x_min":83,"x_max":1219,"o":"m 83 -17 l 83 124 l 208 124 l 208 624 l 715 624 l 715 497 l 1093 497 l 1093 372 l 1219 372 l 1219 108 l 1093 108 l 1093 -17 l 574 -17 l 574 485 l 349 485 l 349 -17 l 83 -17 m 715 122 l 1079 122 l 1079 358 l 715 358 l 715 122 z "},"њ":{"ha":1181,"x_min":83,"x_max":1096,"o":"m 83 -17 l 83 626 l 224 626 l 224 360 l 450 360 l 450 626 l 590 626 l 590 497 l 969 497 l 969 372 l 1096 372 l 1096 108 l 969 108 l 969 -17 l 450 -17 l 450 221 l 224 221 l 224 -17 l 83 -17 m 590 122 l 956 122 l 956 358 l 590 358 l 590 122 z "},"ѕ":{"ha":814,"x_min":83,"x_max":729,"o":"m 83 -17 l 83 122 l 588 122 l 588 235 l 210 235 l 210 361 l 83 361 l 83 499 l 210 499 l 210 625 l 729 625 l 729 486 l 224 486 l 224 375 l 601 375 l 601 249 l 729 249 l 729 108 l 601 108 l 601 -17 l 83 -17 z "},"є":{"ha":814,"x_min":83,"x_max":729,"o":"m 210 -17 l 210 108 l 83 108 l 83 499 l 210 499 l 210 625 l 601 625 l 601 499 l 729 499 l 729 361 l 588 361 l 588 486 l 224 486 l 224 375 l 476 375 l 476 235 l 224 235 l 224 122 l 588 122 l 588 250 l 729 250 l 729 110 l 601 110 l 601 -17 l 210 -17 z "},"э":{"ha":814,"x_min":83,"x_max":729,"o":"m 210 -17 l 210 110 l 83 110 l 83 250 l 224 250 l 224 122 l 588 122 l 588 235 l 335 235 l 335 375 l 588 375 l 588 486 l 224 486 l 224 361 l 83 361 l 83 499 l 210 499 l 210 625 l 601 625 l 601 499 l 729 499 l 729 108 l 601 108 l 601 -17 l 210 -17 z "},"і":{"ha":308,"x_min":83,"x_max":224,"o":"m 83 -17 l 83 625 l 224 625 l 224 -17 l 83 -17 m 83 736 l 83 876 l 224 876 l 224 736 l 83 736 z "},"ї":{"ha":472,"x_min":14,"x_max":458,"o":"m 165 -17 l 165 375 l 307 375 l 307 -17 l 165 -17 m 14 486 l 14 625 l 154 625 l 154 486 l 14 486 m 318 486 l 318 625 l 458 625 l 458 486 l 318 486 z "},"ј":{"ha":688,"x_min":83,"x_max":603,"o":"m 210 -18 l 210 108 l 83 108 l 83 249 l 224 249 l 224 122 l 463 122 l 463 625 l 603 625 l 603 108 l 476 108 l 476 -18 l 210 -18 z "},"ћ":{"ha":814,"x_min":83,"x_max":729,"o":"m 83 -17 l 83 874 l 364 874 l 364 733 l 224 733 l 224 499 l 335 499 l 335 625 l 601 625 l 601 499 l 729 499 l 729 -17 l 588 -17 l 588 486 l 349 486 l 349 361 l 224 361 l 224 -17 l 83 -17 z "},"ю":{"ha":1179,"x_min":83,"x_max":1094,"o":"m 83 -17 l 83 626 l 224 626 l 224 360 l 449 360 l 449 499 l 575 499 l 575 625 l 968 625 l 968 499 l 1094 499 l 1094 108 l 968 108 l 968 -17 l 575 -17 l 575 108 l 449 108 l 449 221 l 224 221 l 224 -17 l 83 -17 m 589 122 l 954 122 l 954 486 l 589 486 l 589 122 z "},"я":{"ha":814,"x_min":83,"x_max":729,"o":"m 146 -17 l 146 122 l 272 122 l 272 236 l 210 236 l 210 363 l 83 363 l 83 499 l 210 499 l 210 625 l 601 625 l 601 499 l 729 499 l 729 -17 l 588 -17 l 588 236 l 413 236 l 413 108 l 286 108 l 286 -17 l 146 -17 m 224 376 l 588 376 l 588 486 l 224 486 l 224 376 z "},"ђ":{"ha":854,"x_min":83,"x_max":769,"o":"m 376 -343 l 376 -217 l 250 -217 l 250 -76 l 390 -76 l 390 -203 l 629 -203 l 629 486 l 390 486 l 390 361 l 265 361 l 265 -17 l 124 -17 l 124 692 l 83 692 l 83 831 l 124 831 l 124 876 l 265 876 l 265 831 l 406 831 l 406 692 l 265 692 l 265 499 l 376 499 l 376 625 l 643 625 l 643 499 l 769 499 l 769 -217 l 643 -217 l 643 -343 l 376 -343 z "},"Α":{"ha":814,"x_min":83,"x_max":729,"o":"m 83 -17 l 83 625 l 210 625 l 210 750 l 335 750 l 335 876 l 476 876 l 476 750 l 601 750 l 601 625 l 729 625 l 729 -17 l 588 -17 l 588 235 l 224 235 l 224 -17 l 83 -17 m 224 375 l 588 375 l 588 611 l 463 611 l 463 736 l 349 736 l 349 611 l 224 611 l 224 375 z "},"Β":{"ha":814,"x_min":83,"x_max":729,"o":"m 210 -17 l 210 108 l 83 108 l 83 750 l 210 750 l 210 876 l 601 876 l 601 750 l 729 750 l 729 486 l 601 486 l 601 375 l 729 375 l 729 108 l 601 108 l 601 -17 l 210 -17 m 224 122 l 588 122 l 588 361 l 335 361 l 335 499 l 588 499 l 588 736 l 224 736 l 224 122 z "},"Γ":{"ha":686,"x_min":83,"x_max":601,"o":"m 83 -17 l 83 876 l 601 876 l 601 736 l 224 736 l 224 -17 l 83 -17 z "},"Ε":{"ha":814,"x_min":83,"x_max":729,"o":"m 210 -17 l 210 108 l 83 108 l 83 750 l 210 750 l 210 876 l 601 876 l 601 750 l 729 750 l 729 611 l 588 611 l 588 736 l 224 736 l 224 499 l 476 499 l 476 361 l 224 361 l 224 122 l 588 122 l 588 249 l 729 249 l 729 108 l 601 108 l 601 -17 l 210 -17 z "},"Ζ":{"ha":814,"x_min":83,"x_max":729,"o":"m 210 -17 l 210 108 l 83 108 l 83 375 l 210 375 l 210 499 l 588 499 l 588 736 l 224 736 l 224 611 l 83 611 l 83 876 l 601 876 l 601 750 l 729 750 l 729 486 l 601 486 l 601 361 l 224 361 l 224 122 l 588 122 l 588 249 l 729 249 l 729 -17 l 210 -17 z "},"Η":{"ha":814,"x_min":83,"x_max":729,"o":"m 83 -17 l 83 876 l 224 876 l 224 499 l 335 499 l 335 625 l 476 625 l 476 499 l 588 499 l 588 876 l 729 876 l 729 -17 l 588 -17 l 588 361 l 224 361 l 224 -17 l 83 -17 z "},"Θ":{"ha":814,"x_min":83,"x_max":729,"o":"m 210 -17 l 210 108 l 83 108 l 83 750 l 210 750 l 210 876 l 601 876 l 601 750 l 729 750 l 729 108 l 601 108 l 601 -17 l 210 -17 m 224 122 l 588 122 l 588 736 l 224 736 l 224 122 m 310 374 l 310 464 l 503 464 l 503 374 l 310 374 z "},"Ι":{"ha":561,"x_min":83,"x_max":476,"o":"m 83 -17 l 83 122 l 210 122 l 210 736 l 83 736 l 83 876 l 476 876 l 476 736 l 349 736 l 349 122 l 476 122 l 476 -17 l 83 -17 z "},"Κ":{"ha":814,"x_min":83,"x_max":729,"o":"m 83 -17 l 83 750 l 210 750 l 210 876 l 349 876 l 349 736 l 224 736 l 224 499 l 335 499 l 335 625 l 463 625 l 463 750 l 588 750 l 588 876 l 729 876 l 729 736 l 601 736 l 601 611 l 476 611 l 476 486 l 349 486 l 349 375 l 476 375 l 476 249 l 601 249 l 601 122 l 729 122 l 729 -17 l 588 -17 l 588 108 l 463 108 l 463 235 l 335 235 l 335 361 l 224 361 l 224 -17 l 83 -17 z "},"Λ":{"ha":814,"x_min":83,"x_max":729,"o":"m 83 -17 l 83 499 l 210 499 l 210 751 l 335 751 l 335 876 l 476 876 l 476 751 l 601 751 l 601 499 l 729 499 l 729 -17 l 588 -17 l 588 486 l 463 486 l 463 738 l 349 738 l 349 486 l 224 486 l 224 -17 l 83 -17 z "},"Μ":{"ha":1065,"x_min":83,"x_max":981,"o":"m 83 -17 l 83 750 l 210 750 l 210 876 l 349 876 l 349 750 l 476 750 l 476 499 l 588 499 l 588 750 l 715 750 l 715 876 l 856 876 l 856 750 l 981 750 l 981 -17 l 842 -17 l 842 736 l 729 736 l 729 486 l 601 486 l 601 108 l 463 108 l 463 486 l 335 486 l 335 736 l 224 736 l 224 -17 l 83 -17 z "},"μ":{"ha":1065,"x_min":83,"x_max":981,"o":"m 83 -17 l 83 750 l 210 750 l 210 876 l 349 876 l 349 750 l 476 750 l 476 499 l 588 499 l 588 750 l 715 750 l 715 876 l 856 876 l 856 750 l 981 750 l 981 -17 l 842 -17 l 842 736 l 729 736 l 729 486 l 601 486 l 601 108 l 463 108 l 463 486 l 335 486 l 335 736 l 224 736 l 224 -17 l 83 -17 z "},"Ν":{"ha":814,"x_min":83,"x_max":729,"o":"m 83 -17 l 83 876 l 224 876 l 224 750 l 349 750 l 349 625 l 476 625 l 476 249 l 588 249 l 588 876 l 729 876 l 729 -17 l 588 -17 l 588 108 l 463 108 l 463 235 l 335 235 l 335 611 l 224 611 l 224 -17 l 83 -17 z "},"Ξ":{"ha":560,"x_min":83,"x_max":475,"o":"m 83 736 l 83 876 l 475 876 l 475 736 l 83 736 m 83 -17 l 83 124 l 475 124 l 475 -17 l 83 -17 m 83 360 l 83 499 l 475 499 l 475 360 l 83 360 z "},"Ο":{"ha":814,"x_min":83,"x_max":729,"o":"m 210 -17 l 210 108 l 83 108 l 83 750 l 210 750 l 210 876 l 601 876 l 601 750 l 729 750 l 729 108 l 601 108 l 601 -17 l 210 -17 m 224 122 l 588 122 l 588 736 l 224 736 l 224 122 z "},"Π":{"ha":814,"x_min":83,"x_max":729,"o":"m 83 -17 l 83 874 l 729 874 l 729 -17 l 588 -17 l 588 733 l 224 733 l 224 -17 l 83 -17 z "},"Ρ":{"ha":814,"x_min":83,"x_max":729,"o":"m 83 -17 l 83 750 l 210 750 l 210 876 l 601 876 l 601 750 l 729 750 l 729 361 l 601 361 l 601 235 l 224 235 l 224 -17 l 83 -17 m 224 375 l 588 375 l 588 736 l 224 736 l 224 375 z "},"Σ":{"ha":1065,"x_min":83,"x_max":981,"o":"m 210 -18 l 210 108 l 83 108 l 83 247 l 210 247 l 210 374 l 463 374 l 463 485 l 210 485 l 210 610 l 83 610 l 83 750 l 210 750 l 210 875 l 981 875 l 981 736 l 224 736 l 224 624 l 476 624 l 476 497 l 856 497 l 856 360 l 476 360 l 476 233 l 224 233 l 224 122 l 981 122 l 981 -18 l 210 -18 z "},"Τ":{"ha":814,"x_min":83,"x_max":729,"o":"m 335 -17 l 335 736 l 224 736 l 224 611 l 83 611 l 83 750 l 210 750 l 210 876 l 601 876 l 601 750 l 729 750 l 729 611 l 588 611 l 588 736 l 476 736 l 476 -17 l 335 -17 z "},"Υ":{"ha":814,"x_min":83,"x_max":729,"o":"m 335 -17 l 335 486 l 210 486 l 210 611 l 83 611 l 83 876 l 224 876 l 224 625 l 349 625 l 349 499 l 463 499 l 463 625 l 588 625 l 588 876 l 729 876 l 729 611 l 601 611 l 601 486 l 476 486 l 476 -17 l 335 -17 z "},"Φ":{"ha":814,"x_min":83,"x_max":729,"o":"m 331 -15 l 331 94 l 210 94 l 210 219 l 83 219 l 83 610 l 210 610 l 210 736 l 331 736 l 331 878 l 472 878 l 472 736 l 601 736 l 601 610 l 729 610 l 729 219 l 601 219 l 601 94 l 472 94 l 472 -15 l 331 -15 m 344 108 l 458 108 l 458 219 l 344 219 l 344 108 m 224 233 l 331 233 l 331 597 l 224 597 l 224 233 m 472 233 l 588 233 l 588 597 l 472 597 l 472 233 m 344 610 l 458 610 l 458 722 l 344 722 l 344 610 z "},"Χ":{"ha":814,"x_min":83,"x_max":729,"o":"m 83 -17 l 83 122 l 210 122 l 210 375 l 335 375 l 335 486 l 210 486 l 210 736 l 83 736 l 83 876 l 224 876 l 224 750 l 349 750 l 349 499 l 463 499 l 463 750 l 588 750 l 588 876 l 729 876 l 729 736 l 601 736 l 601 486 l 476 486 l 476 375 l 601 375 l 601 122 l 729 122 l 729 -17 l 588 -17 l 588 108 l 463 108 l 463 361 l 349 361 l 349 108 l 224 108 l 224 -17 l 83 -17 z "},"Ψ":{"ha":814,"x_min":83,"x_max":729,"o":"m 331 -17 l 331 286 l 210 286 l 210 411 l 83 411 l 83 874 l 224 874 l 224 425 l 331 425 l 331 876 l 472 876 l 472 425 l 588 425 l 588 874 l 729 874 l 729 411 l 601 411 l 601 286 l 472 286 l 472 -17 l 331 -17 z "},"Ά":{"ha":814,"x_min":83,"x_max":729,"o":"m 83 -17 l 83 625 l 210 625 l 210 750 l 335 750 l 335 876 l 476 876 l 476 750 l 601 750 l 601 625 l 729 625 l 729 -17 l 588 -17 l 588 235 l 224 235 l 224 -17 l 83 -17 m 224 375 l 588 375 l 588 611 l 463 611 l 463 736 l 349 736 l 349 611 l 224 611 l 224 375 m 365 960 l 365 1032 l 494 1163 l 565 1163 l 565 1090 l 438 960 l 365 960 z "},"Έ":{"ha":814,"x_min":83,"x_max":729,"o":"m 210 -17 l 210 108 l 83 108 l 83 750 l 210 750 l 210 876 l 601 876 l 601 750 l 729 750 l 729 611 l 588 611 l 588 736 l 224 736 l 224 499 l 476 499 l 476 361 l 224 361 l 224 122 l 588 122 l 588 249 l 729 249 l 729 108 l 601 108 l 601 -17 l 210 -17 m 365 960 l 365 1032 l 494 1163 l 565 1163 l 565 1090 l 438 960 l 365 960 z "},"Ή":{"ha":814,"x_min":83,"x_max":729,"o":"m 83 -17 l 83 876 l 224 876 l 224 499 l 335 499 l 335 625 l 476 625 l 476 499 l 588 499 l 588 876 l 729 876 l 729 -17 l 588 -17 l 588 361 l 224 361 l 224 -17 l 83 -17 m 368 960 l 368 1100 l 444 1100 l 444 960 l 368 960 z "},"Ί":{"ha":561,"x_min":83,"x_max":476,"o":"m 83 -17 l 83 122 l 210 122 l 210 736 l 83 736 l 83 876 l 476 876 l 476 736 l 349 736 l 349 122 l 476 122 l 476 -17 l 83 -17 m 244 960 l 244 1100 l 321 1100 l 321 960 l 244 960 z "},"ί":{"ha":561,"x_min":83,"x_max":476,"o":"m 83 -17 l 83 122 l 210 122 l 210 736 l 83 736 l 83 876 l 476 876 l 476 736 l 349 736 l 349 122 l 476 122 l 476 -17 l 83 -17 m 244 960 l 244 1100 l 321 1100 l 321 960 l 244 960 z "},"Ό":{"ha":814,"x_min":83,"x_max":729,"o":"m 210 -17 l 210 108 l 83 108 l 83 750 l 210 750 l 210 876 l 601 876 l 601 750 l 729 750 l 729 108 l 601 108 l 601 -17 l 210 -17 m 224 122 l 588 122 l 588 736 l 224 736 l 224 122 m 368 960 l 368 1100 l 444 1100 l 444 960 l 368 960 z "},"Ύ":{"ha":814,"x_min":83,"x_max":729,"o":"m 335 -17 l 335 486 l 210 486 l 210 611 l 83 611 l 83 876 l 224 876 l 224 625 l 349 625 l 349 499 l 463 499 l 463 625 l 588 625 l 588 876 l 729 876 l 729 611 l 601 611 l 601 486 l 476 486 l 476 -17 l 335 -17 m 368 960 l 368 1100 l 444 1100 l 444 960 l 368 960 z "},"Ώ":{"ha":813,"x_min":0,"x_max":811,"o":"m 0 -18 l 0 122 l 83 122 l 83 750 l 210 750 l 210 875 l 601 875 l 601 750 l 729 750 l 729 122 l 811 122 l 811 -18 l 588 -18 l 588 736 l 224 736 l 224 -18 l 0 -18 m 365 960 l 365 1032 l 494 1163 l 565 1163 l 565 1090 l 438 960 l 365 960 z "},"Ϊ":{"ha":561,"x_min":65,"x_max":501,"o":"m 83 -17 l 83 122 l 210 122 l 210 736 l 83 736 l 83 876 l 476 876 l 476 736 l 349 736 l 349 122 l 476 122 l 476 -17 l 83 -17 m 65 976 l 65 1117 l 206 1117 l 206 976 l 65 976 m 360 976 l 360 1117 l 501 1117 l 501 976 l 360 976 z "},"ϊ":{"ha":561,"x_min":65,"x_max":501,"o":"m 83 -17 l 83 122 l 210 122 l 210 736 l 83 736 l 83 876 l 476 876 l 476 736 l 349 736 l 349 122 l 476 122 l 476 -17 l 83 -17 m 65 976 l 65 1117 l 206 1117 l 206 976 l 65 976 m 360 976 l 360 1117 l 501 1117 l 501 976 l 360 976 z "},"Ϋ":{"ha":814,"x_min":83,"x_max":729,"o":"m 335 -17 l 335 486 l 210 486 l 210 611 l 83 611 l 83 876 l 224 876 l 224 625 l 349 625 l 349 499 l 463 499 l 463 625 l 588 625 l 588 876 l 729 876 l 729 611 l 601 611 l 601 486 l 476 486 l 476 -17 l 335 -17 m 231 960 l 231 1100 l 307 1100 l 307 960 l 231 960 m 507 960 l 507 1100 l 582 1100 l 582 960 l 507 960 z "},"ϋ":{"ha":814,"x_min":83,"x_max":729,"o":"m 335 -17 l 335 486 l 210 486 l 210 611 l 83 611 l 83 876 l 224 876 l 224 625 l 349 625 l 349 499 l 463 499 l 463 625 l 588 625 l 588 876 l 729 876 l 729 611 l 601 611 l 601 486 l 476 486 l 476 -17 l 335 -17 m 231 960 l 231 1100 l 307 1100 l 307 960 l 231 960 m 507 960 l 507 1100 l 582 1100 l 582 960 l 507 960 z "},"α":{"ha":814,"x_min":83,"x_max":729,"o":"m 588 -110 l 588 -17 l 210 -17 l 210 108 l 83 108 l 83 499 l 210 499 l 210 625 l 601 625 l 601 499 l 729 499 l 729 -110 l 588 -110 m 224 122 l 588 122 l 588 486 l 224 486 l 224 122 z "},"β":{"ha":814,"x_min":83,"x_max":729,"o":"m 83 -268 l 83 876 l 601 876 l 601 750 l 729 750 l 729 486 l 601 486 l 601 375 l 729 375 l 729 108 l 601 108 l 601 -17 l 335 -17 l 335 122 l 588 122 l 588 361 l 335 361 l 335 499 l 588 499 l 588 736 l 224 736 l 224 -268 l 83 -268 z "},"γ":{"ha":800,"x_min":69,"x_max":715,"o":"m 322 -17 l 322 286 l 196 286 l 196 539 l 69 539 l 69 625 l 210 625 l 210 553 l 335 553 l 335 300 l 449 300 l 449 553 l 574 553 l 574 625 l 715 625 l 715 539 l 588 539 l 588 286 l 463 286 l 463 -17 l 322 -17 z "},"δ":{"ha":814,"x_min":83,"x_max":729,"o":"m 210 -17 l 210 108 l 83 108 l 83 499 l 210 499 l 210 625 l 331 625 l 331 750 l 458 750 l 458 876 l 597 876 l 597 736 l 472 736 l 472 625 l 601 625 l 601 499 l 729 499 l 729 108 l 601 108 l 601 -17 l 210 -17 m 224 122 l 588 122 l 588 486 l 224 486 l 224 122 z "},"ε":{"ha":814,"x_min":83,"x_max":729,"o":"m 210 -17 l 210 108 l 83 108 l 83 499 l 210 499 l 210 625 l 601 625 l 601 499 l 729 499 l 729 361 l 588 361 l 588 486 l 224 486 l 224 375 l 476 375 l 476 235 l 224 235 l 224 122 l 588 122 l 588 250 l 729 250 l 729 110 l 601 110 l 601 -17 l 210 -17 z "},"ζ":{"ha":814,"x_min":83,"x_max":729,"o":"m 461 -262 l 461 -125 l 588 -125 l 588 -17 l 210 -17 l 210 110 l 83 110 l 83 375 l 210 375 l 210 499 l 588 499 l 588 738 l 210 738 l 210 876 l 601 876 l 601 751 l 729 751 l 729 486 l 601 486 l 601 361 l 224 361 l 224 124 l 588 124 l 588 249 l 729 249 l 729 -262 l 461 -262 z "},"η":{"ha":814,"x_min":83,"x_max":729,"o":"m 588 -268 l 588 486 l 224 486 l 224 -17 l 83 -17 l 83 625 l 601 625 l 601 499 l 729 499 l 729 -268 l 588 -268 z "},"θ":{"ha":814,"x_min":83,"x_max":729,"o":"m 210 -17 l 210 108 l 83 108 l 83 499 l 210 499 l 210 625 l 601 625 l 601 499 l 729 499 l 729 108 l 601 108 l 601 -17 l 210 -17 m 224 122 l 588 122 l 588 486 l 224 486 l 224 122 m 313 251 l 313 339 l 500 339 l 500 251 l 313 251 z "},"ι":{"ha":308,"x_min":83,"x_max":224,"o":"m 83 -17 l 83 625 l 224 625 l 224 -17 l 83 -17 m 83 736 l 83 876 l 224 876 l 224 736 l 83 736 z "},"κ":{"ha":814,"x_min":83,"x_max":729,"o":"m 83 -17 l 83 876 l 224 876 l 224 375 l 335 375 l 335 499 l 588 499 l 588 625 l 729 625 l 729 486 l 601 486 l 601 361 l 349 361 l 349 249 l 601 249 l 601 122 l 729 122 l 729 -17 l 588 -17 l 588 108 l 335 108 l 335 235 l 224 235 l 224 -17 l 83 -17 z "},"λ":{"ha":814,"x_min":83,"x_max":729,"o":"m 83 -17 l 83 249 l 210 249 l 210 375 l 335 375 l 335 876 l 476 876 l 476 375 l 601 375 l 601 249 l 729 249 l 729 -17 l 588 -17 l 588 235 l 463 235 l 463 361 l 349 361 l 349 235 l 224 235 l 224 -17 l 83 -17 z "},"ν":{"ha":800,"x_min":69,"x_max":715,"o":"m 322 -17 l 322 108 l 196 108 l 196 361 l 69 361 l 69 625 l 210 625 l 210 375 l 335 375 l 335 122 l 449 122 l 449 375 l 574 375 l 574 625 l 715 625 l 715 361 l 588 361 l 588 108 l 463 108 l 463 -17 l 322 -17 z "},"ξ":{"ha":813,"x_min":0,"x_max":729,"o":"m 335 -265 l 335 -128 l 588 -128 l 588 -17 l 210 -17 l 210 108 l 83 108 l 83 375 l 210 375 l 210 486 l 83 486 l 83 736 l 0 736 l 0 875 l 601 875 l 601 750 l 729 750 l 729 611 l 588 611 l 588 736 l 224 736 l 224 499 l 601 499 l 601 361 l 224 361 l 224 122 l 588 122 l 588 249 l 729 249 l 729 -265 l 335 -265 z "},"ο":{"ha":814,"x_min":83,"x_max":729,"o":"m 210 -17 l 210 108 l 83 108 l 83 499 l 210 499 l 210 625 l 601 625 l 601 499 l 729 499 l 729 108 l 601 108 l 601 -17 l 210 -17 m 224 122 l 588 122 l 588 486 l 224 486 l 224 122 z "},"π":{"ha":1318,"x_min":83,"x_max":1233,"o":"m 335 -17 l 335 485 l 224 485 l 224 360 l 83 360 l 83 497 l 210 497 l 210 624 l 601 624 l 601 497 l 715 497 l 715 624 l 1107 624 l 1107 497 l 1233 497 l 1233 360 l 1093 360 l 1093 485 l 981 485 l 981 -17 l 840 -17 l 840 485 l 729 485 l 729 360 l 588 360 l 588 485 l 476 485 l 476 -17 l 335 -17 z "},"ρ":{"ha":814,"x_min":83,"x_max":729,"o":"m 83 -261 l 83 499 l 210 499 l 210 625 l 601 625 l 601 499 l 729 499 l 729 108 l 601 108 l 601 -17 l 224 -17 l 224 -261 l 83 -261 m 224 122 l 588 122 l 588 486 l 224 486 l 224 122 z "},"σ":{"ha":813,"x_min":83,"x_max":810,"o":"m 210 -17 l 210 108 l 83 108 l 83 499 l 210 499 l 210 625 l 810 625 l 810 486 l 729 486 l 729 108 l 601 108 l 601 -17 l 210 -17 m 224 122 l 588 122 l 588 486 l 224 486 l 224 122 z "},"τ":{"ha":814,"x_min":83,"x_max":729,"o":"m 335 -17 l 335 486 l 224 486 l 224 361 l 83 361 l 83 499 l 210 499 l 210 625 l 601 625 l 601 499 l 729 499 l 729 361 l 588 361 l 588 486 l 476 486 l 476 -17 l 335 -17 z "},"υ":{"ha":814,"x_min":83,"x_max":729,"o":"m 210 -17 l 210 108 l 83 108 l 83 625 l 224 625 l 224 122 l 588 122 l 588 625 l 729 625 l 729 108 l 601 108 l 601 -17 l 210 -17 m 365 713 l 365 786 l 494 917 l 565 917 l 565 843 l 438 713 l 365 713 z "},"φ":{"ha":814,"x_min":83,"x_max":729,"o":"m 331 -17 l 331 110 l 210 110 l 210 235 l 83 235 l 83 625 l 210 625 l 210 751 l 331 751 l 331 876 l 472 876 l 472 751 l 601 751 l 601 625 l 729 625 l 729 235 l 601 235 l 601 110 l 472 110 l 472 -17 l 331 -17 m 224 249 l 331 249 l 331 611 l 224 611 l 224 249 m 472 249 l 588 249 l 588 611 l 472 611 l 472 249 z "},"χ":{"ha":814,"x_min":83,"x_max":729,"o":"m 83 -17 l 83 122 l 210 122 l 210 249 l 335 249 l 335 361 l 210 361 l 210 486 l 83 486 l 83 625 l 224 625 l 224 499 l 349 499 l 349 375 l 463 375 l 463 499 l 588 499 l 588 625 l 729 625 l 729 486 l 601 486 l 601 361 l 476 361 l 476 249 l 601 249 l 601 122 l 729 122 l 729 -17 l 588 -17 l 588 108 l 463 108 l 463 235 l 349 235 l 349 108 l 224 108 l 224 -17 l 83 -17 z "},"ψ":{"ha":814,"x_min":83,"x_max":729,"o":"m 331 -17 l 331 108 l 210 108 l 210 233 l 83 233 l 83 750 l 224 750 l 224 247 l 331 247 l 331 876 l 472 876 l 472 247 l 588 247 l 588 750 l 729 750 l 729 233 l 601 233 l 601 108 l 472 108 l 472 -17 l 331 -17 z "},"ω":{"ha":1065,"x_min":83,"x_max":981,"o":"m 83 -17 l 83 625 l 224 625 l 224 122 l 463 122 l 463 625 l 601 625 l 601 122 l 842 122 l 842 625 l 981 625 l 981 108 l 856 108 l 856 -17 l 588 -17 l 588 108 l 476 108 l 476 -17 l 83 -17 z "},"ύ":{"ha":814,"x_min":83,"x_max":729,"o":"m 210 -17 l 210 108 l 83 108 l 83 625 l 224 625 l 224 122 l 588 122 l 588 625 l 729 625 l 729 108 l 601 108 l 601 -17 l 210 -17 m 368 733 l 368 874 l 444 874 l 444 733 l 368 733 z "},"ό":{"ha":814,"x_min":83,"x_max":729,"o":"m 210 -17 l 210 108 l 83 108 l 83 499 l 210 499 l 210 625 l 601 625 l 601 499 l 729 499 l 729 108 l 601 108 l 601 -17 l 210 -17 m 224 122 l 588 122 l 588 486 l 224 486 l 224 122 m 368 733 l 368 874 l 444 874 l 444 733 l 368 733 z "},"ώ":{"ha":1065,"x_min":83,"x_max":981,"o":"m 83 -17 l 83 625 l 224 625 l 224 122 l 463 122 l 463 625 l 601 625 l 601 122 l 842 122 l 842 625 l 981 625 l 981 108 l 856 108 l 856 -17 l 588 -17 l 588 108 l 476 108 l 476 -17 l 83 -17 m 493 733 l 493 874 l 568 874 l 568 733 l 493 733 z "},"ά":{"ha":814,"x_min":83,"x_max":729,"o":"m 588 -110 l 588 -17 l 210 -17 l 210 108 l 83 108 l 83 499 l 210 499 l 210 625 l 601 625 l 601 499 l 729 499 l 729 -110 l 588 -110 m 224 122 l 588 122 l 588 486 l 224 486 l 224 122 m 368 733 l 368 874 l 444 874 l 444 733 l 368 733 z "},"έ":{"ha":814,"x_min":83,"x_max":729,"o":"m 210 -17 l 210 108 l 83 108 l 83 499 l 210 499 l 210 625 l 601 625 l 601 499 l 729 499 l 729 361 l 588 361 l 588 486 l 224 486 l 224 375 l 476 375 l 476 235 l 224 235 l 224 122 l 588 122 l 588 250 l 729 250 l 729 110 l 601 110 l 601 -17 l 210 -17 m 368 733 l 368 874 l 444 874 l 444 733 l 368 733 z "},"ή":{"ha":814,"x_min":83,"x_max":729,"o":"m 588 -268 l 588 486 l 224 486 l 224 -17 l 83 -17 l 83 625 l 601 625 l 601 499 l 729 499 l 729 -268 l 588 -268 m 368 733 l 368 874 l 444 874 l 444 733 l 368 733 z "},"½":{"ha":1133,"x_min":83,"x_max":1050,"o":"m 232 -17 l 232 217 l 342 217 l 342 436 l 453 436 l 453 546 l 563 546 l 563 767 l 675 767 l 675 876 l 799 876 l 799 643 l 689 643 l 689 532 l 576 532 l 576 313 l 467 313 l 467 203 l 356 203 l 356 -17 l 232 -17 m 213 411 l 213 799 l 161 799 l 161 733 l 83 733 l 83 811 l 147 811 l 147 876 l 226 876 l 226 811 l 292 811 l 292 411 l 213 411 m 778 -18 l 778 46 l 713 46 l 713 258 l 778 258 l 778 324 l 972 324 l 972 439 l 792 439 l 792 374 l 713 374 l 713 451 l 778 451 l 778 517 l 986 517 l 986 451 l 1050 451 l 1050 310 l 986 310 l 986 244 l 792 244 l 792 60 l 972 60 l 972 194 l 1050 194 l 1050 46 l 986 46 l 986 -18 l 778 -18 z "},"⅓":{"ha":1224,"x_min":83,"x_max":1139,"o":"m 301 -17 l 301 217 l 411 217 l 411 436 l 522 436 l 522 546 l 632 546 l 632 767 l 744 767 l 744 876 l 868 876 l 868 643 l 758 643 l 758 532 l 646 532 l 646 313 l 536 313 l 536 203 l 425 203 l 425 -17 l 301 -17 m 213 411 l 213 799 l 161 799 l 161 733 l 83 733 l 83 811 l 147 811 l 147 876 l 226 876 l 226 811 l 292 811 l 292 411 l 213 411 m 867 -18 l 867 47 l 800 47 l 800 125 l 881 125 l 881 61 l 1058 61 l 1058 176 l 867 176 l 867 254 l 1058 254 l 1058 368 l 881 368 l 881 304 l 800 304 l 800 382 l 867 382 l 867 447 l 1072 447 l 1072 382 l 1139 382 l 1139 240 l 1072 240 l 1072 190 l 1139 190 l 1139 47 l 1072 47 l 1072 -18 l 867 -18 z "},"⅔":{"ha":1264,"x_min":83,"x_max":1181,"o":"m 369 -17 l 369 217 l 481 217 l 481 436 l 590 436 l 590 546 l 701 546 l 701 767 l 813 767 l 813 876 l 938 876 l 938 643 l 826 643 l 826 532 l 715 532 l 715 313 l 604 313 l 604 203 l 494 203 l 494 -17 l 369 -17 m 147 408 l 147 472 l 83 472 l 83 615 l 147 615 l 147 681 l 342 681 l 342 796 l 161 796 l 161 731 l 83 731 l 83 810 l 147 810 l 147 874 l 356 874 l 356 810 l 421 810 l 421 667 l 356 667 l 356 601 l 161 601 l 161 486 l 342 486 l 342 551 l 421 551 l 421 472 l 356 472 l 356 408 l 147 408 m 908 -18 l 908 47 l 842 47 l 842 125 l 922 125 l 922 61 l 1100 61 l 1100 176 l 908 176 l 908 254 l 1100 254 l 1100 368 l 922 368 l 922 304 l 842 304 l 842 382 l 908 382 l 908 447 l 1114 447 l 1114 382 l 1181 382 l 1181 240 l 1114 240 l 1114 190 l 1181 190 l 1181 47 l 1114 47 l 1114 -18 l 908 -18 z "},"¼":{"ha":1218,"x_min":83,"x_max":1133,"o":"m 301 -17 l 301 217 l 411 217 l 411 436 l 522 436 l 522 546 l 632 546 l 632 767 l 744 767 l 744 876 l 868 876 l 868 643 l 758 643 l 758 532 l 646 532 l 646 313 l 536 313 l 536 203 l 425 203 l 425 -17 l 301 -17 m 213 411 l 213 799 l 161 799 l 161 733 l 83 733 l 83 811 l 147 811 l 147 876 l 226 876 l 226 811 l 292 811 l 292 411 l 213 411 m 1054 -18 l 1054 111 l 794 111 l 794 254 l 860 254 l 860 318 l 925 318 l 925 382 l 989 382 l 989 447 l 1133 447 l 1133 -18 l 1054 -18 m 874 189 l 1054 189 l 1054 369 l 1003 369 l 1003 304 l 939 304 l 939 240 l 874 240 l 874 189 z "},"¾":{"ha":1328,"x_min":83,"x_max":1243,"o":"m 411 -17 l 411 217 l 522 217 l 522 436 l 632 436 l 632 546 l 743 546 l 743 767 l 854 767 l 854 876 l 979 876 l 979 643 l 868 643 l 868 532 l 757 532 l 757 313 l 646 313 l 646 203 l 536 203 l 536 -17 l 411 -17 m 149 411 l 149 476 l 83 476 l 83 554 l 163 554 l 163 490 l 340 490 l 340 606 l 149 606 l 149 683 l 340 683 l 340 797 l 163 797 l 163 733 l 83 733 l 83 811 l 149 811 l 149 876 l 354 876 l 354 811 l 421 811 l 421 669 l 354 669 l 354 619 l 421 619 l 421 476 l 354 476 l 354 411 l 149 411 m 1165 -18 l 1165 111 l 906 111 l 906 254 l 971 254 l 971 318 l 1035 318 l 1035 382 l 1100 382 l 1100 447 l 1243 447 l 1243 -18 l 1165 -18 m 983 189 l 1165 189 l 1165 369 l 1114 369 l 1114 304 l 1049 304 l 1049 240 l 983 240 l 983 189 z "},"⅛":{"ha":1211,"x_min":83,"x_max":1126,"o":"m 301 -17 l 301 217 l 411 217 l 411 436 l 522 436 l 522 546 l 632 546 l 632 767 l 744 767 l 744 876 l 868 876 l 868 643 l 758 643 l 758 532 l 646 532 l 646 313 l 536 313 l 536 203 l 425 203 l 425 -17 l 301 -17 m 213 411 l 213 799 l 161 799 l 161 733 l 83 733 l 83 811 l 147 811 l 147 876 l 226 876 l 226 811 l 292 811 l 292 411 l 213 411 m 851 -18 l 851 47 l 786 47 l 786 190 l 851 190 l 851 240 l 786 240 l 786 383 l 851 383 l 851 449 l 1060 449 l 1060 383 l 1126 383 l 1126 240 l 1060 240 l 1060 190 l 1126 190 l 1126 47 l 1060 47 l 1060 -18 l 851 -18 m 865 61 l 1046 61 l 1046 176 l 865 176 l 865 61 m 865 254 l 1046 254 l 1046 371 l 865 371 l 865 254 z "},"⅜":{"ha":1307,"x_min":83,"x_max":1222,"o":"m 397 -17 l 397 217 l 508 217 l 508 436 l 618 436 l 618 546 l 729 546 l 729 767 l 840 767 l 840 876 l 965 876 l 965 643 l 854 643 l 854 532 l 743 532 l 743 313 l 632 313 l 632 203 l 522 203 l 522 -17 l 397 -17 m 149 411 l 149 476 l 83 476 l 83 554 l 163 554 l 163 490 l 340 490 l 340 606 l 149 606 l 149 683 l 340 683 l 340 797 l 163 797 l 163 733 l 83 733 l 83 811 l 149 811 l 149 876 l 354 876 l 354 811 l 421 811 l 421 669 l 354 669 l 354 619 l 421 619 l 421 476 l 354 476 l 354 411 l 149 411 m 963 61 l 1143 61 l 1143 176 l 963 176 l 963 61 m 949 -18 l 949 47 l 883 47 l 883 190 l 949 190 l 949 240 l 883 240 l 883 383 l 949 383 l 949 449 l 1157 449 l 1157 383 l 1222 383 l 1222 240 l 1157 240 l 1157 190 l 1222 190 l 1222 47 l 1157 47 l 1157 -18 l 949 -18 m 963 254 l 1143 254 l 1143 371 l 963 371 l 963 254 z "},"⅝":{"ha":1349,"x_min":83,"x_max":1264,"o":"m 439 -17 l 439 217 l 549 217 l 549 436 l 660 436 l 660 546 l 769 546 l 769 767 l 882 767 l 882 876 l 1006 876 l 1006 643 l 896 643 l 896 532 l 783 532 l 783 313 l 674 313 l 674 203 l 563 203 l 563 -17 l 439 -17 m 147 410 l 147 475 l 83 475 l 83 553 l 161 553 l 161 489 l 342 489 l 342 539 l 213 539 l 213 604 l 147 604 l 147 668 l 83 668 l 83 811 l 147 811 l 147 876 l 356 876 l 356 811 l 422 811 l 422 668 l 342 668 l 342 799 l 161 799 l 161 682 l 226 682 l 226 618 l 356 618 l 356 553 l 422 553 l 422 475 l 356 475 l 356 410 l 147 410 m 1003 61 l 1185 61 l 1185 176 l 1003 176 l 1003 61 m 989 -18 l 989 47 l 925 47 l 925 190 l 989 190 l 989 240 l 925 240 l 925 383 l 989 383 l 989 449 l 1197 449 l 1197 383 l 1264 383 l 1264 240 l 1197 240 l 1197 190 l 1264 190 l 1264 47 l 1197 47 l 1197 -18 l 989 -18 m 1003 254 l 1185 254 l 1185 371 l 1003 371 l 1003 254 z "},"⅞":{"ha":1376,"x_min":83,"x_max":1292,"o":"m 467 -17 l 467 217 l 576 217 l 576 436 l 688 436 l 688 546 l 797 546 l 797 767 l 910 767 l 910 876 l 1033 876 l 1033 643 l 924 643 l 924 532 l 811 532 l 811 313 l 701 313 l 701 203 l 590 203 l 590 -17 l 467 -17 m 342 410 l 342 799 l 161 799 l 161 733 l 83 733 l 83 811 l 147 811 l 147 876 l 356 876 l 356 811 l 422 811 l 422 410 l 342 410 m 1017 -18 l 1017 47 l 953 47 l 953 190 l 1017 190 l 1017 240 l 953 240 l 953 383 l 1017 383 l 1017 449 l 1225 449 l 1225 383 l 1292 383 l 1292 240 l 1225 240 l 1225 190 l 1292 190 l 1292 47 l 1225 47 l 1225 -18 l 1017 -18 m 1031 61 l 1211 61 l 1211 176 l 1031 176 l 1031 61 m 1031 254 l 1211 254 l 1211 371 l 1031 371 l 1031 254 z "},"₀":{"ha":506,"x_min":83,"x_max":421,"o":"m 147 -18 l 147 47 l 83 47 l 83 382 l 147 382 l 147 447 l 356 447 l 356 382 l 421 382 l 421 47 l 356 47 l 356 -18 l 147 -18 m 161 61 l 342 61 l 342 369 l 161 369 l 161 61 z "},"₁":{"ha":376,"x_min":83,"x_max":292,"o":"m 213 -18 l 213 369 l 161 369 l 161 304 l 83 304 l 83 382 l 147 382 l 147 447 l 226 447 l 226 382 l 292 382 l 292 -18 l 213 -18 z "},"₂":{"ha":506,"x_min":83,"x_max":421,"o":"m 147 -18 l 147 46 l 83 46 l 83 189 l 147 189 l 147 254 l 342 254 l 342 369 l 161 369 l 161 304 l 83 304 l 83 382 l 147 382 l 147 447 l 356 447 l 356 382 l 421 382 l 421 240 l 356 240 l 356 175 l 161 175 l 161 60 l 342 60 l 342 125 l 421 125 l 421 46 l 356 46 l 356 -18 l 147 -18 z "},"₃":{"ha":506,"x_min":83,"x_max":421,"o":"m 149 -18 l 149 47 l 83 47 l 83 125 l 163 125 l 163 61 l 340 61 l 340 176 l 149 176 l 149 254 l 340 254 l 340 368 l 163 368 l 163 304 l 83 304 l 83 382 l 149 382 l 149 447 l 354 447 l 354 382 l 421 382 l 421 240 l 354 240 l 354 190 l 421 190 l 421 47 l 354 47 l 354 -18 l 149 -18 z "},"₄":{"ha":507,"x_min":83,"x_max":422,"o":"m 342 -18 l 342 111 l 83 111 l 83 254 l 147 254 l 147 319 l 213 319 l 213 383 l 279 383 l 279 449 l 422 449 l 422 -18 l 342 -18 m 161 190 l 342 190 l 342 371 l 293 371 l 293 306 l 226 306 l 226 240 l 161 240 l 161 190 z "},"₅":{"ha":507,"x_min":83,"x_max":422,"o":"m 147 -18 l 147 47 l 83 47 l 83 125 l 161 125 l 161 61 l 342 61 l 342 111 l 213 111 l 213 176 l 147 176 l 147 240 l 83 240 l 83 383 l 147 383 l 147 449 l 356 449 l 356 383 l 422 383 l 422 240 l 342 240 l 342 371 l 161 371 l 161 254 l 226 254 l 226 190 l 356 190 l 356 125 l 422 125 l 422 47 l 356 47 l 356 -18 l 147 -18 z "},"₆":{"ha":507,"x_min":83,"x_max":422,"o":"m 147 -18 l 147 47 l 83 47 l 83 383 l 147 383 l 147 449 l 356 449 l 356 383 l 422 383 l 422 306 l 342 306 l 342 371 l 161 371 l 161 254 l 356 254 l 356 190 l 422 190 l 422 47 l 356 47 l 356 -18 l 147 -18 m 161 61 l 342 61 l 342 176 l 161 176 l 161 61 z "},"₇":{"ha":507,"x_min":83,"x_max":422,"o":"m 342 -18 l 342 371 l 161 371 l 161 306 l 83 306 l 83 383 l 147 383 l 147 449 l 356 449 l 356 383 l 422 383 l 422 -18 l 342 -18 z "},"₈":{"ha":507,"x_min":83,"x_max":422,"o":"m 147 -18 l 147 47 l 83 47 l 83 190 l 147 190 l 147 240 l 83 240 l 83 383 l 147 383 l 147 449 l 356 449 l 356 383 l 422 383 l 422 240 l 356 240 l 356 190 l 422 190 l 422 47 l 356 47 l 356 -18 l 147 -18 m 161 61 l 342 61 l 342 176 l 161 176 l 161 61 m 161 254 l 342 254 l 342 371 l 161 371 l 161 254 z "},"₉":{"ha":507,"x_min":83,"x_max":422,"o":"m 147 -18 l 147 47 l 83 47 l 83 125 l 161 125 l 161 61 l 342 61 l 342 176 l 147 176 l 147 240 l 83 240 l 83 383 l 147 383 l 147 449 l 356 449 l 356 383 l 422 383 l 422 47 l 356 47 l 356 -18 l 147 -18 m 161 254 l 342 254 l 342 371 l 161 371 l 161 254 z "},"⁰":{"ha":506,"x_min":83,"x_max":421,"o":"m 147 411 l 147 476 l 83 476 l 83 811 l 147 811 l 147 876 l 356 876 l 356 811 l 421 811 l 421 476 l 356 476 l 356 411 l 147 411 m 161 490 l 342 490 l 342 799 l 161 799 l 161 490 z "},"¹":{"ha":376,"x_min":83,"x_max":292,"o":"m 213 411 l 213 799 l 161 799 l 161 733 l 83 733 l 83 811 l 147 811 l 147 876 l 226 876 l 226 811 l 292 811 l 292 411 l 213 411 z "},"²":{"ha":506,"x_min":83,"x_max":421,"o":"m 147 408 l 147 472 l 83 472 l 83 615 l 147 615 l 147 681 l 342 681 l 342 796 l 161 796 l 161 731 l 83 731 l 83 810 l 147 810 l 147 874 l 356 874 l 356 810 l 421 810 l 421 667 l 356 667 l 356 601 l 161 601 l 161 486 l 342 486 l 342 551 l 421 551 l 421 472 l 356 472 l 356 408 l 147 408 z "},"³":{"ha":506,"x_min":83,"x_max":421,"o":"m 149 411 l 149 476 l 83 476 l 83 554 l 163 554 l 163 490 l 340 490 l 340 606 l 149 606 l 149 683 l 340 683 l 340 797 l 163 797 l 163 733 l 83 733 l 83 811 l 149 811 l 149 876 l 354 876 l 354 811 l 421 811 l 421 669 l 354 669 l 354 619 l 421 619 l 421 476 l 354 476 l 354 411 l 149 411 z "},"⁴":{"ha":507,"x_min":83,"x_max":422,"o":"m 342 410 l 342 539 l 83 539 l 83 682 l 147 682 l 147 747 l 213 747 l 213 811 l 279 811 l 279 876 l 422 876 l 422 410 l 342 410 m 161 618 l 342 618 l 342 799 l 293 799 l 293 733 l 226 733 l 226 668 l 161 668 l 161 618 z "},"⁵":{"ha":507,"x_min":83,"x_max":422,"o":"m 147 410 l 147 475 l 83 475 l 83 553 l 161 553 l 161 489 l 342 489 l 342 539 l 213 539 l 213 604 l 147 604 l 147 668 l 83 668 l 83 811 l 147 811 l 147 876 l 356 876 l 356 811 l 422 811 l 422 668 l 342 668 l 342 799 l 161 799 l 161 682 l 226 682 l 226 618 l 356 618 l 356 553 l 422 553 l 422 475 l 356 475 l 356 410 l 147 410 z "},"⁶":{"ha":507,"x_min":83,"x_max":422,"o":"m 147 410 l 147 475 l 83 475 l 83 811 l 147 811 l 147 876 l 356 876 l 356 811 l 422 811 l 422 733 l 342 733 l 342 799 l 161 799 l 161 682 l 356 682 l 356 618 l 422 618 l 422 475 l 356 475 l 356 410 l 147 410 m 161 489 l 342 489 l 342 604 l 161 604 l 161 489 z "},"⁷":{"ha":507,"x_min":83,"x_max":422,"o":"m 342 410 l 342 799 l 161 799 l 161 733 l 83 733 l 83 811 l 147 811 l 147 876 l 356 876 l 356 811 l 422 811 l 422 410 l 342 410 z "},"⁸":{"ha":507,"x_min":83,"x_max":422,"o":"m 147 410 l 147 475 l 83 475 l 83 618 l 147 618 l 147 668 l 83 668 l 83 811 l 147 811 l 147 876 l 356 876 l 356 811 l 422 811 l 422 668 l 356 668 l 356 618 l 422 618 l 422 475 l 356 475 l 356 410 l 147 410 m 161 489 l 342 489 l 342 604 l 161 604 l 161 489 m 161 682 l 342 682 l 342 799 l 161 799 l 161 682 z "},"⁹":{"ha":507,"x_min":83,"x_max":422,"o":"m 147 410 l 147 475 l 83 475 l 83 553 l 161 553 l 161 489 l 342 489 l 342 604 l 147 604 l 147 668 l 83 668 l 83 811 l 147 811 l 147 876 l 356 876 l 356 811 l 422 811 l 422 475 l 356 475 l 356 410 l 147 410 m 161 682 l 342 682 l 342 799 l 161 799 l 161 682 z "}," ":{"ha":278,"x_min":0,"x_max":0,"o":""}," ":{"ha":278,"x_min":0,"x_max":0,"o":""},".":{"ha":308,"x_min":83,"x_max":224,"o":"m 83 0 l 83 140 l 224 140 l 224 0 l 83 0 z "},",":{"ha":371,"x_min":83,"x_max":286,"o":"m 146 -125 l 146 -47 l 210 -47 l 210 0 l 83 0 l 83 140 l 224 140 l 224 14 l 286 14 l 286 -61 l 224 -61 l 224 -125 l 146 -125 z "},":":{"ha":308,"x_min":83,"x_max":224,"o":"m 83 113 l 83 253 l 224 253 l 224 113 l 83 113 m 83 360 l 83 499 l 224 499 l 224 360 l 83 360 z "},";":{"ha":371,"x_min":83,"x_max":286,"o":"m 146 -12 l 146 64 l 210 64 l 210 113 l 83 113 l 83 253 l 224 253 l 224 126 l 286 126 l 286 51 l 224 51 l 224 -12 l 146 -12 m 83 360 l 83 499 l 224 499 l 224 360 l 83 360 z "},"…":{"ha":893,"x_min":83,"x_max":808,"o":"m 375 0 l 375 140 l 517 140 l 517 0 l 375 0 m 83 0 l 83 140 l 224 140 l 224 0 l 83 0 m 668 0 l 668 140 l 808 140 l 808 0 l 668 0 z "},"!":{"ha":308,"x_min":83,"x_max":224,"o":"m 83 235 l 83 876 l 224 876 l 224 235 l 83 235 m 83 -17 l 83 122 l 224 122 l 224 -17 l 83 -17 z "},"¡":{"ha":308,"x_min":83,"x_max":224,"o":"m 83 -17 l 83 625 l 224 625 l 224 -17 l 83 -17 m 83 738 l 83 876 l 224 876 l 224 738 l 83 738 z "},"?":{"ha":814,"x_min":83,"x_max":729,"o":"m 335 235 l 335 499 l 588 499 l 588 736 l 224 736 l 224 486 l 83 486 l 83 750 l 210 750 l 210 876 l 601 876 l 601 750 l 729 750 l 729 486 l 601 486 l 601 361 l 476 361 l 476 235 l 335 235 m 335 -17 l 335 122 l 476 122 l 476 -17 l 335 -17 z "},"¿":{"ha":814,"x_min":83,"x_max":729,"o":"m 210 -17 l 210 110 l 83 110 l 83 375 l 210 375 l 210 499 l 335 499 l 335 625 l 476 625 l 476 361 l 224 361 l 224 124 l 588 124 l 588 375 l 729 375 l 729 110 l 601 110 l 601 -17 l 210 -17 m 335 738 l 335 876 l 476 876 l 476 738 l 335 738 z "},"·":{"ha":308,"x_min":83,"x_max":224,"o":"m 83 369 l 83 508 l 224 508 l 224 369 l 83 369 z "},"•":{"ha":358,"x_min":83,"x_max":274,"o":"m 83 344 l 83 533 l 274 533 l 274 344 l 83 344 z "},"*":{"ha":371,"x_min":83,"x_max":286,"o":"m 83 611 l 83 689 l 146 689 l 146 736 l 83 736 l 83 813 l 146 813 l 146 876 l 224 876 l 224 813 l 286 813 l 286 736 l 224 736 l 224 689 l 286 689 l 286 611 l 210 611 l 210 675 l 160 675 l 160 611 l 83 611 z "},"‼":{"ha":599,"x_min":83,"x_max":514,"o":"m 372 235 l 372 876 l 514 876 l 514 235 l 372 235 m 83 -17 l 83 122 l 224 122 l 224 -17 l 83 -17 m 372 -17 l 372 122 l 514 122 l 514 -17 l 372 -17 m 83 235 l 83 876 l 224 876 l 224 235 l 83 235 z "},"#":{"ha":940,"x_min":83,"x_max":856,"o":"m 210 -17 l 210 108 l 83 108 l 83 249 l 210 249 l 210 486 l 83 486 l 83 625 l 210 625 l 210 876 l 349 876 l 349 625 l 588 625 l 588 876 l 729 876 l 729 625 l 856 625 l 856 486 l 729 486 l 729 249 l 856 249 l 856 108 l 729 108 l 729 -17 l 588 -17 l 588 108 l 349 108 l 349 -17 l 210 -17 m 349 249 l 588 249 l 588 486 l 349 486 l 349 249 z "},"/":{"ha":735,"x_min":83,"x_max":649,"o":"m 83 -17 l 525 876 l 649 876 l 207 -17 l 83 -17 z "},"\\":{"ha":735,"x_min":83,"x_max":649,"o":"m 525 -17 l 83 876 l 207 876 l 649 -17 l 525 -17 z "},"-":{"ha":463,"x_min":32,"x_max":424,"o":"m 32 278 l 32 418 l 424 418 l 424 278 l 32 278 z "},"–":{"ha":560,"x_min":83,"x_max":475,"o":"m 83 335 l 83 475 l 475 475 l 475 335 l 83 335 z "},"—":{"ha":697,"x_min":83,"x_max":613,"o":"m 83 335 l 83 475 l 613 475 l 613 335 l 83 335 z "},"_":{"ha":614,"x_min":83,"x_max":531,"o":"m 83 0 l 83 140 l 531 140 l 531 0 l 83 0 z "},"(":{"ha":519,"x_min":83,"x_max":476,"o":"m 335 -222 l 335 33 l 210 33 l 210 283 l 83 283 l 83 549 l 210 549 l 210 801 l 335 801 l 335 1051 l 476 1051 l 476 788 l 349 788 l 349 535 l 224 535 l 224 297 l 349 297 l 349 43 l 476 43 l 476 -222 l 335 -222 z "},")":{"ha":519,"x_min":42,"x_max":435,"o":"m 42 -222 l 42 43 l 168 43 l 168 297 l 294 297 l 294 535 l 168 535 l 168 788 l 42 788 l 42 1051 l 182 1051 l 182 801 l 308 801 l 308 549 l 435 549 l 435 283 l 308 283 l 308 33 l 182 33 l 182 -222 l 42 -222 z "},"{":{"ha":644,"x_min":42,"x_max":560,"o":"m 294 -149 l 294 -22 l 168 -22 l 168 356 l 42 356 l 42 493 l 168 493 l 168 871 l 294 871 l 294 997 l 435 997 l 435 871 l 560 871 l 560 732 l 421 732 l 421 857 l 308 857 l 308 481 l 182 481 l 182 369 l 308 369 l 308 -8 l 421 -8 l 421 118 l 560 118 l 560 -22 l 435 -22 l 435 -149 l 294 -149 z "},"}":{"ha":644,"x_min":42,"x_max":560,"o":"m 167 -149 l 167 -22 l 42 -22 l 42 118 l 181 118 l 181 -8 l 294 -8 l 294 369 l 419 369 l 419 481 l 294 481 l 294 857 l 181 857 l 181 732 l 42 732 l 42 871 l 167 871 l 167 997 l 308 997 l 308 871 l 433 871 l 433 493 l 560 493 l 560 356 l 433 356 l 433 -22 l 308 -22 l 308 -149 l 167 -149 z "},"[":{"ha":519,"x_min":83,"x_max":476,"o":"m 210 -85 l 210 42 l 83 42 l 83 808 l 210 808 l 210 933 l 476 933 l 476 794 l 224 794 l 224 56 l 476 56 l 476 -85 l 210 -85 z "},"]":{"ha":519,"x_min":42,"x_max":435,"o":"m 42 -85 l 42 56 l 294 56 l 294 794 l 42 794 l 42 933 l 308 933 l 308 808 l 435 808 l 435 42 l 308 42 l 308 -85 l 42 -85 z "},"‚":{"ha":371,"x_min":83,"x_max":286,"o":"m 146 -125 l 146 -47 l 210 -47 l 210 0 l 83 0 l 83 140 l 224 140 l 224 14 l 286 14 l 286 -61 l 224 -61 l 224 -125 l 146 -125 z "},"„":{"ha":646,"x_min":83,"x_max":561,"o":"m 422 -125 l 422 -47 l 486 -47 l 486 0 l 358 0 l 358 140 l 500 140 l 500 14 l 561 14 l 561 -61 l 500 -61 l 500 -125 l 422 -125 m 146 -125 l 146 -47 l 210 -47 l 210 0 l 83 0 l 83 140 l 224 140 l 224 14 l 286 14 l 286 -61 l 224 -61 l 224 -125 l 146 -125 z "},"“":{"ha":646,"x_min":83,"x_max":561,"o":"m 421 611 l 421 738 l 358 738 l 358 813 l 421 813 l 421 876 l 499 876 l 499 800 l 435 800 l 435 751 l 561 751 l 561 611 l 421 611 m 144 611 l 144 738 l 83 738 l 83 813 l 144 813 l 144 876 l 222 876 l 222 800 l 158 800 l 158 751 l 286 751 l 286 611 l 144 611 z "},"”":{"ha":646,"x_min":83,"x_max":561,"o":"m 422 611 l 422 689 l 486 689 l 486 736 l 358 736 l 358 876 l 500 876 l 500 750 l 561 750 l 561 675 l 500 675 l 500 611 l 422 611 m 146 611 l 146 689 l 210 689 l 210 736 l 83 736 l 83 876 l 224 876 l 224 750 l 286 750 l 286 675 l 224 675 l 224 611 l 146 611 z "},"‘":{"ha":371,"x_min":83,"x_max":286,"o":"m 144 611 l 144 738 l 83 738 l 83 813 l 144 813 l 144 876 l 222 876 l 222 800 l 158 800 l 158 751 l 286 751 l 286 611 l 144 611 z "},"’":{"ha":371,"x_min":83,"x_max":286,"o":"m 146 611 l 146 689 l 210 689 l 210 736 l 83 736 l 83 876 l 224 876 l 224 750 l 286 750 l 286 675 l 224 675 l 224 611 l 146 611 z "},"«":{"ha":1213,"x_min":42,"x_max":1129,"o":"m 988 -149 l 988 -22 l 863 -22 l 863 104 l 736 104 l 736 229 l 610 229 l 610 356 l 483 356 l 483 493 l 610 493 l 610 619 l 736 619 l 736 746 l 863 746 l 863 871 l 988 871 l 988 997 l 1129 997 l 1129 857 l 1001 857 l 1001 732 l 876 732 l 876 606 l 750 606 l 750 481 l 624 481 l 624 369 l 750 369 l 750 243 l 876 243 l 876 118 l 1001 118 l 1001 -8 l 1129 -8 l 1129 -149 l 988 -149 m 547 -149 l 547 -22 l 421 -22 l 421 104 l 294 104 l 294 229 l 168 229 l 168 356 l 42 356 l 42 493 l 168 493 l 168 619 l 294 619 l 294 746 l 421 746 l 421 871 l 547 871 l 547 997 l 688 997 l 688 857 l 560 857 l 560 732 l 435 732 l 435 606 l 308 606 l 308 481 l 182 481 l 182 369 l 308 369 l 308 243 l 435 243 l 435 118 l 560 118 l 560 -8 l 688 -8 l 688 -149 l 547 -149 z "},"»":{"ha":1185,"x_min":14,"x_max":1101,"o":"m 456 -149 l 456 -8 l 582 -8 l 582 118 l 708 118 l 708 243 l 835 243 l 835 369 l 961 369 l 961 481 l 835 481 l 835 606 l 708 606 l 708 732 l 582 732 l 582 857 l 456 857 l 456 997 l 596 997 l 596 871 l 722 871 l 722 746 l 849 746 l 849 619 l 975 619 l 975 493 l 1101 493 l 1101 356 l 975 356 l 975 229 l 849 229 l 849 104 l 722 104 l 722 -22 l 596 -22 l 596 -149 l 456 -149 m 14 -149 l 14 -8 l 140 -8 l 140 118 l 267 118 l 267 243 l 393 243 l 393 369 l 519 369 l 519 481 l 393 481 l 393 606 l 267 606 l 267 732 l 140 732 l 140 857 l 14 857 l 14 997 l 154 997 l 154 871 l 281 871 l 281 746 l 407 746 l 407 619 l 533 619 l 533 493 l 660 493 l 660 356 l 533 356 l 533 229 l 407 229 l 407 104 l 281 104 l 281 -22 l 154 -22 l 154 -149 l 14 -149 z "},"‹":{"ha":772,"x_min":83,"x_max":729,"o":"m 588 -149 l 588 -22 l 463 -22 l 463 104 l 335 104 l 335 229 l 210 229 l 210 356 l 83 356 l 83 493 l 210 493 l 210 619 l 335 619 l 335 746 l 463 746 l 463 871 l 588 871 l 588 997 l 729 997 l 729 857 l 601 857 l 601 732 l 476 732 l 476 606 l 349 606 l 349 481 l 224 481 l 224 369 l 349 369 l 349 243 l 476 243 l 476 118 l 601 118 l 601 -8 l 729 -8 l 729 -149 l 588 -149 z "},"›":{"ha":772,"x_min":42,"x_max":688,"o":"m 42 -149 l 42 -8 l 168 -8 l 168 118 l 294 118 l 294 243 l 421 243 l 421 369 l 547 369 l 547 481 l 421 481 l 421 606 l 294 606 l 294 732 l 168 732 l 168 857 l 42 857 l 42 997 l 182 997 l 182 871 l 308 871 l 308 746 l 435 746 l 435 619 l 560 619 l 560 493 l 688 493 l 688 356 l 560 356 l 560 229 l 435 229 l 435 104 l 308 104 l 308 -22 l 182 -22 l 182 -149 l 42 -149 z "},"\"":{"ha":646,"x_min":83,"x_max":561,"o":"m 422 611 l 422 689 l 486 689 l 486 736 l 358 736 l 358 876 l 500 876 l 500 750 l 561 750 l 561 675 l 500 675 l 500 611 l 422 611 m 146 611 l 146 689 l 210 689 l 210 736 l 83 736 l 83 876 l 224 876 l 224 750 l 286 750 l 286 675 l 224 675 l 224 611 l 146 611 z "},"'":{"ha":371,"x_min":83,"x_max":286,"o":"m 146 611 l 146 689 l 210 689 l 210 736 l 83 736 l 83 876 l 224 876 l 224 750 l 286 750 l 286 675 l 224 675 l 224 611 l 146 611 z "},"ƒ":{"ha":814,"x_min":-44,"x_max":729,"o":"m -44 -143 l -44 -3 l 83 -3 l 83 750 l 210 750 l 210 876 l 601 876 l 601 750 l 729 750 l 729 611 l 588 611 l 588 736 l 224 736 l 224 499 l 476 499 l 476 361 l 224 361 l 224 -143 l -44 -143 z "},"@":{"ha":814,"x_min":83,"x_max":729,"o":"m 210 86 l 210 150 l 146 150 l 146 213 l 83 213 l 83 540 l 146 540 l 146 601 l 210 601 l 210 665 l 539 665 l 539 601 l 601 601 l 601 540 l 665 540 l 665 478 l 729 478 l 729 338 l 665 338 l 665 275 l 601 275 l 601 213 l 529 213 l 529 265 l 486 265 l 486 213 l 294 213 l 294 265 l 236 265 l 236 435 l 294 435 l 294 489 l 486 489 l 486 435 l 543 435 l 543 278 l 588 278 l 588 351 l 651 351 l 651 464 l 588 464 l 588 526 l 525 526 l 525 589 l 224 589 l 224 526 l 160 526 l 160 226 l 224 226 l 224 164 l 476 164 l 476 86 l 210 86 m 308 278 l 472 278 l 472 421 l 308 421 l 308 278 z "},"&":{"ha":940,"x_min":83,"x_max":856,"o":"m 210 -17 l 210 108 l 83 108 l 83 249 l 210 249 l 210 375 l 335 375 l 335 486 l 210 486 l 210 611 l 83 611 l 83 750 l 210 750 l 210 876 l 601 876 l 601 750 l 729 750 l 729 611 l 601 611 l 601 486 l 476 486 l 476 375 l 601 375 l 601 249 l 729 249 l 729 122 l 856 122 l 856 -17 l 715 -17 l 715 108 l 601 108 l 601 -17 l 210 -17 m 224 122 l 588 122 l 588 235 l 463 235 l 463 361 l 349 361 l 349 235 l 224 235 l 224 122 m 349 499 l 463 499 l 463 625 l 588 625 l 588 736 l 224 736 l 224 625 l 349 625 l 349 499 z "},"¶":{"ha":1064,"x_min":83,"x_max":979,"o":"m 588 -268 l 588 238 l 210 238 l 210 363 l 83 363 l 83 750 l 210 750 l 210 876 l 979 876 l 979 736 l 910 736 l 910 -268 l 838 -268 l 838 736 l 660 736 l 660 -268 l 588 -268 z "},"§":{"ha":814,"x_min":83,"x_max":729,"o":"m 210 -17 l 210 108 l 83 108 l 83 375 l 210 375 l 210 486 l 83 486 l 83 750 l 210 750 l 210 876 l 601 876 l 601 750 l 729 750 l 729 611 l 588 611 l 588 736 l 224 736 l 224 499 l 601 499 l 601 375 l 729 375 l 729 235 l 224 235 l 224 122 l 729 122 l 729 -17 l 210 -17 z "},"©":{"ha":568,"x_min":97,"x_max":469,"o":"m 160 492 l 160 556 l 97 556 l 97 800 l 160 800 l 160 863 l 406 863 l 406 800 l 469 800 l 469 556 l 406 556 l 406 492 l 160 492 m 174 569 l 392 569 l 392 786 l 174 786 l 174 569 m 243 608 l 243 632 l 218 632 l 218 718 l 243 718 l 243 744 l 329 744 l 329 718 l 353 718 l 353 682 l 315 682 l 315 704 l 257 704 l 257 646 l 315 646 l 315 672 l 353 672 l 353 632 l 329 632 l 329 608 l 243 608 z "},"®":{"ha":568,"x_min":97,"x_max":469,"o":"m 160 492 l 160 556 l 97 556 l 97 800 l 160 800 l 160 863 l 406 863 l 406 800 l 469 800 l 469 556 l 406 556 l 406 492 l 160 492 m 174 569 l 392 569 l 392 786 l 174 786 l 174 569 m 238 626 l 238 694 l 254 694 l 254 711 l 307 711 l 307 694 l 324 694 l 324 676 l 306 676 l 306 693 l 257 693 l 257 626 l 238 626 z "},"™":{"ha":1096,"x_min":83,"x_max":1011,"o":"m 546 413 l 546 811 l 611 811 l 611 876 l 689 876 l 689 811 l 753 811 l 753 685 l 804 685 l 804 811 l 868 811 l 868 876 l 949 876 l 949 811 l 1011 811 l 1011 413 l 935 413 l 935 799 l 882 799 l 882 671 l 818 671 l 818 478 l 739 478 l 739 671 l 675 671 l 675 799 l 625 799 l 625 413 l 546 413 m 213 413 l 213 799 l 161 799 l 161 733 l 83 733 l 83 811 l 147 811 l 147 876 l 356 876 l 356 811 l 419 811 l 419 733 l 342 733 l 342 799 l 290 799 l 290 413 l 213 413 z "},"°":{"ha":435,"x_min":83,"x_max":350,"o":"m 133 544 l 133 596 l 83 596 l 83 760 l 133 760 l 133 811 l 300 811 l 300 760 l 350 760 l 350 596 l 300 596 l 300 544 l 133 544 m 147 608 l 286 608 l 286 746 l 147 746 l 147 608 z "},"|":{"ha":308,"x_min":83,"x_max":224,"o":"m 83 -17 l 83 876 l 224 876 l 224 -17 l 83 -17 z "},"†":{"ha":560,"x_min":83,"x_max":475,"o":"m 208 -17 l 208 560 l 83 560 l 83 700 l 208 700 l 208 876 l 349 876 l 349 700 l 475 700 l 475 560 l 349 560 l 349 -17 l 208 -17 z "},"№":{"ha":1611,"x_min":83,"x_max":1526,"o":"m 83 -17 l 83 876 l 224 876 l 224 750 l 349 750 l 349 625 l 476 625 l 476 249 l 588 249 l 588 876 l 729 876 l 729 -17 l 588 -17 l 588 108 l 463 108 l 463 235 l 335 235 l 335 611 l 224 611 l 224 -17 l 83 -17 m 979 -18 l 979 122 l 1426 122 l 1426 -18 l 979 -18 m 1007 232 l 1007 357 l 881 357 l 881 747 l 1007 747 l 1007 874 l 1400 874 l 1400 747 l 1526 747 l 1526 357 l 1400 357 l 1400 232 l 1007 232 m 1021 371 l 1386 371 l 1386 733 l 1021 733 l 1021 371 z "},"¢":{"ha":814,"x_min":83,"x_max":729,"o":"m 331 0 l 331 136 l 210 136 l 210 261 l 83 261 l 83 651 l 210 651 l 210 778 l 331 778 l 331 915 l 482 915 l 482 778 l 601 778 l 601 651 l 729 651 l 729 513 l 588 513 l 588 638 l 224 638 l 224 275 l 588 275 l 588 400 l 729 400 l 729 261 l 601 261 l 601 136 l 482 136 l 482 0 l 331 0 z "},"₡":{"ha":814,"x_min":83,"x_max":729,"o":"m 225 -99 l 238 -17 l 210 -17 l 210 108 l 83 108 l 83 750 l 210 750 l 210 876 l 369 876 l 382 958 l 454 958 l 442 876 l 494 876 l 507 958 l 578 958 l 565 876 l 601 876 l 601 750 l 729 750 l 729 486 l 588 486 l 588 736 l 544 736 l 454 122 l 588 122 l 588 375 l 729 375 l 729 108 l 601 108 l 601 -17 l 433 -17 l 421 -99 l 349 -99 l 361 -17 l 310 -17 l 297 -99 l 225 -99 m 224 122 l 258 122 l 347 736 l 224 736 l 224 122 m 331 122 l 382 122 l 472 736 l 419 736 l 331 122 z "},"¤":{"ha":631,"x_min":83,"x_max":547,"o":"m 211 258 l 211 322 l 147 322 l 147 528 l 211 528 l 211 592 l 418 592 l 418 528 l 482 528 l 482 322 l 418 322 l 418 258 l 211 258 m 83 194 l 83 272 l 161 272 l 161 194 l 83 194 m 83 578 l 83 656 l 161 656 l 161 578 l 83 578 m 225 336 l 404 336 l 404 514 l 225 514 l 225 336 m 468 194 l 468 272 l 547 272 l 547 194 l 468 194 m 468 578 l 468 656 l 547 656 l 547 578 l 468 578 z "},"$":{"ha":814,"x_min":83,"x_max":729,"o":"m 347 -143 l 347 -17 l 210 -17 l 210 108 l 83 108 l 83 249 l 224 249 l 224 122 l 588 122 l 588 361 l 210 361 l 210 486 l 83 486 l 83 750 l 210 750 l 210 876 l 347 876 l 347 1003 l 489 1003 l 489 876 l 601 876 l 601 750 l 729 750 l 729 611 l 588 611 l 588 736 l 224 736 l 224 499 l 601 499 l 601 375 l 729 375 l 729 108 l 601 108 l 601 -17 l 489 -17 l 489 -143 l 347 -143 z "},"€":{"ha":814,"x_min":83,"x_max":729,"o":"m 210 -17 l 210 108 l 83 108 l 83 750 l 210 750 l 210 876 l 601 876 l 601 750 l 729 750 l 729 486 l 588 486 l 588 736 l 224 736 l 224 594 l 478 594 l 478 454 l 224 454 l 224 386 l 478 386 l 478 247 l 224 247 l 224 122 l 588 122 l 588 375 l 729 375 l 729 108 l 601 108 l 601 -17 l 210 -17 z "},"₣":{"ha":813,"x_min":31,"x_max":729,"o":"m 31 -17 l 31 124 l 83 124 l 83 876 l 601 876 l 601 750 l 729 750 l 729 611 l 588 611 l 588 736 l 224 736 l 224 499 l 476 499 l 476 361 l 224 361 l 224 124 l 285 124 l 285 -17 l 31 -17 z "},"₤":{"ha":939,"x_min":83,"x_max":854,"o":"m 83 -17 l 83 122 l 210 122 l 210 750 l 335 750 l 335 876 l 729 876 l 729 750 l 854 750 l 854 611 l 715 611 l 715 736 l 349 736 l 349 568 l 601 568 l 601 429 l 349 429 l 349 349 l 601 349 l 601 210 l 349 210 l 349 122 l 715 122 l 715 249 l 854 249 l 854 108 l 729 108 l 729 -17 l 83 -17 z "},"₧":{"ha":1660,"x_min":83,"x_max":1575,"o":"m 83 -17 l 83 750 l 210 750 l 210 876 l 601 876 l 601 750 l 729 750 l 729 361 l 601 361 l 601 235 l 224 235 l 224 -17 l 83 -17 m 224 375 l 588 375 l 588 736 l 224 736 l 224 375 m 922 -17 l 922 46 l 860 46 l 860 229 l 797 229 l 797 306 l 860 306 l 860 428 l 936 428 l 936 306 l 1122 306 l 1122 229 l 936 229 l 936 60 l 1108 60 l 1108 121 l 1185 121 l 1185 46 l 1122 46 l 1122 -17 l 922 -17 m 1250 -17 l 1250 60 l 1499 60 l 1499 107 l 1314 107 l 1314 168 l 1250 168 l 1250 243 l 1314 243 l 1314 306 l 1575 306 l 1575 229 l 1328 229 l 1328 182 l 1513 182 l 1513 121 l 1575 121 l 1575 46 l 1513 46 l 1513 -17 l 1250 -17 z "},"£":{"ha":939,"x_min":83,"x_max":854,"o":"m 83 -17 l 83 122 l 210 122 l 210 750 l 335 750 l 335 876 l 729 876 l 729 750 l 854 750 l 854 611 l 715 611 l 715 736 l 349 736 l 349 499 l 601 499 l 601 361 l 349 361 l 349 122 l 715 122 l 715 249 l 854 249 l 854 108 l 729 108 l 729 -17 l 83 -17 z "},"¥":{"ha":814,"x_min":83,"x_max":729,"o":"m 335 -17 l 335 97 l 210 97 l 210 236 l 335 236 l 335 285 l 210 285 l 210 425 l 335 425 l 335 486 l 210 486 l 210 611 l 83 611 l 83 876 l 224 876 l 224 625 l 349 625 l 349 499 l 463 499 l 463 625 l 588 625 l 588 876 l 729 876 l 729 611 l 601 611 l 601 486 l 476 486 l 476 425 l 601 425 l 601 285 l 476 285 l 476 236 l 601 236 l 601 97 l 476 97 l 476 -17 l 335 -17 z "},"∕":{"ha":735,"x_min":83,"x_max":650,"o":"m 83 -17 l 83 217 l 193 217 l 193 436 l 304 436 l 304 546 l 414 546 l 414 767 l 526 767 l 526 876 l 650 876 l 650 643 l 540 643 l 540 532 l 428 532 l 428 313 l 318 313 l 318 203 l 207 203 l 207 -17 l 83 -17 z "},"+":{"ha":833,"x_min":93,"x_max":739,"o":"m 344 121 l 344 357 l 93 357 l 93 496 l 344 496 l 344 763 l 486 763 l 486 496 l 739 496 l 739 357 l 486 357 l 486 121 l 344 121 z "},"−":{"ha":833,"x_min":151,"x_max":681,"o":"m 151 335 l 151 475 l 681 475 l 681 335 l 151 335 z "},"×":{"ha":833,"x_min":133,"x_max":699,"o":"m 242 156 l 143 254 l 322 431 l 133 618 l 232 717 l 421 529 l 600 707 l 699 608 l 521 431 l 688 265 l 589 167 l 421 332 l 242 156 z "},"÷":{"ha":833,"x_min":151,"x_max":681,"o":"m 151 335 l 151 475 l 681 475 l 681 335 l 151 335 m 346 113 l 346 253 l 486 253 l 486 113 l 346 113 m 346 565 l 346 704 l 486 704 l 486 565 l 346 565 z "},"=":{"ha":833,"x_min":151,"x_max":682,"o":"m 151 403 l 151 543 l 682 543 l 682 403 l 151 403 m 151 188 l 151 326 l 682 326 l 682 188 l 151 188 z "},"≠":{"ha":833,"x_min":151,"x_max":682,"o":"m 236 14 l 443 710 l 583 710 l 376 14 l 236 14 m 151 188 l 151 326 l 682 326 l 682 188 l 151 188 m 151 403 l 151 543 l 682 543 l 682 403 l 151 403 z "},">":{"ha":833,"x_min":93,"x_max":739,"o":"m 93 -149 l 93 -8 l 219 -8 l 219 118 l 346 118 l 346 243 l 472 243 l 472 369 l 599 369 l 599 481 l 472 481 l 472 606 l 346 606 l 346 732 l 219 732 l 219 857 l 93 857 l 93 997 l 233 997 l 233 871 l 360 871 l 360 746 l 486 746 l 486 619 l 611 619 l 611 493 l 739 493 l 739 356 l 611 356 l 611 229 l 486 229 l 486 104 l 360 104 l 360 -22 l 233 -22 l 233 -149 l 93 -149 z "},"<":{"ha":833,"x_min":93,"x_max":739,"o":"m 597 -149 l 597 -22 l 472 -22 l 472 104 l 344 104 l 344 229 l 219 229 l 219 356 l 93 356 l 93 493 l 219 493 l 219 619 l 344 619 l 344 746 l 472 746 l 472 871 l 597 871 l 597 997 l 739 997 l 739 857 l 611 857 l 611 732 l 486 732 l 486 606 l 358 606 l 358 481 l 233 481 l 233 369 l 358 369 l 358 243 l 486 243 l 486 118 l 611 118 l 611 -8 l 739 -8 l 739 -149 l 597 -149 z "},"≥":{"ha":833,"x_min":175,"x_max":658,"o":"m 176 147 l 176 254 l 271 254 l 271 347 l 364 347 l 364 439 l 458 439 l 458 532 l 550 532 l 550 611 l 458 611 l 458 704 l 364 704 l 364 799 l 271 799 l 271 890 l 176 890 l 176 997 l 285 997 l 285 904 l 378 904 l 378 811 l 471 811 l 471 718 l 564 718 l 564 625 l 658 625 l 658 518 l 564 518 l 564 425 l 471 425 l 471 333 l 378 333 l 378 240 l 285 240 l 285 147 l 176 147 m 175 -83 l 175 6 l 658 6 l 658 -83 l 175 -83 z "},"≤":{"ha":833,"x_min":175,"x_max":657,"o":"m 547 147 l 547 240 l 454 240 l 454 333 l 361 333 l 361 425 l 268 425 l 268 518 l 175 518 l 175 625 l 268 625 l 268 718 l 361 718 l 361 811 l 454 811 l 454 904 l 547 904 l 547 997 l 656 997 l 656 890 l 561 890 l 561 799 l 468 799 l 468 704 l 375 704 l 375 611 l 282 611 l 282 532 l 375 532 l 375 439 l 468 439 l 468 347 l 561 347 l 561 254 l 656 254 l 656 147 l 547 147 m 175 -83 l 175 6 l 657 6 l 657 -83 l 175 -83 z "},"±":{"ha":833,"x_min":140,"x_max":694,"o":"m 342 215 l 342 382 l 140 382 l 140 515 l 342 515 l 342 682 l 492 682 l 492 515 l 694 515 l 694 382 l 492 382 l 492 215 l 342 215 m 140 -10 l 140 129 l 694 129 l 694 -10 l 140 -10 z "},"≈":{"ha":833,"x_min":244,"x_max":588,"o":"m 244 403 l 244 546 l 456 546 l 456 482 l 507 482 l 507 546 l 588 546 l 588 403 l 375 403 l 375 468 l 324 468 l 324 403 l 244 403 m 244 183 l 244 326 l 456 326 l 456 263 l 507 263 l 507 326 l 588 326 l 588 183 l 375 183 l 375 249 l 324 249 l 324 183 l 244 183 z "},"~":{"ha":833,"x_min":244,"x_max":588,"o":"m 244 274 l 244 417 l 456 417 l 456 353 l 507 353 l 507 417 l 588 417 l 588 274 l 375 274 l 375 339 l 324 339 l 324 274 l 244 274 z "},"¬":{"ha":833,"x_min":151,"x_max":681,"o":"m 540 276 l 540 403 l 151 403 l 151 543 l 681 543 l 681 276 l 540 276 z "},"^":{"ha":371,"x_min":83,"x_max":286,"o":"m 83 736 l 83 813 l 146 813 l 146 876 l 224 876 l 224 813 l 286 813 l 286 736 l 210 736 l 210 800 l 160 800 l 160 736 l 83 736 z "},"∞":{"ha":1318,"x_min":83,"x_max":1233,"o":"m 210 -17 l 210 108 l 83 108 l 83 499 l 210 499 l 210 625 l 601 625 l 601 499 l 715 499 l 715 625 l 1107 625 l 1107 499 l 1233 499 l 1233 108 l 1107 108 l 1107 -17 l 715 -17 l 715 108 l 601 108 l 601 -17 l 210 -17 m 224 122 l 588 122 l 588 486 l 224 486 l 224 122 m 729 122 l 1093 122 l 1093 486 l 729 486 l 729 122 z "},"Ω":{"ha":813,"x_min":0,"x_max":811,"o":"m 0 -18 l 0 122 l 83 122 l 83 750 l 210 750 l 210 875 l 601 875 l 601 750 l 729 750 l 729 122 l 811 122 l 811 -18 l 588 -18 l 588 736 l 224 736 l 224 -18 l 0 -18 z "},"∆":{"ha":814,"x_min":83,"x_max":729,"o":"m 83 -17 l 83 625 l 210 625 l 210 750 l 335 750 l 335 876 l 476 876 l 476 750 l 601 750 l 601 625 l 729 625 l 729 -17 l 83 -17 m 224 124 l 588 124 l 588 611 l 463 611 l 463 736 l 349 736 l 349 611 l 224 611 l 224 124 z "},"∏":{"ha":814,"x_min":83,"x_max":729,"o":"m 83 -17 l 83 876 l 729 876 l 729 -17 l 589 -17 l 589 736 l 224 736 l 224 -17 l 83 -17 z "},"∑":{"ha":1065,"x_min":82,"x_max":979,"o":"m 208 -17 l 208 110 l 82 110 l 82 249 l 208 249 l 208 375 l 461 375 l 461 486 l 208 486 l 208 611 l 82 611 l 82 751 l 208 751 l 208 876 l 979 876 l 979 738 l 222 738 l 222 625 l 475 625 l 475 499 l 854 499 l 854 361 l 475 361 l 475 235 l 222 235 l 222 124 l 979 124 l 979 -17 l 208 -17 z "},"µ":{"ha":814,"x_min":83,"x_max":729,"o":"m 83 -261 l 83 625 l 224 625 l 224 122 l 588 122 l 588 625 l 729 625 l 729 108 l 601 108 l 601 -17 l 224 -17 l 224 -261 l 83 -261 z "},"%":{"ha":1204,"x_min":83,"x_max":1119,"o":"m 151 -17 l 151 122 l 279 122 l 279 249 l 404 249 l 404 375 l 532 375 l 532 499 l 657 499 l 657 625 l 783 625 l 783 750 l 911 750 l 911 876 l 1050 876 l 1050 736 l 925 736 l 925 611 l 797 611 l 797 486 l 671 486 l 671 361 l 546 361 l 546 235 l 418 235 l 418 108 l 293 108 l 293 -17 l 151 -17 m 210 486 l 210 611 l 83 611 l 83 750 l 210 750 l 210 876 l 349 876 l 349 750 l 476 750 l 476 611 l 349 611 l 349 486 l 210 486 m 853 -17 l 853 108 l 726 108 l 726 249 l 853 249 l 853 375 l 993 375 l 993 249 l 1119 249 l 1119 108 l 993 108 l 993 -17 l 853 -17 z "},"‰":{"ha":892,"x_min":42,"x_max":807,"o":"m 147 481 l 147 544 l 83 544 l 83 881 l 147 881 l 147 944 l 356 944 l 356 881 l 421 881 l 421 544 l 356 544 l 356 481 l 147 481 m 147 -86 l 147 -22 l 83 -22 l 83 164 l 147 164 l 147 228 l 356 228 l 356 164 l 421 164 l 421 -22 l 356 -22 l 356 -86 l 147 -86 m 161 -8 l 342 -8 l 342 150 l 161 150 l 161 -8 m 535 -86 l 535 -22 l 469 -22 l 469 164 l 535 164 l 535 228 l 743 228 l 743 164 l 807 164 l 807 -22 l 743 -22 l 743 -86 l 535 -86 m 547 -8 l 729 -8 l 729 150 l 547 150 l 547 -8 m 42 343 l 42 406 l 743 406 l 743 343 l 42 343 m 161 558 l 342 558 l 342 867 l 161 867 l 161 558 z "},"̈":{"ha":0,"x_min":-10,"x_max":426,"o":"m -10 728 l -10 868 l 132 868 l 132 728 l -10 728 m 286 728 l 286 868 l 426 868 l 426 728 l 286 728 z "},"̇":{"ha":0,"x_min":138,"x_max":279,"o":"m 138 728 l 138 868 l 279 868 l 279 728 l 138 728 z "},"̀":{"ha":0,"x_min":83,"x_max":286,"o":"m 210 728 l 210 789 l 146 789 l 146 853 l 83 853 l 83 929 l 160 929 l 160 865 l 224 865 l 224 803 l 286 803 l 286 728 l 210 728 z "},"́":{"ha":0,"x_min":107,"x_max":310,"o":"m 107 728 l 107 803 l 169 803 l 169 865 l 233 865 l 233 929 l 310 929 l 310 853 l 247 853 l 247 789 l 183 789 l 183 728 l 107 728 z "},"̋":{"ha":0,"x_min":25,"x_max":393,"o":"m 317 728 l 317 789 l 253 789 l 253 853 l 190 853 l 190 929 l 267 929 l 267 865 l 331 865 l 331 803 l 393 803 l 393 728 l 317 728 m 151 728 l 151 789 l 88 789 l 88 853 l 25 853 l 25 929 l 101 929 l 101 865 l 165 865 l 165 803 l 228 803 l 228 728 l 151 728 z "},"̂":{"ha":0,"x_min":107,"x_max":310,"o":"m 107 728 l 107 804 l 169 804 l 169 868 l 247 868 l 247 804 l 310 804 l 310 728 l 233 728 l 233 792 l 183 792 l 183 728 l 107 728 z "},"̌":{"ha":0,"x_min":107,"x_max":310,"o":"m 169 728 l 169 792 l 107 792 l 107 868 l 183 868 l 183 804 l 233 804 l 233 868 l 310 868 l 310 792 l 247 792 l 247 728 l 169 728 z "},"̆":{"ha":0,"x_min":40,"x_max":378,"o":"m 40 728 l 40 868 l 117 868 l 117 804 l 303 804 l 303 868 l 378 868 l 378 728 l 40 728 z "},"̊":{"ha":0,"x_min":139,"x_max":279,"o":"m 139 728 l 139 868 l 279 868 l 279 728 l 139 728 m 185 774 l 233 774 l 233 822 l 185 822 l 185 774 z "},"̃":{"ha":0,"x_min":38,"x_max":381,"o":"m 38 728 l 38 871 l 249 871 l 249 807 l 300 807 l 300 871 l 381 871 l 381 728 l 168 728 l 168 793 l 117 793 l 117 728 l 38 728 z "},"̄":{"ha":0,"x_min":13,"x_max":404,"o":"m 13 728 l 13 839 l 404 839 l 404 728 l 13 728 z "},"̒":{"ha":0,"x_min":107,"x_max":310,"o":"m 169 728 l 169 854 l 107 854 l 107 929 l 169 929 l 169 993 l 247 993 l 247 915 l 183 915 l 183 868 l 310 868 l 310 728 l 169 728 z "},"̦":{"ha":0,"x_min":122,"x_max":325,"o":"m 185 -339 l 185 -261 l 249 -261 l 249 -214 l 122 -214 l 122 -74 l 263 -74 l 263 -200 l 325 -200 l 325 -275 l 263 -275 l 263 -339 l 185 -339 z "},"̧":{"ha":0,"x_min":43,"x_max":372,"o":"m 107 -278 l 107 -215 l 43 -215 l 43 -139 l 121 -139 l 121 -201 l 296 -201 l 296 -153 l 232 -153 l 232 -90 l 169 -90 l 169 51 l 246 51 l 246 -76 l 310 -76 l 310 -139 l 372 -139 l 372 -215 l 310 -215 l 310 -278 l 107 -278 z "},"̨":{"ha":0,"x_min":43,"x_max":372,"o":"m 107 -278 l 107 -215 l 43 -215 l 43 -139 l 107 -139 l 107 -76 l 169 -76 l 169 53 l 246 53 l 246 -90 l 183 -90 l 183 -153 l 121 -153 l 121 -201 l 296 -201 l 296 -139 l 372 -139 l 372 -215 l 310 -215 l 310 -278 l 107 -278 z "},"¨":{"ha":417,"x_min":-12,"x_max":424,"o":"m -12 671 l -12 811 l 129 811 l 129 671 l -12 671 m 283 671 l 283 811 l 424 811 l 424 671 l 283 671 z "},"˙":{"ha":417,"x_min":150,"x_max":292,"o":"m 150 751 l 150 892 l 292 892 l 292 751 l 150 751 z "},"`":{"ha":369,"x_min":83,"x_max":286,"o":"m 210 728 l 210 789 l 146 789 l 146 853 l 83 853 l 83 929 l 160 929 l 160 865 l 224 865 l 224 803 l 286 803 l 286 728 l 210 728 z "},"´":{"ha":417,"x_min":83,"x_max":286,"o":"m 83 750 l 83 825 l 146 825 l 146 888 l 210 888 l 210 951 l 286 951 l 286 875 l 224 875 l 224 811 l 160 811 l 160 750 l 83 750 z "},"˝":{"ha":417,"x_min":17,"x_max":385,"o":"m 308 751 l 308 813 l 244 813 l 244 876 l 182 876 l 182 953 l 258 953 l 258 889 l 322 889 l 322 826 l 385 826 l 385 751 l 308 751 m 143 751 l 143 813 l 79 813 l 79 876 l 17 876 l 17 953 l 93 953 l 93 889 l 157 889 l 157 826 l 219 826 l 219 751 l 143 751 z "},"ˆ":{"ha":417,"x_min":107,"x_max":310,"o":"m 107 728 l 107 804 l 169 804 l 169 868 l 247 868 l 247 804 l 310 804 l 310 728 l 233 728 l 233 792 l 183 792 l 183 728 l 107 728 z "},"ˇ":{"ha":417,"x_min":107,"x_max":310,"o":"m 169 728 l 169 792 l 107 792 l 107 868 l 183 868 l 183 804 l 233 804 l 233 868 l 310 868 l 310 792 l 247 792 l 247 728 l 169 728 z "},"˘":{"ha":417,"x_min":33,"x_max":371,"o":"m 33 750 l 33 890 l 110 890 l 110 826 l 296 826 l 296 890 l 371 890 l 371 750 l 33 750 z "},"˚":{"ha":417,"x_min":131,"x_max":271,"o":"m 131 751 l 131 892 l 271 892 l 271 751 l 131 751 m 176 797 l 225 797 l 225 846 l 176 846 l 176 797 z "},"˜":{"ha":417,"x_min":38,"x_max":381,"o":"m 38 728 l 38 871 l 249 871 l 249 807 l 300 807 l 300 871 l 381 871 l 381 728 l 168 728 l 168 793 l 117 793 l 117 728 l 38 728 z "},"¯":{"ha":417,"x_min":18,"x_max":410,"o":"m 18 751 l 18 892 l 410 892 l 410 751 l 18 751 z "},"¸":{"ha":417,"x_min":61,"x_max":390,"o":"m 125 -278 l 125 -215 l 61 -215 l 61 -139 l 139 -139 l 139 -201 l 314 -201 l 314 -153 l 250 -153 l 250 -90 l 188 -90 l 188 51 l 264 51 l 264 -76 l 328 -76 l 328 -139 l 390 -139 l 390 -215 l 328 -215 l 328 -278 l 125 -278 z "},"˛":{"ha":417,"x_min":44,"x_max":374,"o":"m 108 -278 l 108 -215 l 44 -215 l 44 -139 l 108 -139 l 108 -76 l 171 -76 l 171 53 l 247 53 l 247 -90 l 185 -90 l 185 -153 l 122 -153 l 122 -201 l 297 -201 l 297 -139 l 374 -139 l 374 -215 l 311 -215 l 311 -278 l 108 -278 z "}}}
